<svg xmlns="http://www.w3.org/2000/svg" xmlns:xlink="http://www.w3.org/1999/xlink" width="1919.637" height="1005.4" viewBox="0 0 1919.637 1005.4">
  <defs>
    <style>
      .cls-1 {
        fill: #0c327f;
      }

      .cls-2 {
        fill: none;
        stroke: #0c327f;
        stroke-width: 2px;
      }

      .cls-3 {
        fill: url(#linear-gradient);
      }

      .cls-4 {
        fill: url(#linear-gradient-2);
      }

      .cls-5 {
        fill: #18dfed;
      }
    </style>
    <linearGradient id="linear-gradient" x1="0.464" y1="0.219" x2="0.491" y2="0.853" gradientUnits="objectBoundingBox">
      <stop offset="0" stop-color="#18dfed"/>
      <stop offset="1" stop-color="#0c2577"/>
    </linearGradient>
    <linearGradient id="linear-gradient-2" x1="0.5" y1="0" x2="0.5" y2="1" xlink:href="#linear-gradient"/>
  </defs>
  <g id="Group_33" data-name="Group 33" transform="translate(0 -75)">
    <g id="Group_31" data-name="Group 31" transform="translate(5 1)">
      <g id="Group_13" data-name="Group 13" transform="translate(-375 52)">
        <circle id="Ellipse_3" data-name="Ellipse 3" class="cls-1" cx="7.5" cy="7.5" r="7.5" transform="translate(809 728)"/>
        <path id="Polygon_10" data-name="Polygon 10" class="cls-1" d="M6.5,0,13,23H0Z" transform="translate(823 765) rotate(180)"/>
        <path id="Path_8" data-name="Path 8" class="cls-1" d="M9180.5,728s9.167-2.667,11.5,3-4,14-4,14-.333-11.333,0-11.333S9180.5,728,9180.5,728Z" transform="matrix(0.839, -0.545, 0.545, 0.839, -7285.902, 5123.099)"/>
        <path id="Polygon_12" data-name="Polygon 12" class="cls-1" d="M9.5,0,19,23H0Z" transform="translate(807 748)"/>
      </g>
      <g id="Group_30" data-name="Group 30">
        <path id="Polygon_13" data-name="Polygon 13" class="cls-1" d="M2,0,4,20H0Z" transform="translate(440 840) rotate(180)"/>
        <path id="Polygon_14" data-name="Polygon 14" class="cls-1" d="M2,0,4,20H0Z" transform="translate(445 840) rotate(180)"/>
        <line id="Line_1" data-name="Line 1" class="cls-2" x1="3" y2="14" transform="translate(433.5 795.5)"/>
        <line id="Line_2" data-name="Line 2" class="cls-2" x2="2" y2="14" transform="translate(446.5 795.5)"/>
      </g>
    </g>
    <g id="Group_35" data-name="Group 35">
      <path id="Path_1" data-name="Path 1" class="cls-3" d="M4122.637,609.333V152.364S3810.818,220.242,3657.484,316,3466.575,554.788,3162.6,712.121s-507.449,118.788-648.055,90.909S2310.333,731,2272,716s-69-6.667-69-6.667l1.454,367.067H4122.637V609.333Z" transform="translate(-2203 4)"/>
    </g>
    <g id="Group_5" data-name="Group 5">
      <path id="Polygon_8" data-name="Polygon 8" class="cls-4" d="M22.5,0,45,88H0Z" transform="translate(909 601)"/>
      <rect id="Rectangle_13" data-name="Rectangle 13" class="cls-1" width="8" height="46" transform="translate(928 689)"/>
    </g>
    <g id="Group_6" data-name="Group 6">
      <rect id="Rectangle_14" data-name="Rectangle 14" class="cls-1" width="8" height="46" transform="translate(965 700)"/>
      <path id="Polygon_9" data-name="Polygon 9" class="cls-4" d="M18,0,36,69H0Z" transform="translate(951 654)"/>
    </g>
    <g id="Group_4" data-name="Group 4" transform="translate(0 19.3)">
      <rect id="Rectangle_15" data-name="Rectangle 15" class="cls-1" width="8" height="46" transform="translate(902 696.7)"/>
      <path id="Path_6" data-name="Path 6" class="cls-4" d="M19.389,0,38.778,54.6H0Z" transform="translate(887 659.4)"/>
    </g>
    <g id="Group_9" data-name="Group 9" transform="translate(249 725.55)">
      <rect id="Rectangle_15-2" data-name="Rectangle 15" class="cls-1" width="8" height="46" transform="translate(15 37.45)"/>
      <path id="Path_6-2" data-name="Path 6" class="cls-4" d="M19.389,0,38.778,54.6H0Z"/>
    </g>
    <g id="Group_7" data-name="Group 7" transform="translate(272.68 700.2)">
      <path id="Polygon_8-2" data-name="Polygon 8" class="cls-4" d="M22.5,0,45,88H0Z" transform="translate(0.32 -0.2)"/>
      <rect id="Rectangle_13-2" data-name="Rectangle 13" class="cls-1" width="8" height="46" transform="translate(19.32 87.8)"/>
    </g>
    <g id="Group_8" data-name="Group 8" transform="translate(317.2 721.2)">
      <rect id="Rectangle_14-2" data-name="Rectangle 14" class="cls-1" width="8" height="46" transform="translate(13.8 45.8)"/>
      <path id="Polygon_9-2" data-name="Polygon 9" class="cls-4" d="M18,0,36,69H0Z" transform="translate(-0.2 -0.2)"/>
    </g>
    <g id="Group_10" data-name="Group 10" transform="translate(857 -526)">
      <path id="Polygon_8-3" data-name="Polygon 8" class="cls-5" d="M22.5,0,45,88H0Z" transform="translate(909 601)"/>
      <rect id="Rectangle_13-3" data-name="Rectangle 13" class="cls-5" width="8" height="46" transform="translate(928 689)"/>
    </g>
    <g id="Group_11" data-name="Group 11" transform="translate(885 -566)">
      <rect id="Rectangle_14-3" data-name="Rectangle 14" class="cls-5" width="8" height="46" transform="translate(965 700)"/>
      <path id="Polygon_9-3" data-name="Polygon 9" class="cls-5" d="M18,0,36,69H0Z" transform="translate(951 654)"/>
    </g>
    <g id="Group_12" data-name="Group 12" transform="translate(910 -544.7)">
      <rect id="Rectangle_15-3" data-name="Rectangle 15" class="cls-5" width="8" height="46" transform="translate(902 696.7)"/>
      <path id="Path_6-3" data-name="Path 6" class="cls-5" d="M19.389,0,38.778,54.6H0Z" transform="translate(887 659.4)"/>
    </g>
  </g>
</svg>
