<svg xmlns="http://www.w3.org/2000/svg" xmlns:xlink="http://www.w3.org/1999/xlink" width="2863.879" height="1006.333" viewBox="0 0 2863.879 1006.333">
  <defs>
    <linearGradient id="linear-gradient" x1="0.464" y1="0.219" x2="0.491" y2="0.853" gradientUnits="objectBoundingBox">
      <stop offset="0" stop-color="#18dfed"/>
      <stop offset="1" stop-color="#0c2577"/>
    </linearGradient>
    <linearGradient id="linear-gradient-2" x1="0.5" y1="0" x2="0.5" y2="1" xlink:href="#linear-gradient"/>
  </defs>
  <g id="Group_36" data-name="Group 36" transform="translate(9.212 -71)">
    <g id="Group_35" data-name="Group 35" transform="translate(484 -4)">
      <g id="Group_37" data-name="Group 37">
        <path id="Path_1" data-name="Path 1" d="M4573.667,684V133.333s-285.5,1.773-548.728,51.515c-158.21,29.9-310.107,95.338-367.455,131.152-153.333,95.758-190.909,238.788-494.884,396.121s-507.449,118.788-648.055,90.909S2258.272,769.7,2258.272,769.7s-168.538-17.212-309.091,0-239.394,109.091-239.394,109.091V1076.4l2863.879.933V684Z" transform="translate(-2203 4)" fill="url(#linear-gradient)"/>
      </g>
    </g>
    <g id="Group_5" data-name="Group 5" transform="translate(484 -4)">
      <path id="Polygon_8" data-name="Polygon 8" d="M22.5,0,45,88H0Z" transform="translate(909 601)" fill="url(#linear-gradient-2)"/>
      <rect id="Rectangle_13" data-name="Rectangle 13" width="8" height="46" transform="translate(928 689)" fill="#0c327f"/>
    </g>
    <g id="Group_6" data-name="Group 6" transform="translate(484 -4)">
      <rect id="Rectangle_14" data-name="Rectangle 14" width="8" height="46" transform="translate(965 700)" fill="#0c327f"/>
      <path id="Polygon_9" data-name="Polygon 9" d="M18,0,36,69H0Z" transform="translate(951 654)" fill="url(#linear-gradient-2)"/>
    </g>
    <g id="Group_4" data-name="Group 4" transform="translate(484 15.3)">
      <rect id="Rectangle_15" data-name="Rectangle 15" width="8" height="46" transform="translate(902 696.7)" fill="#0c327f"/>
      <path id="Path_6" data-name="Path 6" d="M19.389,0,38.778,54.6H0Z" transform="translate(887 659.4)" fill="url(#linear-gradient-2)"/>
    </g>
    <g id="Group_9" data-name="Group 9" transform="translate(733 721.55)">
      <rect id="Rectangle_15-2" data-name="Rectangle 15" width="8" height="46" transform="translate(15 37.45)" fill="#0c327f"/>
      <path id="Path_6-2" data-name="Path 6" d="M19.389,0,38.778,54.6H0Z" fill="url(#linear-gradient-2)"/>
    </g>
    <g id="Group_7" data-name="Group 7" transform="translate(756.68 696.2)">
      <path id="Polygon_8-2" data-name="Polygon 8" d="M22.5,0,45,88H0Z" transform="translate(0.32 -0.2)" fill="url(#linear-gradient-2)"/>
      <rect id="Rectangle_13-2" data-name="Rectangle 13" width="8" height="46" transform="translate(19.32 87.8)" fill="#0c327f"/>
    </g>
    <g id="Group_8" data-name="Group 8" transform="translate(801.2 717.2)">
      <rect id="Rectangle_14-2" data-name="Rectangle 14" width="8" height="46" transform="translate(13.8 45.8)" fill="#0c327f"/>
      <path id="Polygon_9-2" data-name="Polygon 9" d="M18,0,36,69H0Z" transform="translate(-0.2 -0.2)" fill="url(#linear-gradient-2)"/>
    </g>
    <g id="Group_10" data-name="Group 10" transform="translate(1341 -530)">
      <path id="Polygon_8-3" data-name="Polygon 8" d="M22.5,0,45,88H0Z" transform="translate(909 601)" fill="#18dfed"/>
      <rect id="Rectangle_13-3" data-name="Rectangle 13" width="8" height="46" transform="translate(928 689)" fill="#18dfed"/>
    </g>
    <g id="Group_11" data-name="Group 11" transform="translate(1369 -562)">
      <rect id="Rectangle_14-3" data-name="Rectangle 14" width="8" height="46" transform="translate(965 700)" fill="#18dfed"/>
      <path id="Polygon_9-3" data-name="Polygon 9" d="M18,0,36,69H0Z" transform="translate(951 654)" fill="#18dfed"/>
    </g>
    <g id="Group_12" data-name="Group 12" transform="translate(1394 -548.7)">
      <rect id="Rectangle_15-3" data-name="Rectangle 15" width="8" height="46" transform="translate(902 696.7)" fill="#18dfed"/>
      <path id="Path_6-3" data-name="Path 6" d="M19.389,0,38.778,54.6H0Z" transform="translate(887 659.4)" fill="#18dfed"/>
    </g>
  </g>
</svg>
