<svg id="award" xmlns="http://www.w3.org/2000/svg" width="69" height="92.001" viewBox="0 0 69 92.001">
  <path id="Icon_awesome-award" data-name="Icon awesome-award" d="M17.451,65.16c-1.561-1.561-.747-1.121-4.514-2.129a12.964,12.964,0,0,1-4.569-2.393L.216,80.626a2.875,2.875,0,0,0,2.773,3.958l9.468-.361L18.968,91.1a2.874,2.874,0,0,0,4.749-.891L33.07,67.279A12.895,12.895,0,0,1,17.451,65.16ZM68.784,80.626,60.632,60.638a12.935,12.935,0,0,1-4.569,2.393c-3.786,1.013-2.956.571-4.514,2.129a12.9,12.9,0,0,1-15.62,2.118L45.281,90.21a2.875,2.875,0,0,0,4.749.891l6.514-6.878,9.468.361a2.876,2.876,0,0,0,2.773-3.958ZM47.258,61.094c2.746-2.794,3.06-2.553,6.97-3.619a7.3,7.3,0,0,0,5.116-5.207c1.344-5.1,1-4.487,4.663-8.221a7.454,7.454,0,0,0,1.872-7.112c-1.342-5.1-1.344-4.388,0-9.493a7.454,7.454,0,0,0-1.872-7.112c-3.667-3.734-3.319-3.119-4.663-8.221A7.3,7.3,0,0,0,54.228,6.9c-5.01-1.367-4.406-1.01-8.077-4.746A7.15,7.15,0,0,0,39.163.251c-5.008,1.366-4.309,1.367-9.326,0a7.146,7.146,0,0,0-6.988,1.906C19.182,5.891,19.785,5.535,14.774,6.9A7.3,7.3,0,0,0,9.658,12.11c-1.342,5.1-1,4.487-4.663,8.221a7.45,7.45,0,0,0-1.872,7.112c1.342,5.1,1.344,4.384,0,9.491A7.458,7.458,0,0,0,5,44.047c3.667,3.734,3.319,3.118,4.663,8.221a7.3,7.3,0,0,0,5.116,5.207c4.021,1.1,4.321.924,6.968,3.619A7.141,7.141,0,0,0,30.68,62.14a7.129,7.129,0,0,1,7.642,0A7.139,7.139,0,0,0,47.258,61.094ZM17.548,31.618A16.954,16.954,0,1,1,34.5,48.872,17.1,17.1,0,0,1,17.548,31.618Z" transform="translate(0 0)"/>
</svg>
