<svg xmlns="http://www.w3.org/2000/svg" width="39" height="26" viewBox="0 0 39 26">
  <g id="Group_695" data-name="Group 695" transform="translate(-42 0.254)">
    <g id="Component_20_1" data-name="Component 20 – 1" transform="translate(42 -0.254)">
      <rect id="Rectangle_341" data-name="Rectangle 341" width="39" height="26" fill="none"/>
      <path id="Icon_awesome-behance" data-name="Icon awesome-behance" d="M11.435,13.276a3.74,3.74,0,0,0,2.386-3.647c0-3.48-2.593-4.328-5.584-4.328H0V22.77H8.468c3.174,0,6.156-1.523,6.156-5.072a4.209,4.209,0,0,0-3.189-4.421ZM3.84,8.284h3.6c1.385,0,2.632.389,2.632,2,0,1.484-.971,2.08-2.341,2.08H3.84V8.284ZM7.945,19.8H3.84V14.992H8.024c1.691,0,2.76.7,2.76,2.494,0,1.765-1.277,2.317-2.839,2.317ZM25.615,7.939H18.533V6.218h7.083v1.72Zm2.775,8.69c0-3.741-2.188-6.861-6.156-6.861a6.356,6.356,0,0,0-6.472,6.693c0,3.938,2.479,6.639,6.472,6.639a5.639,5.639,0,0,0,5.92-4.254H25.088A2.878,2.878,0,0,1,22.343,20.5c-2.036,0-3.105-1.193-3.105-3.219h9.123C28.376,17.072,28.39,16.85,28.39,16.628ZM19.242,15.09a2.715,2.715,0,0,1,2.883-2.7,2.59,2.59,0,0,1,2.77,2.7Z" transform="translate(6.369 -1.504)" fill="#bbb"/>
    </g>
  </g>
</svg>
