<svg xmlns="http://www.w3.org/2000/svg" width="221" height="211" viewBox="0 0 221 211">
  <g id="Group_339" data-name="Group 339" transform="translate(-3333 465)">
    <rect id="Rectangle_228" data-name="Rectangle 228" width="221" height="211" transform="translate(3333 -465)" fill="#fcfcfc"/>
    <circle id="Ellipse_7" data-name="Ellipse 7" cx="94.198" cy="94.198" r="94.198" transform="translate(3349 -454)" fill="#63ffbb" opacity="0.3"/>
    <g id="Group_240" data-name="Group 240" transform="translate(2996.571 -549.873)">
      <path id="Path_20" data-name="Path 20" d="M416.229,85.873l-62.719,76.1,92.825,109.55,61.883-72.754Z" transform="translate(-0.287)" fill="#36ecce"/>
      <path id="Path_21" data-name="Path 21" d="M416.229,85.873l-62.719,76.1,92.825,109.55,61.883-72.754Z" transform="translate(-0.287)" fill="#08574a" opacity="0.1"/>
      <path id="Path_22" data-name="Path 22" d="M439.739,335.481h0a31.525,31.525,0,0,1,5.114-6.828l57.605-58.4s20.07-3.345,24.251,6.69l-73.591,60.21Z" transform="translate(-84.007 -172.673)" fill="#f2f2f2"/>
      <path id="Path_23" data-name="Path 23" d="M434.8,332.874,520.1,463.33s8.362,5.854,16.725,2.509l87.389-58.956L531.393,266.392,447.767,331.62Z" transform="translate(-82 -171.32)" fill="#36ecce"/>
    </g>
  </g>
</svg>
