<svg id="cost" xmlns="http://www.w3.org/2000/svg" width="48.46" height="85.686" viewBox="0 0 48.46 85.686">
  <path id="Icon_material-attach-money" data-name="Icon material-attach-money" d="M35.566,42.106C24.761,39.3,21.286,36.394,21.286,31.872c0-5.189,4.808-8.807,12.853-8.807,8.473,0,11.615,4.046,11.9,10h10.52c-.333-8.188-5.332-15.709-15.281-18.137V4.5H27V14.782c-9.235,2-16.661,8-16.661,17.185,0,11,9.092,16.471,22.373,19.66,11.9,2.856,14.281,7.045,14.281,11.472,0,3.285-2.333,8.521-12.853,8.521-9.806,0-13.662-4.379-14.186-10H9.48C10.051,72.049,17.858,77.9,27,79.856v10.33H41.279V79.951c9.283-1.761,16.661-7.14,16.661-16.9C57.94,49.533,46.372,44.915,35.566,42.106Z" transform="translate(-9.48 -4.5)" fill="#272727"/>
</svg>
