<svg xmlns="http://www.w3.org/2000/svg" width="24.447" height="24.447" viewBox="0 0 24.447 24.447">
  <path id="Icon_awesome-dribbble" data-name="Icon awesome-dribbble" d="M12.786.563A12.224,12.224,0,1,0,25.01,12.786,12.237,12.237,0,0,0,12.786.563ZM20.868,6.2a10.391,10.391,0,0,1,2.358,6.5,24.4,24.4,0,0,0-7.27-.336c-.284-.692-.551-1.3-.918-2.051A13.908,13.908,0,0,0,20.868,6.2ZM19.707,4.992a11.788,11.788,0,0,1-5.472,3.772,55.731,55.731,0,0,0-3.9-6.112,10.414,10.414,0,0,1,9.368,2.341ZM8.347,3.353a66.62,66.62,0,0,1,3.871,6.038,38.944,38.944,0,0,1-9.652,1.272A10.479,10.479,0,0,1,8.347,3.353Zm-6,9.449c0-.107,0-.213.005-.319A38.514,38.514,0,0,0,13.081,11c.3.585.584,1.179.846,1.772a16.172,16.172,0,0,0-8.9,7.014A10.4,10.4,0,0,1,2.345,12.8Zm4.032,8.237c1.091-2.229,4.05-5.107,8.26-6.543a43.4,43.4,0,0,1,2.227,7.918A10.42,10.42,0,0,1,6.377,21.039Zm12.242.418a45.063,45.063,0,0,0-2.028-7.444,15.325,15.325,0,0,1,6.5.446,10.459,10.459,0,0,1-4.475,7Z" transform="translate(-0.563 -0.563)" fill="#bbb"/>
</svg>
