<svg xmlns="http://www.w3.org/2000/svg" width="221" height="211" viewBox="0 0 221 211">
  <g id="Group_337" data-name="Group 337" transform="translate(-3029 706)">
    <rect id="Rectangle_226" data-name="Rectangle 226" width="221" height="211" transform="translate(3029 -706)" fill="#fcfcfc"/>
    <circle id="Ellipse_9" data-name="Ellipse 9" cx="94.198" cy="94.198" r="94.198" transform="translate(3045 -695)" fill="#63ffbb" opacity="0.3"/>
    <g id="Icon_ionic-logo-game-controller-b" data-name="Icon ionic-logo-game-controller-b" transform="translate(3031.562 -677.99)">
      <path id="Path_26" data-name="Path 26" d="M17.275,14.386a9.18,9.18,0,1,0,9.132,9.18A9.148,9.148,0,0,0,17.275,14.386Z" transform="translate(33.78 43.712)" fill="#36ecce"/>
      <path id="Path_27" data-name="Path 27" d="M207.773,79.06C197.742,37.183,187.143,14.943,165.9,8.65a42.208,42.208,0,0,0-12.161-1.893c-13.06,0-22.192,6.956-45.473,6.956S75.849,6.757,62.789,6.757A41.74,41.74,0,0,0,50.629,8.65C29.382,14.943,18.783,37.23,8.752,79.06-1.28,120.937.565,151.173,12.4,156.8a13.8,13.8,0,0,0,5.915,1.325c10.268,0,21.341-11.262,32.035-24.606,12.161-15.189,15.189-15.615,52.192-15.615h11.5c36.956,0,40.031.379,52.192,15.615,10.647,13.344,21.767,24.606,32.035,24.606a13.959,13.959,0,0,0,5.915-1.325C215.96,151.126,217.758,120.889,207.773,79.06ZM51.1,86.016A18.739,18.739,0,1,1,69.651,67.277,18.681,18.681,0,0,1,51.1,86.016Zm81.814-9.227a9.511,9.511,0,1,1,9.511-9.511A9.512,9.512,0,0,1,132.915,76.788Zm20.773,20.773A9.487,9.487,0,1,1,163.2,88.1,9.5,9.5,0,0,1,153.688,97.561Zm0-41.546A9.511,9.511,0,1,1,163.2,46.5,9.512,9.512,0,0,1,153.688,56.016Zm20.773,20.773a9.511,9.511,0,1,1,9.511-9.511A9.512,9.512,0,0,1,174.461,76.788Z" transform="translate(0 0)" fill="#36ecce"/>
    </g>
  </g>
</svg>
