<svg xmlns="http://www.w3.org/2000/svg" width="641.067" height="478.137" viewBox="0 0 641.067 478.137">
  <g id="Group_56" data-name="Group 56" transform="translate(0.009 0.008)">
    <g id="Group_81" data-name="Group 81" transform="translate(4)">
      <path id="Path_64" data-name="Path 64" d="M253.612,829.109l-1.372,4.714,4.477,5.128,14.81,3.944,10.677-1.184-.69-4.342h0a4.934,4.934,0,0,0-3.393-3.818c-4.39-1.184-12.757-3.876-14.518-7.621Z" transform="translate(-132.473 -392.612)" fill="#db8b8b"/>
      <path id="Path_74" data-name="Path 74" d="M282.751,839.046c-5.582,8.781-14.259,3.8-15.8,2.817l.635-1.9,12.608-3.464A7.794,7.794,0,0,0,282.751,839.046Z" transform="translate(-141.723 -398.038)" opacity="0.1"/>
    </g>
    <ellipse id="Ellipse_7" data-name="Ellipse 7" cx="137.107" cy="20.783" rx="137.107" ry="20.783" transform="translate(63.054 436.564)" fill="#18dfed" opacity="0.1"/>
    <path id="Path_15" data-name="Path 15" d="M242.714,43C264.461,23.835,298.6,19.91,329.683,21.457c97.609,4.8,185.709,51.373,261.941,104.063,27.595,19.08,54.762,39.631,72.67,65.9,36.462,53.469,25.643,127.547-25.055,171.595-17.25,15.01-38.159,26.48-59.623,36.664-38.171,18.11-79.355,32.646-122.675,36.785-30.891,2.95-62.163.548-92.875-3.568-85.809-11.5-170.036-36.947-240.627-80.457C92.48,333.38,63.3,309.63,50.533,278.751s-4.618-70.008,27.023-88.28c13.076-7.563,28.709-10.969,44.013-14.184,22.514-4.716,45.421-9.369,65.754-18.958,21-9.912,45.86-29.072,41.7-51C224.564,82.794,220.973,62.133,242.714,43Z" transform="translate(-44.77 -21.16)" fill="#18dfed" opacity="0.1"/>
    <rect id="Rectangle_35" data-name="Rectangle 35" width="296.729" height="357.327" rx="19.8" transform="translate(295.259 50.227)" fill="#464353"/>
    <rect id="Rectangle_36" data-name="Rectangle 36" width="245.534" height="285.235" transform="translate(320.856 86.273)" fill="#18dfed" opacity="0.1"/>
    <circle id="Ellipse_8" data-name="Ellipse 8" cx="10.449" cy="10.449" r="10.449" transform="translate(433.174 379.867)" fill="#fff"/>
    <path id="Path_19" data-name="Path 19" d="M809.616,145.692a4.936,4.936,0,1,1,4.936-4.936,4.936,4.936,0,0,1-4.936,4.936Z" transform="translate(-365.993 -69.631)" fill="#fff"/>
    <path id="Path_20" data-name="Path 20" d="M809.383,135.9a4.647,4.647,0,1,1-4.647,4.647,4.647,4.647,0,0,1,4.647-4.647m0-.577a5.2,5.2,0,1,0,3.684,1.532A5.225,5.225,0,0,0,809.383,135.32Z" transform="translate(-365.76 -69.419)" fill="#fff"/>
    <rect id="Rectangle_37" data-name="Rectangle 37" width="50.923" height="69.229" rx="4.3" transform="translate(332.263 174.634)" fill="#fff" stroke="#fff" stroke-miterlimit="10" stroke-width="1"/>
    <rect id="Rectangle_38" data-name="Rectangle 38" width="41.375" height="21.966" rx="7.14" transform="translate(337.037 192.079)" fill="#18dfed" opacity="0.5"/>
    <rect id="Rectangle_39" data-name="Rectangle 39" width="24.102" height="3.412" rx="1.69" transform="translate(345.674 223.005)" fill="#18dfed"/>
    <rect id="Rectangle_40" data-name="Rectangle 40" width="50.923" height="69.229" rx="4.3" transform="translate(418.355 174.634)" fill="#fff" stroke="#fff" stroke-miterlimit="10" stroke-width="1"/>
    <rect id="Rectangle_41" data-name="Rectangle 41" width="24.402" height="12.954" rx="1.46" transform="translate(431.748 185.446)" fill="#18dfed" opacity="0.5"/>
    <rect id="Rectangle_42" data-name="Rectangle 42" width="31.151" height="3.412" rx="1.69" transform="translate(428.18 210.541)" fill="#18dfed"/>
    <rect id="Rectangle_43" data-name="Rectangle 43" width="31.151" height="3.412" rx="1.69" transform="translate(428.18 216.903)" fill="#18dfed"/>
    <rect id="Rectangle_44" data-name="Rectangle 44" width="50.923" height="69.229" rx="4.3" transform="translate(504.06 125.454)" fill="#fff" stroke="#fff" stroke-miterlimit="10" stroke-width="1"/>
    <rect id="Rectangle_45" data-name="Rectangle 45" width="33.154" height="15.471" rx="1.46" transform="translate(512.944 136.197)" fill="#18dfed" opacity="0.5"/>
    <rect id="Rectangle_46" data-name="Rectangle 46" width="33.154" height="15.471" rx="1.46" transform="translate(512.944 158.683)" fill="#18dfed" opacity="0.5"/>
    <rect id="Rectangle_47" data-name="Rectangle 47" width="10.876" height="4.774" rx="2.387" transform="translate(510.294 186.624)" fill="#18dfed"/>
    <rect id="Rectangle_48" data-name="Rectangle 48" width="10.876" height="4.774" rx="2.387" transform="translate(524.086 186.624)" fill="#18dfed"/>
    <rect id="Rectangle_49" data-name="Rectangle 49" width="10.876" height="4.774" rx="2.387" transform="translate(537.877 186.624)" fill="#18dfed"/>
    <rect id="Rectangle_50" data-name="Rectangle 50" width="50.923" height="69.229" rx="4.3" transform="translate(503.938 223.813)" fill="#fff" stroke="#fff" stroke-miterlimit="10" stroke-width="1"/>
    <rect id="Rectangle_51" data-name="Rectangle 51" width="15.217" height="15.471" rx="1.46" transform="translate(507.87 231.907)" fill="#18dfed" opacity="0.5"/>
    <rect id="Rectangle_52" data-name="Rectangle 52" width="31.151" height="3.412" rx="1.69" transform="translate(513.827 256.8)" fill="#18dfed"/>
    <rect id="Rectangle_53" data-name="Rectangle 53" width="31.151" height="3.412" rx="1.69" transform="translate(513.827 263.698)" fill="#18dfed"/>
    <rect id="Rectangle_54" data-name="Rectangle 54" width="31.151" height="3.412" rx="1.69" transform="translate(513.827 270.597)" fill="#18dfed"/>
    <path id="Path_21" data-name="Path 21" d="M741.672,377.62l-.779.375-6.316,3.037L734,381.3a.312.312,0,0,1-.421-.167.341.341,0,0,1,0-.115v-1.8a.306.306,0,0,0-.306-.306h-15.35a.312.312,0,0,1-.312-.306v-2.534a.312.312,0,0,1,.312-.306h15.367a.312.312,0,0,0,.306-.312v-1.836a.376.376,0,0,1,0-.115.312.312,0,0,1,.421-.162l.577.271,6.3,3.065.779.381a.306.306,0,0,1,0,.554Z" transform="translate(-329.188 -170.023)" fill="#fff" stroke="#fff" stroke-miterlimit="10" stroke-width="1"/>
    <path id="Path_22" data-name="Path 22" d="M891.214,353.458l-.508.7-4.133,5.634-.364.5a.318.318,0,0,1-.45.052.278.278,0,0,1-.069-.092l-.843-1.582a.318.318,0,0,0-.421-.133l-13.566,7.222a.306.306,0,0,1-.416-.127l-1.189-2.246a.306.306,0,0,1,.127-.416l13.566-7.21a.306.306,0,0,0,.127-.416l-.86-1.622a.2.2,0,0,1-.035-.11.3.3,0,0,1,.294-.341h.618l7-.254.866-.029a.306.306,0,0,1,.26.468Z" transform="translate(-393.273 -161.43)" fill="#fff" stroke="#fff" stroke-miterlimit="10" stroke-width="1"/>
    <path id="Path_23" data-name="Path 23" d="M891.023,396.278h-8.469a.306.306,0,0,1-.306-.329.26.26,0,0,1,.029-.11l.774-1.622a.306.306,0,0,0-.144-.41l-13.855-6.65a.312.312,0,0,1-.144-.416l1.1-2.28a.3.3,0,0,1,.41-.144l13.855,6.656a.317.317,0,0,0,.416-.144l.8-1.657a.3.3,0,0,1,.514-.058l.387.479,4.347,5.5.537.681a.306.306,0,0,1-.242.508Z" transform="translate(-393.129 -174.658)" fill="#fff" stroke="#fff" stroke-miterlimit="10" stroke-width="1"/>
    <path id="Path_24" data-name="Path 24" d="M418.374,606.46l-.046,1.691L415.383,712.1H410.43l2.43-103.953.046-1.951Z" transform="translate(-173.495 -256.248)" fill="#504f60"/>
    <path id="Path_25" data-name="Path 25" d="M418.374,606.46l-.046,1.691L415.383,712.1H410.43l2.43-103.953.046-1.951Z" transform="translate(-173.495 -256.248)" opacity="0.1"/>
    <path id="Path_26" data-name="Path 26" d="M428.631,755.563l-3.706-.012-55.1-.115-2.933-.006,1.559-4.82h59.79Z" transform="translate(-155.091 -317.291)" fill="#504f60"/>
    <path id="Path_27" data-name="Path 27" d="M420.153,606.46l-.046,1.691H414.64l.046-1.951Z" transform="translate(-175.275 -256.248)" opacity="0.1"/>
    <rect id="Rectangle_55" data-name="Rectangle 55" width="9.185" height="3.452" transform="translate(237.783 347.671)" fill="#504f60"/>
    <path id="Path_28" data-name="Path 28" d="M370.313,750.61l-.491,4.826-2.933-.006,1.559-4.82Z" transform="translate(-155.091 -317.291)" opacity="0.1"/>
    <path id="Path_29" data-name="Path 29" d="M373.357,602.14l-.156,1.5L360.98,724.191l-5.6-.26,12.879-120.3.144-1.368Z" transform="translate(-150.225 -254.532)" fill="#504f60"/>
    <path id="Path_30" data-name="Path 30" d="M470.758,755.563l-3.706-.012-.5-4.942h3.816Z" transform="translate(-197.218 -317.291)" opacity="0.1"/>
    <path id="Path_31" data-name="Path 31" d="M470.837,723.932l-5.606.26L453.01,603.635l-.15-1.5,4.947.127.144,1.368Z" transform="translate(-191.431 -254.532)" fill="#504f60"/>
    <rect id="Rectangle_56" data-name="Rectangle 56" width="123.489" height="118.409" transform="translate(179.754 228.738)" fill="#fff"/>
    <rect id="Rectangle_57" data-name="Rectangle 57" width="177.806" height="118.409" rx="4.13" transform="translate(152.667 228.738)" fill="#fff"/>
    <path id="Path_32" data-name="Path 32" d="M463.745,347.037v28.593H458.93V347.037a2.407,2.407,0,1,1,4.815,0Z" transform="translate(-219.842 -157.896)" fill="#504f60"/>
    <rect id="Rectangle_58" data-name="Rectangle 58" width="4.82" height="2.604" transform="translate(239.088 215.131)" opacity="0.1"/>
    <path id="Path_33" data-name="Path 33" d="M464.256,396.354V405.8h-8.6v-9.444a1.155,1.155,0,0,1,1.155-1.155h6.252a1.155,1.155,0,0,1,1.189,1.155Z" transform="translate(-218.46 -179.272)" fill="#504f60"/>
    <circle id="Ellipse_9" data-name="Ellipse 9" cx="1.824" cy="1.824" r="1.824" transform="translate(239.671 220.078)" opacity="0.1"/>
    <circle id="Ellipse_10" data-name="Ellipse 10" cx="1.824" cy="1.824" r="1.824" transform="translate(239.671 219.686)" fill="#3f3d56"/>
    <rect id="Rectangle_59" data-name="Rectangle 59" width="8.596" height="1.172" transform="translate(237.2 225.355)" opacity="0.1"/>
    <rect id="Rectangle_60" data-name="Rectangle 60" width="15.633" height="2.604" transform="translate(233.679 226.919)" opacity="0.1"/>
    <rect id="Rectangle_61" data-name="Rectangle 61" width="15.633" height="2.604" transform="translate(233.679 226.134)" fill="#504f60"/>
    <path id="Path_34" data-name="Path 34" d="M362.1,596h64.414a3.464,3.464,0,0,1,3.464,3.464H358.65A3.464,3.464,0,0,1,362.1,596Z" transform="translate(-151.608 -251.937)" opacity="0.1"/>
    <path id="Path_35" data-name="Path 35" d="M377.834,602.267l4.953-.127-.156,1.5H377.69Z" transform="translate(-159.656 -254.532)" opacity="0.1"/>
    <rect id="Rectangle_62" data-name="Rectangle 62" width="9.185" height="1.432" transform="translate(237.783 347.671)" opacity="0.1"/>
    <path id="Path_36" data-name="Path 36" d="M457.952,603.635H453.01l-.15-1.5,4.947.127Z" transform="translate(-191.431 -254.532)" opacity="0.1"/>
    <path id="Path_37" data-name="Path 37" d="M362.1,597.4h64.414a3.464,3.464,0,0,1,3.464,3.464H358.65a3.464,3.464,0,0,1,3.464-3.464Z" transform="translate(-151.608 -252.529)" fill="#504f60"/>
    <path id="Path_38" data-name="Path 38" d="M544.92,441.473a.86.86,0,0,1,.987.947,114.475,114.475,0,0,0,.606,24.425c.421,3.689.993,7.591,2.627,10.328a.872.872,0,0,1-.115,1.074,2.309,2.309,0,0,1-1.6.479l-25.765.144a.86.86,0,0,1-.843-1.062c2.073-8.833,1.628-18.473.8-27.635-.41-4.509-.647-6.928,2.719-7.245,3.464-.312,6.927-.456,10.391-.745C535.551,442.113,542.213,441.917,544.92,441.473Z" transform="translate(-245.99 -198.828)" fill="#fff" stroke="#33313f" stroke-miterlimit="10" stroke-width="3"/>
    <path id="Path_39" data-name="Path 39" d="M525.252,533.162a.86.86,0,0,0-.987.947,114.091,114.091,0,0,1-.612,24.425c-.416,3.689-.987,7.591-2.621,10.334a.86.86,0,0,0,.115,1.068,2.309,2.309,0,0,0,1.6.479l25.765.15a.872.872,0,0,0,.843-1.068c-2.073-8.833-1.628-18.473-.8-27.635.41-4.509.647-6.927-2.719-7.245s-6.927-.456-10.391-.745C534.621,533.8,527.959,533.607,525.252,533.162Z" transform="translate(-246.036 -237.586)" fill="#fff" stroke="#33313f" stroke-miterlimit="10" stroke-width="3"/>
    <path id="Path_40" data-name="Path 40" d="M537.5,558.869a76.417,76.417,0,0,1,8.983.11.849.849,0,0,1,.762.75l.283,2.361a.335.335,0,0,1-.069.306.318.318,0,0,1-.219.058c-1.258.035-2.517-.11-3.77,0-.779.063-1.553.214-2.309.3a27.572,27.572,0,0,1-3.845.069,19.375,19.375,0,0,1-5.352-.658s.1-1.957.1-2.142c0-.912-.029-.993.912-1.016Z" transform="translate(-250.712 -248.422)" fill="none" stroke="#33313f" stroke-linecap="round" stroke-miterlimit="10" stroke-width="2"/>
    <path id="Path_41" data-name="Path 41" d="M537.5,574.446a75.17,75.17,0,0,0,8.983-.115.849.849,0,0,0,.762-.75l.283-2.355a.346.346,0,0,0-.069-.312.318.318,0,0,0-.219-.058c-1.258-.035-2.517.115-3.77,0-.779-.058-1.553-.208-2.309-.294a26.7,26.7,0,0,0-3.845-.069,19.375,19.375,0,0,0-5.352.658s.1,1.951.1,2.142c0,.912-.029.987.912,1.016Z" transform="translate(-250.712 -253.353)" fill="none" stroke="#33313f" stroke-linecap="round" stroke-miterlimit="10" stroke-width="2"/>
    <path id="Path_42" data-name="Path 42" d="M537.5,584.529a75.183,75.183,0,0,1,8.983.115.849.849,0,0,1,.762.75l.283,2.355a.347.347,0,0,1-.069.312.318.318,0,0,1-.219.058c-1.258.035-2.517-.115-3.77,0-.779.058-1.553.214-2.309.3a27.571,27.571,0,0,1-3.845.063,19.368,19.368,0,0,1-5.352-.652s.1-1.957.1-2.148c0-.912-.029-.987.912-1.01Z" transform="translate(-250.712 -259.269)" fill="none" stroke="#33313f" stroke-linecap="round" stroke-miterlimit="10" stroke-width="2"/>
    <path id="Path_43" data-name="Path 43" d="M544.083,499a3.815,3.815,0,0,1,.254,2.009.3.3,0,0,1-.04.156.312.312,0,0,1-.242.087l-5.484.214s.306-1.616.346-1.732c.19-.658.67-.485,1.287-.52Z" transform="translate(-253.506 -223.15)" fill="#fff" stroke="#33313f" stroke-linecap="round" stroke-miterlimit="10" stroke-width="2"/>
    <path id="Path_44" data-name="Path 44" d="M558.429,499a3.816,3.816,0,0,1,.248,2.009.3.3,0,0,1-.035.156.323.323,0,0,1-.242.087l-5.49.214s.312-1.616.352-1.732c.185-.658.664-.485,1.287-.52Z" transform="translate(-259.568 -223.15)" fill="#fff" stroke="#33313f" stroke-linecap="round" stroke-miterlimit="10" stroke-width="2"/>
    <path id="Path_45" data-name="Path 45" d="M544.211,451.259l.739,6.35a1.732,1.732,0,0,1-1.576,1.911,82.446,82.446,0,0,1-14.074-.092,1.732,1.732,0,0,1-1.565-1.651,24.648,24.648,0,0,0-.5-3.366c-.19-1.155-.4-2.269.964-2.609a23.6,23.6,0,0,1,4.716-.127q2.679-.052,5.34-.15C538.756,451.524,544.211,451.23,544.211,451.259Z" transform="translate(-248.658 -202.968)" fill="none" stroke="#33313f" stroke-miterlimit="10" stroke-width="3"/>
    <path id="Path_46" data-name="Path 46" d="M544.2,484.763l.727-6.35a1.732,1.732,0,0,0-1.576-1.911,83.043,83.043,0,0,0-14.074.087,1.732,1.732,0,0,0-1.564,1.657,24.639,24.639,0,0,1-.5,3.366c-.191,1.155-.4,2.269.964,2.609a23.6,23.6,0,0,0,4.716.127c1.784.035,3.562.081,5.34.15C538.747,484.515,544.2,484.809,544.2,484.763Z" transform="translate(-248.65 -213.531)" fill="none" stroke="#33313f" stroke-miterlimit="10" stroke-width="3"/>
    <path id="Path_47" data-name="Path 47" d="M538.138,540.438q-.289,3.169-.364,6.35a30.058,30.058,0,0,1-6.3-.722,1.114,1.114,0,0,1-1.033-1.362c-.04-1.316-.733-4.255,1.12-4.439C532.117,540.207,538.133,540.542,538.138,540.438Z" transform="translate(-250.004 -240.59)" fill="none" stroke="#33313f" stroke-linecap="round" stroke-miterlimit="10" stroke-width="2"/>
    <path id="Path_48" data-name="Path 48" d="M350.551,490.6a1.842,1.842,0,0,1,2.032,2,117.808,117.808,0,0,0,.727,23.213c.387,3.406.9,6.991,2.263,9.675a1.512,1.512,0,0,1-1.339,2.205h0l-25.562.15a1.016,1.016,0,0,1-1-1.235c2.026-8.786,1.582-18.381.756-27.468-.416-4.509-.647-6.928,2.713-7.245,3.464-.306,6.928-.45,10.362-.745C342.238,491.1,347.479,490.937,350.551,490.6Z" transform="translate(-164.348 -219.595)" fill="#fff" stroke="#33313f" stroke-linecap="round" stroke-miterlimit="10" stroke-width="3"/>
    <path id="Path_49" data-name="Path 49" d="M425.691,490.352a.918.918,0,0,0-1.051,1.016,114.5,114.5,0,0,1-.618,24.344c-.416,3.689-.987,7.574-2.615,10.316a.912.912,0,0,0,.242,1.195,2.418,2.418,0,0,0,1.466.37l25.7.15a.924.924,0,0,0,.895-1.155c-2.049-8.815-1.611-18.444-.779-27.566.41-4.509.647-6.928-2.713-7.245-3.464-.306-6.928-.45-10.391-.745C434.974,490.981,428.451,490.791,425.691,490.352Z" transform="translate(-203.928 -219.49)" fill="#fff" stroke="#33313f" stroke-miterlimit="10" stroke-width="3"/>
    <line id="Line_1" data-name="Line 1" x2="13.07" y2="17.434" transform="translate(170.898 276.11)" fill="#fff" stroke="#33313f" stroke-linecap="round" stroke-miterlimit="10" stroke-width="2"/>
    <line id="Line_2" data-name="Line 2" x1="12.637" y2="19.611" transform="translate(171.331 274.805)" fill="#fff" stroke="#33313f" stroke-linecap="round" stroke-miterlimit="10" stroke-width="2"/>
    <line id="Line_3" data-name="Line 3" x2="7.118" y2="9.496" transform="translate(229.222 276.93)" fill="#fff" stroke="#33313f" stroke-linecap="round" stroke-miterlimit="10" stroke-width="2"/>
    <line id="Line_4" data-name="Line 4" x1="6.881" y2="10.686" transform="translate(229.459 276.214)" fill="#fff" stroke="#33313f" stroke-linecap="round" stroke-miterlimit="10" stroke-width="2"/>
    <path id="Path_50" data-name="Path 50" d="M344.236,539.239a76.542,76.542,0,0,1,8.988.11.86.86,0,0,1,.762.75l.277,2.361a.364.364,0,0,1-.064.312.4.4,0,0,1-.219.058c-1.259.035-2.523-.115-3.776,0-.779.058-1.547.208-2.309.294a27.554,27.554,0,0,1-3.845.069,19.306,19.306,0,0,1-5.346-.658c-.035,0,.1-1.951.1-2.142,0-.912-.035-.987.906-1.016Z" transform="translate(-169.02 -240.124)" fill="none" stroke="#33313f" stroke-linecap="round" stroke-miterlimit="10" stroke-width="2"/>
    <path id="Path_51" data-name="Path 51" d="M439.353,524.139a75.318,75.318,0,0,1,8.988.115.849.849,0,0,1,.762.75l.277,2.355a.364.364,0,0,1-.063.312.323.323,0,0,1-.219.058c-1.258.035-2.523-.115-3.775,0-.779.058-1.547.214-2.309.294a26.718,26.718,0,0,1-3.845.069,19.377,19.377,0,0,1-5.352-.658c-.029,0,.1-1.951.1-2.142,0-.912-.029-.987.912-1.016Z" transform="translate(-209.225 -233.741)" fill="none" stroke="#33313f" stroke-linecap="round" stroke-miterlimit="10" stroke-width="2"/>
    <path id="Path_52" data-name="Path 52" d="M444,535.469a76.43,76.43,0,0,0-8.983.11.849.849,0,0,0-.762.75l-.266,2.355a.329.329,0,0,0,.064.312.317.317,0,0,0,.219.058c1.258.035,2.517-.11,3.776,0,.779.058,1.547.214,2.309.3a28.484,28.484,0,0,0,3.845.069,19.322,19.322,0,0,0,5.352-.658c.029,0-.1-1.957-.1-2.142,0-.918.035-.993-.906-1.016Z" transform="translate(-209.293 -238.53)" fill="none" stroke="#33313f" stroke-linecap="round" stroke-miterlimit="10" stroke-width="2"/>
    <path id="Path_53" data-name="Path 53" d="M386.63,527.989s8.492-.433,10.016,0" transform="translate(-189.28 -235.322)" fill="none" stroke="#33313f" stroke-miterlimit="10" stroke-width="3"/>
    <path id="Path_54" data-name="Path 54" d="M403.2,520.21s3.7,3.7,3.7,4.572-4.792,3.92-4.792,3.92" transform="translate(-195.824 -232.115)" fill="none" stroke="#33313f" stroke-miterlimit="10" stroke-width="3"/>
    <path id="Path_55" data-name="Path 55" d="M482.84,511.686s7.7-3.6,9.271-3.775" transform="translate(-229.949 -226.916)" fill="none" stroke="#33313f" stroke-miterlimit="10" stroke-width="3"/>
    <path id="Path_56" data-name="Path 56" d="M495.92,500.58s4.82,2.032,5.149,2.835-2.956,5.438-2.956,5.438" transform="translate(-235.478 -223.818)" fill="none" stroke="#33313f" stroke-miterlimit="10" stroke-width="3"/>
    <path id="Path_57" data-name="Path 57" d="M482.7,530.43s7.822,3.319,9.006,4.382" transform="translate(-229.89 -236.435)" fill="none" stroke="#33313f" stroke-miterlimit="10" stroke-width="3"/>
    <path id="Path_58" data-name="Path 58" d="M498.323,530.89s1.732,4.947,1.328,5.733-6.021,1.432-6.021,1.432" transform="translate(-234.51 -236.63)" fill="none" stroke="#33313f" stroke-miterlimit="10" stroke-width="3"/>
    <path id="Path_59" data-name="Path 59" d="M531.249,499a3.816,3.816,0,0,1,.248,2.009.3.3,0,0,1-.035.156.323.323,0,0,1-.242.087l-5.49.214s.312-1.616.352-1.732c.185-.658.67-.485,1.287-.52Z" transform="translate(-248.079 -223.15)" fill="#fff" stroke="#33313f" stroke-linecap="round" stroke-miterlimit="10" stroke-width="2"/>
    <path id="Path_60" data-name="Path 60" d="M310.359,562.646l1.94-1.807-1.732-.069-.906,1.391Z" transform="translate(-130.899 -237.045)" fill="#33313f"/>
    <path id="Path_61" data-name="Path 61" d="M286.7,576.057l2.055-2.638.456-.473,6.292-6.593,2.142-2.24,1-.121,1.443-1.432.849.745-1.4,1.64.023.86-2.188,2.373-6.177,6.708-.4.427-2.482,2.3Z" transform="translate(-121.194 -237.801)" fill="#65617d"/>
    <path id="Path_62" data-name="Path 62" d="M291.05,575.723l6.293-6.593,1.87,1.824-6.177,6.708Z" transform="translate(-123.033 -240.579)" fill="#33313f"/>
    <path id="Path_66" data-name="Path 66" d="M275.2,847.434l-2.008-3.464,2.008-4.041s6.018,3.158,8.7,2.725,4,5.652-1,7.389-33.453,0-33.453,0-5.019-3.042,0-11.3l4.348,4.347s7.36,5.2,11.042,4.347Z" transform="translate(-127.346 -400.058)" fill="#2e3037"/>
    <path id="Path_67" data-name="Path 67" d="M292.629,853.882l-9.841,1.3-13.65-4.353L265,845.182l.337-1.38.472-1.94.464-1.9,9.2-3.464a7.146,7.146,0,0,0,1.867,2.557c2.988,2.8,8.361,4.826,11.514,5.836a3.4,3.4,0,0,1,.392.162,5.375,5.375,0,0,1,2.735,4.041Z" transform="translate(-137.867 -400.111)" fill="#e7bebe"/>
    <path id="Path_69" data-name="Path 69" d="M287.969,857.984l-2.008-3.464,2.008-4.041s6.023,3.158,8.7,2.725,4,5.652-1,7.4-33.458,0-33.458,0-5.019-3.048,0-11.309l4.348,4.347s7.364,5.2,11.042,4.353Z" transform="translate(-135.744 -405.517)" fill="#2e3037"/>
    <path id="Path_70" data-name="Path 70" d="M288.919,410.606s-20.869,2.171-17.827-6.523a15.587,15.587,0,0,0,.641-7.678,21.309,21.309,0,0,0-3.683-8.844l19.564,3.042a24.433,24.433,0,0,0-2.65,6.281C282.632,406.114,288.919,410.606,288.919,410.606Z" transform="translate(-139.156 -176.043)" fill="#db8b8b"/>
    <path id="Path_71" data-name="Path 71" d="M242.44,599.21s.433,14.92,4.78,22.208l.872,21.162s-1.3,19.435-3.914,23.249,5.652,36.087,5.652,36.087v5.551s13.913,4.146,17.827-.7l-3.914-41.288,1.732-57.249Z" transform="translate(-128.33 -265.509)" fill="#35323e"/>
    <path id="Path_72" data-name="Path 72" d="M242.43,599.21s.433,14.664,4.78,21.826l.872,20.8s-1.3,19.1-3.914,22.849,5.652,35.467,5.652,35.467v5.455s13.913,4.075,17.827-.684l-3.914-40.578,1.732-56.266Z" transform="translate(-128.326 -265.509)" opacity="0.1"/>
    <path id="Path_73" data-name="Path 73" d="M223.774,495.27l-2.609,6.956-2.171,14.784a13.076,13.076,0,0,0,3.914,11.3c5.2,5.2,12.175,16.089,12.175,16.089l8.261-24.783s-8.261-1.3-6.928-6.956.866-16.089.866-16.089Z" transform="translate(-118.364 -221.573)" fill="#415363"/>
    <path id="Path_75" data-name="Path 75" d="M284.095,583.815c-.4,4.9-7.06,22.76-7.06,22.76l-4.686,14.682a105.079,105.079,0,0,0-5.2,31.919,28.051,28.051,0,0,1-1.5,10.056c-3.124,7.7,3.124,18.194,3.124,18.194-5.488,8.746-14.9,2.787-14.9,2.787v-5.574s-7.43-30.451-5.467-36.4,2.749-22.044,2.749-22.044V591.163a31.512,31.512,0,0,1-10.762-20.9c-.094-1.147-.172-2.35-.219-3.6-.318-7.9,5.727-17.149,8.091-20.437.573-.8.927-1.245.927-1.245l34.617,12.253.078.028V561.1Z" transform="translate(-127.369 -242.586)" fill="#35323e"/>
    <path id="Path_76" data-name="Path 76" d="M287.614,390.6a24.431,24.431,0,0,0-2.65,6.281,16.984,16.984,0,0,1-13.232-.479,21.308,21.308,0,0,0-3.683-8.844Z" transform="translate(-139.156 -176.043)" opacity="0.1"/>
    <path id="Path_86" data-name="Path 86" d="M16.961,0A16.961,16.961,0,1,1,0,16.961,16.961,16.961,0,0,1,16.961,0Z" transform="translate(122.804 187.161)" fill="#e7bebe"/>
    <path id="Path_77" data-name="Path 77" d="M294.3,564.983l-.19.035C275.878,568.765,253,549.766,253,549.766a21.94,21.94,0,0,0,1.582-3.239c.635-.993,1.028-1.547,1.028-1.547l38.378,15.229.1,1.518Z" transform="translate(-132.794 -242.586)" opacity="0.1"/>
    <path id="Path_78" data-name="Path 78" d="M272.771,419.284s-22.536-14.784-29.781-8.7L232.929,424.5s-6.438,2.176-5.231,16.089l-4.809,25.222,14.485,3.914s8.452,8.694,1.6,21.308c0,0,21.329,19.132,38.234,15.217l-1.218-20.419s-3.622-11.309,2.816-21.741.4-20.436-5.631-24.35C273.172,439.72,270.356,423.192,272.771,419.284Z" transform="translate(-120.066 -185.155)" fill="#415363"/>
    <path id="Path_79" data-name="Path 79" d="M315.244,580.38s9.133,1.732,13.48,8.7a27.054,27.054,0,0,0,4.555,5.686,3.464,3.464,0,0,1-.543,5.5c-3.464,2.078-9.075,3.354-16.164-2.488C304.373,587.775,315.244,580.38,315.244,580.38Z" transform="translate(-157.219 -257.55)" fill="#e7bebe"/>
    <path id="Path_80" data-name="Path 80" d="M282.733,440.763s-8.694-.872-10.87,21.741-5.652,27.826-5.652,27.826-2.176,11.742,3.042,18.7,15.217,21.793,15.217,21.793,10.876,3.048,13.047-7.828l-13.48-25.216s-2.171-8.7,3.042-14.784S296.212,436.434,282.733,440.763Z" transform="translate(-138.188 -198.396)" opacity="0.1"/>
    <path id="Path_81" data-name="Path 81" d="M284.243,438.541s-8.7-.872-10.87,21.741-5.652,27.826-5.652,27.826-2.176,11.754,3.042,18.681,15.217,21.741,15.217,21.741,10.87,3.048,13.047-7.822l-13.48-25.222s-2.176-8.7,3.042-14.784S297.711,434.188,284.243,438.541Z" transform="translate(-138.826 -197.455)" fill="#415363"/>
    <path id="Path_82" data-name="Path 82" d="M304.719,467s.866,13.48-3.048,20.875-3.914,16.955,0,22.174" transform="translate(-152.126 -209.623)" opacity="0.1"/>
    <path id="Path_83" data-name="Path 83" d="M292.486,433s-3.464-3.464-13.48-3.914-14.346-3.464-14.346-3.464" transform="translate(-137.723 -192.131)" opacity="0.1"/>
    <path id="Path_84" data-name="Path 84" d="M251.061,336.422c-2.644.323-5.663,1.23-6.616,3.718a25.554,25.554,0,0,0-.606,2.886c-.987,3.8-5.259,5.565-7.9,8.469-2.309,2.563-3.354,6.033-4.11,9.41a88.4,88.4,0,0,0-1.553,29.523c.849,7.21,2.581,14.305,3.071,21.55s-.4,14.865-4.364,20.95c-1.732,2.621-3.949,4.919-5.155,7.8,2.494,2.021,5.935,2.309,9.144,2.419q5.611.191,11.223,0a11.971,11.971,0,0,0,5.7-1.189,8.839,8.839,0,0,0,3-3.21c2.136-3.631,2.679-8,2.586-12.21s-.756-8.4-.837-12.614c-.04-2.309.139-4.734,1.461-6.616a21.543,21.543,0,0,1,3.643-3.371c4.659-4.122,6.252-10.738,6.408-16.955s-.866-12.446-.341-18.641c.2-2.43,1.108-5.34,3.5-5.813a12.321,12.321,0,0,0,2.269-.289c1.917-.733,1.732-3.435,2.275-5.409.618-2.223,2.511-3.937,3.042-6.177,1.253-5.259-5.444-11.546-9.814-13.37C262.555,335.388,255.749,335.845,251.061,336.422Z" transform="translate(-120.464 -154.214)" opacity="0.1"/>
    <path id="Path_85" data-name="Path 85" d="M250.309,334.98c-2.644.36-5.663,1.37-6.616,4.136a32.592,32.592,0,0,0-.577,3.216c-.987,4.232-5.265,6.2-7.9,9.442-2.309,2.849-3.354,6.715-4.11,10.484a109.633,109.633,0,0,0-1.524,32.911c.849,8.033,2.581,15.944,3.065,24.009s-.4,16.561-4.359,23.34c-1.732,2.92-3.949,5.48-5.155,8.689,2.494,2.258,5.935,2.573,9.144,2.695q5.611.212,11.223,0a10.882,10.882,0,0,0,5.7-1.325,9.4,9.4,0,0,0,2.99-3.576c2.142-4.046,2.679-8.908,2.592-13.6s-.762-9.358-.837-14.053c-.04-2.573.139-5.274,1.455-7.364a22.422,22.422,0,0,1,3.648-3.756c4.653-4.6,6.252-11.969,6.408-18.9s-.872-13.867-.346-20.768c.208-2.7,1.114-5.949,3.5-6.47a10.7,10.7,0,0,0,2.275-.328c1.917-.817,1.732-3.82,2.275-6.026.612-2.476,2.505-4.38,3.042-6.875,1.253-5.866-5.444-12.863-9.814-14.9C261.82,333.835,255.02,334.33,250.309,334.98Z" transform="translate(-120.168 -153.581)" fill="#18dfed"/>
  </g>
</svg>
