<svg id="happy" xmlns="http://www.w3.org/2000/svg" width="77" height="77" viewBox="0 0 77 77">
  <path id="Icon_awesome-smile" data-name="Icon awesome-smile" d="M38.5.563A38.5,38.5,0,1,0,77,39.063,38.493,38.493,0,0,0,38.5.563ZM50.919,26.643a4.968,4.968,0,1,1-4.968,4.968A4.962,4.962,0,0,1,50.919,26.643Zm-24.839,0a4.968,4.968,0,1,1-4.968,4.968A4.962,4.962,0,0,1,26.081,26.643ZM56.322,53.065a23.19,23.19,0,0,1-35.644,0c-2.111-2.53,1.708-5.7,3.819-3.182a18.241,18.241,0,0,0,28.006,0C54.583,47.368,58.418,50.535,56.322,53.065Z" transform="translate(0 -0.563)" fill="#272727"/>
</svg>
