<svg xmlns="http://www.w3.org/2000/svg" xmlns:xlink="http://www.w3.org/1999/xlink" width="1036.659" height="694" viewBox="0 0 1036.659 694">
  <defs>
    <linearGradient id="linear-gradient" x1="0.5" y1="1" x2="0.5" gradientUnits="objectBoundingBox">
      <stop offset="0" stop-color="#18dfed"/>
      <stop offset="1" stop-color="#3f3d56"/>
    </linearGradient>
    <linearGradient id="linear-gradient-2" x1="-0.358" y1="1" x2="-0.358" gradientUnits="objectBoundingBox">
      <stop offset="0" stop-color="gray" stop-opacity="0.251"/>
      <stop offset="0.54" stop-color="gray" stop-opacity="0.122"/>
      <stop offset="1" stop-color="gray" stop-opacity="0.102"/>
    </linearGradient>
  </defs>
  <g id="Group_265" data-name="Group 265" transform="translate(0.001 0.005)">
    <path id="Path_625" data-name="Path 625" d="M997.536,369.011q-6.108-8.569-12.976-16.579a243.107,243.107,0,0,0-84.495-63.5,238.618,238.618,0,0,0-27.286-10.41q-9.686-3.037-19.7-5.236l-12.6-2.469A242.978,242.978,0,0,0,658,313.574q-9.4-1.143-19.023-1.527c-.244-.672-.5-1.344-.759-2.024q-3.211-8.5-6.885-16.754a326.679,326.679,0,0,0-54.451-84.538c-1.03-1.152-2.059-2.3-3.106-3.438a329.847,329.847,0,0,0-49.355-44.128A325.64,325.64,0,0,0,333.106,99h-.462q-7.644,0-15.192.358l-19.433,1.466c-1.6.166-3.194.34-4.782.541h0l-19.642,2.967q-7.8,1.414-15.471,3.22A327.394,327.394,0,0,0,80.87,217.544q-8.272,9.974-15.707,20.62c-2.365,3.368-4.668,6.763-6.894,10.218-1.073,1.658-2.129,3.316-3.176,4.991q-5.183,8.3-9.826,16.92-4.948,9.136-9.319,18.6a1.242,1.242,0,0,0-.07.157A323.337,323.337,0,0,0,14.3,352.309h0q-1.981,8.586-3.49,17.33-.593,3.351-1.1,6.719l-.1.75c-.873,6.108-1.649,12.217-2.216,18.438l-.759.07c.061.183.122.366.166.558a5.62,5.62,0,0,0,.506.27c-.07.794-.131,1.588-.192,2.374a7.513,7.513,0,0,1-.166,2.1Q6,413.139,6,425.652A324.977,324.977,0,0,0,43.121,577.015l.34.646a327.961,327.961,0,0,0,104.4,117.331,324.609,324.609,0,0,0,115.3,49.887l7.216,1.475q14.957,2.9,30.393,4.363,15.707,1.518,31.876,1.527a328.347,328.347,0,0,0,44.791-3.054H761.722l3.124.48a242.437,242.437,0,0,0,232.69-380.7Z" transform="translate(-6 -58.276)" fill="url(#linear-gradient)"/>
    <path id="Path_626" data-name="Path 626" d="M869.009,552.379h0c-.044-2.853-.14-5.672-.3-8.5q-.279-5.323-.777-10.6a239.269,239.269,0,0,0-4.738-29.669c-.1-.436-.2-.873-.305-1.318q-2.618-11.3-6.257-22.19-2.461-7.312-5.367-14.354h0q-1.03-2.539-2.129-5.017A236.9,236.9,0,0,0,837.8,438.041h0l-.55-.96c-1.265-2.2-2.618-4.363-3.909-6.553h0l-.532-.873c-.253-.41-.506-.759-.724-1.152v-.052q-2.566-4.075-5.288-8.019a241.035,241.035,0,0,0-18.587-23.648h0a242.452,242.452,0,0,0-32.365-30.175h0c-2.906-2.225-5.847-4.407-8.857-6.518h0A238.571,238.571,0,0,0,658.1,318.311q-9.4-1.143-19.023-1.527c-1.579-.07-3.159-.113-4.738-.14-1.745-.052-3.49-.061-5.236-.061a243.265,243.265,0,0,0-30.656,1.938A239.159,239.159,0,0,0,548.666,330.4a240.159,240.159,0,0,0-207.585-119.46,236.617,236.617,0,0,0-25.62,1.37c-.942.079-1.885.192-2.827.305a238.945,238.945,0,0,0-34.18,6.588c-3.333-5.48-6.885-10.847-10.646-16.039s-7.583-10.114-11.667-14.913q-5.236-6.108-10.8-11.885a4.849,4.849,0,0,0-.367-.367A238.922,238.922,0,0,0,226.7,159.112c-3.4-2.845-6.885-5.6-10.471-8.237q-6.728-5.026-13.813-9.546-4.974-3.194-10.1-6.108A328.3,328.3,0,0,0,80.87,222.158q-8.272,9.974-15.707,20.62C62.8,246.146,60.494,249.54,58.269,253c-1.073,1.658-2.129,3.316-3.176,4.991q-5.183,8.3-9.826,16.92-4.948,9.136-9.319,18.6a1.24,1.24,0,0,0-.07.157A323.335,323.335,0,0,0,14.3,356.923h0q-1.981,8.586-3.49,17.33-.593,3.351-1.1,6.719l-.1.75c-.873,6.108-1.649,12.217-2.216,18.438l-.759.07c.061.183.122.366.166.558a5.613,5.613,0,0,0,.506.27c-.07.794-.131,1.588-.192,2.374a7.513,7.513,0,0,1-.166,2.1Q6,417.753,6,430.266A324.977,324.977,0,0,0,43.121,581.629c.288.044.585.087.873.113h0a241.04,241.04,0,0,0,91.807-6.51q4.084,6.737,8.6,13.176,3.342,4.782,6.911,9.372a241.137,241.137,0,0,0,72.557,62.557c1.23.7,2.478,1.37,3.726,2.042a236.243,236.243,0,0,0,34.948,15.306q6.981,2.435,14.232,4.442c.271.07.541.157.812.218a238.115,238.115,0,0,0,46.362,7.853q8.482.62,17.121.62a242.568,242.568,0,0,0,38.685-3.105,237.034,237.034,0,0,0,23.724-5.123h0q9.162-2.452,18.019-5.611,2.487,4.267,5.14,8.412a236.864,236.864,0,0,0,20.026,27.016q5.489,6.44,11.44,12.469a240.835,240.835,0,0,0,34.424,28.971H761.722l3.124.48a242.2,242.2,0,0,0,35.14-29.416A239.357,239.357,0,0,0,865.519,597.24q1.2-6.981,1.981-14.014a242.088,242.088,0,0,0,1.51-26.728Z" transform="translate(-6 -62.89)" fill="#18dfed" opacity="0.3"/>
    <path id="Path_627" data-name="Path 627" d="M1106.5,546.872A242.838,242.838,0,0,1,984.59,757.284H512.108q-.873-6.239-1.579-12.47c-.375-3.107-.724-6.2-1.056-9.311-.576-5.393-1.082-10.829-1.475-16.309-2.094-29.337-.873-59.337,10.82-85.594a103.583,103.583,0,0,1,4.956-9.826,108.819,108.819,0,0,1,9.119-13.412,121.87,121.87,0,0,1,9.6-10.672,145.475,145.475,0,0,1,14.581-12.565c2.452-1.859,4.974-3.665,7.539-5.4l.471-.314c13.15-8.848,27.618-16.091,42.19-22.269l3.019-1.257.785-.323c1.422-.593,2.845-1.161,4.267-1.745l.567-.227q11.527-4.59,23.22-8.517,19.861-6.693,40.288-11.51,5.079-1.2,10.192-2.277,4.948-1.056,9.921-1.99,11-2.094,22.094-3.63c.768-.1,1.527-.209,2.3-.3l4.834-.637.873-.1c1.387-.174,2.784-.332,4.18-.489,5.7-.654,11.405-1.213,17.112-1.745h0a1.9,1.9,0,0,0,.663-.079h.052q9.066-.768,18.15-1.431l4.241-.314,3.49-.244,20.733-1.466c5.6-.427,11.2-.873,16.789-1.37.951-.079,1.894-.157,2.845-.253l1.929-.183a3.56,3.56,0,0,0,.523-.052h.244l3.237-.323a1.461,1.461,0,0,1,.192,0h0c.934-.087,1.85-.183,2.775-.288,7.417-.768,14.834-1.675,22.2-2.784l2.251-.332a317.527,317.527,0,0,0,37.845-8.185q4.258-1.213,8.464-2.566,4.826-1.562,9.6-3.316l1.344-.5q3.325-1.309,6.6-2.618h0c3.176-1.309,6.318-2.714,9.406-4.188l.4-.183q5.515-2.618,10.82-5.62c1.64-.925,3.272-1.885,4.878-2.871a154.537,154.537,0,0,0,22.915-16.859c.541-.489,1.073-.969,1.6-1.457l.175-.157a238.328,238.328,0,0,0,19.564-20.943c8.674-10.192,17.068-20.672,26.641-30q4.189-4.084,8.726-7.853c3.49-2.88,7.051-5.593,10.75-8.141l.55-.384a158.188,158.188,0,0,1,16.894-10.1q6.85,8,12.976,16.58A241.224,241.224,0,0,1,1106.5,546.872Z" transform="translate(-69.844 -95.263)" fill="#18dfed"/>
    <path id="Path_628" data-name="Path 628" d="M1106.5,546.872A242.838,242.838,0,0,1,984.59,757.284H512.108q-.873-6.239-1.579-12.47c-.375-3.107-.724-6.2-1.056-9.311-.576-5.393-1.082-10.829-1.475-16.309-2.094-29.337-.873-59.337,10.82-85.594a103.583,103.583,0,0,1,4.956-9.826,108.819,108.819,0,0,1,9.119-13.412,121.87,121.87,0,0,1,9.6-10.672,145.475,145.475,0,0,1,14.581-12.565c2.452-1.859,4.974-3.665,7.539-5.4l.471-.314c13.15-8.848,27.618-16.091,42.19-22.269l3.019-1.257.785-.323c1.422-.593,2.845-1.161,4.267-1.745l.567-.227q11.527-4.59,23.22-8.517,19.861-6.693,40.288-11.51,5.079-1.2,10.192-2.277,4.948-1.056,9.921-1.99,11-2.094,22.094-3.63c.768-.1,1.527-.209,2.3-.3l4.834-.637.873-.1c1.387-.174,2.784-.332,4.18-.489,5.7-.654,11.405-1.213,17.112-1.745h0a1.9,1.9,0,0,0,.663-.079h.052q9.066-.768,18.15-1.431l4.241-.314,3.49-.244,20.733-1.466c5.6-.427,11.2-.873,16.789-1.37.951-.079,1.894-.157,2.845-.253l1.929-.183a3.56,3.56,0,0,0,.523-.052h.244l3.237-.323a1.461,1.461,0,0,1,.192,0h0c.934-.087,1.85-.183,2.775-.288,7.417-.768,14.834-1.675,22.2-2.784l2.251-.332a317.527,317.527,0,0,0,37.845-8.185q4.258-1.213,8.464-2.566,4.826-1.562,9.6-3.316l1.344-.5q3.325-1.309,6.6-2.618h0c3.176-1.309,6.318-2.714,9.406-4.188l.4-.183q5.515-2.618,10.82-5.62c1.64-.925,3.272-1.885,4.878-2.871a154.537,154.537,0,0,0,22.915-16.859c.541-.489,1.073-.969,1.6-1.457l.175-.157a238.328,238.328,0,0,0,19.564-20.943c8.674-10.192,17.068-20.672,26.641-30q4.189-4.084,8.726-7.853c3.49-2.88,7.051-5.593,10.75-8.141l.55-.384a158.188,158.188,0,0,1,16.894-10.1q6.85,8,12.976,16.58A241.224,241.224,0,0,1,1106.5,546.872Z" transform="translate(-69.844 -95.263)" opacity="0.2"/>
    <ellipse id="Ellipse_136" data-name="Ellipse 136" cx="4.721" cy="6.187" rx="4.721" ry="6.187" transform="translate(167.436 434.288)" fill="#3f3d56"/>
    <ellipse id="Ellipse_137" data-name="Ellipse 137" cx="4.721" cy="6.187" rx="4.721" ry="6.187" transform="translate(167.436 426.731)" fill="#3f3d56"/>
    <ellipse id="Ellipse_138" data-name="Ellipse 138" cx="4.721" cy="6.187" rx="4.721" ry="6.187" transform="translate(167.436 419.174)" fill="#3f3d56"/>
    <ellipse id="Ellipse_139" data-name="Ellipse 139" cx="4.721" cy="6.187" rx="4.721" ry="6.187" transform="translate(167.436 411.617)" fill="#3f3d56"/>
    <ellipse id="Ellipse_140" data-name="Ellipse 140" cx="4.721" cy="6.187" rx="4.721" ry="6.187" transform="translate(167.436 404.06)" fill="#3f3d56"/>
    <ellipse id="Ellipse_141" data-name="Ellipse 141" cx="4.721" cy="6.187" rx="4.721" ry="6.187" transform="translate(167.436 396.504)" fill="#3f3d56"/>
    <ellipse id="Ellipse_142" data-name="Ellipse 142" cx="4.721" cy="6.187" rx="4.721" ry="6.187" transform="translate(167.436 388.947)" fill="#3f3d56"/>
    <path id="Path_629" data-name="Path 629" d="M217.638,440.524a22.944,22.944,0,0,0,1.745-2.618l-12.408-2.033,13.421.1a22.688,22.688,0,0,0,.428-17.923l-18.011,9.337,16.58-12.216a22.627,22.627,0,1,0-37.374,25.306A22.606,22.606,0,0,0,179.4,444.6l16.117,8.368L178.335,447.2a22.627,22.627,0,0,0,3.648,21.248,22.627,22.627,0,1,0,35.568,0,22.618,22.618,0,0,0,0-27.976Z" transform="translate(-27.802 -97.11)" fill="#18dfed"/>
    <path id="Path_630" data-name="Path 630" d="M177.24,461.861a22.554,22.554,0,0,0,4.841,13.959,22.627,22.627,0,1,0,35.57,0C220.661,472,177.24,459.322,177.24,461.861Z" transform="translate(-27.814 -104.459)" opacity="0.03"/>
    <ellipse id="Ellipse_143" data-name="Ellipse 143" cx="4.721" cy="6.187" rx="4.721" ry="6.187" transform="translate(217.175 454.358)" fill="#3f3d56"/>
    <ellipse id="Ellipse_144" data-name="Ellipse 144" cx="4.721" cy="6.187" rx="4.721" ry="6.187" transform="translate(217.175 446.801)" fill="#3f3d56"/>
    <ellipse id="Ellipse_145" data-name="Ellipse 145" cx="4.721" cy="6.187" rx="4.721" ry="6.187" transform="translate(217.175 439.244)" fill="#3f3d56"/>
    <ellipse id="Ellipse_146" data-name="Ellipse 146" cx="4.721" cy="6.187" rx="4.721" ry="6.187" transform="translate(217.175 431.687)" fill="#3f3d56"/>
    <ellipse id="Ellipse_147" data-name="Ellipse 147" cx="4.721" cy="6.187" rx="4.721" ry="6.187" transform="translate(217.175 424.13)" fill="#3f3d56"/>
    <ellipse id="Ellipse_148" data-name="Ellipse 148" cx="4.721" cy="6.187" rx="4.721" ry="6.187" transform="translate(217.175 416.574)" fill="#3f3d56"/>
    <ellipse id="Ellipse_149" data-name="Ellipse 149" cx="4.721" cy="6.187" rx="4.721" ry="6.187" transform="translate(217.175 409.017)" fill="#3f3d56"/>
    <path id="Path_631" data-name="Path 631" d="M274.638,463.524a22.957,22.957,0,0,0,1.745-2.618l-12.408-2.033,13.421.1a22.687,22.687,0,0,0,.428-17.923l-18.011,9.337,16.58-12.216a22.627,22.627,0,1,0-37.374,25.306A22.609,22.609,0,0,0,236.4,467.6l16.117,8.368L235.335,470.2a22.627,22.627,0,0,0,3.648,21.248,22.627,22.627,0,1,0,35.568,0,22.618,22.618,0,0,0,0-27.976Z" transform="translate(-35.063 -100.04)" fill="#18dfed"/>
    <path id="Path_632" data-name="Path 632" d="M234.24,484.861a22.555,22.555,0,0,0,4.841,13.959,22.627,22.627,0,1,0,35.57,0C277.661,495,234.24,482.322,234.24,484.861Z" transform="translate(-35.076 -107.389)" opacity="0.03"/>
    <ellipse id="Ellipse_150" data-name="Ellipse 150" cx="4.721" cy="6.187" rx="4.721" ry="6.187" transform="translate(537.422 472.682)" fill="#3f3d56"/>
    <ellipse id="Ellipse_151" data-name="Ellipse 151" cx="4.721" cy="6.187" rx="4.721" ry="6.187" transform="translate(537.422 465.126)" fill="#3f3d56"/>
    <ellipse id="Ellipse_152" data-name="Ellipse 152" cx="4.721" cy="6.187" rx="4.721" ry="6.187" transform="translate(537.422 457.569)" fill="#3f3d56"/>
    <ellipse id="Ellipse_153" data-name="Ellipse 153" cx="4.721" cy="6.187" rx="4.721" ry="6.187" transform="translate(537.422 450.012)" fill="#3f3d56"/>
    <ellipse id="Ellipse_154" data-name="Ellipse 154" cx="4.721" cy="6.187" rx="4.721" ry="6.187" transform="translate(537.422 442.455)" fill="#3f3d56"/>
    <ellipse id="Ellipse_155" data-name="Ellipse 155" cx="4.721" cy="6.187" rx="4.721" ry="6.187" transform="translate(537.422 434.898)" fill="#3f3d56"/>
    <ellipse id="Ellipse_156" data-name="Ellipse 156" cx="4.721" cy="6.187" rx="4.721" ry="6.187" transform="translate(537.422 427.342)" fill="#3f3d56"/>
    <path id="Path_633" data-name="Path 633" d="M641.638,484.524a22.942,22.942,0,0,0,1.745-2.618l-12.408-2.033,13.421.1a22.687,22.687,0,0,0,.428-17.923l-18.011,9.337,16.579-12.216a22.627,22.627,0,1,0-37.374,25.306A22.6,22.6,0,0,0,603.4,488.6l16.117,8.368L602.335,491.2a22.627,22.627,0,0,0,3.647,21.248,22.627,22.627,0,1,0,35.568,0,22.618,22.618,0,0,0,0-27.976Z" transform="translate(-81.816 -102.715)" fill="#18dfed"/>
    <path id="Path_634" data-name="Path 634" d="M601.24,505.861a22.555,22.555,0,0,0,4.841,13.959,22.627,22.627,0,1,0,35.569,0C644.661,516,601.24,503.322,601.24,505.861Z" transform="translate(-81.829 -110.064)" opacity="0.03"/>
    <ellipse id="Ellipse_157" data-name="Ellipse 157" cx="4.721" cy="6.187" rx="4.721" ry="6.187" transform="translate(587.16 503.224)" fill="#3f3d56"/>
    <ellipse id="Ellipse_158" data-name="Ellipse 158" cx="4.721" cy="6.187" rx="4.721" ry="6.187" transform="translate(587.16 495.667)" fill="#3f3d56"/>
    <ellipse id="Ellipse_159" data-name="Ellipse 159" cx="4.721" cy="6.187" rx="4.721" ry="6.187" transform="translate(587.16 488.11)" fill="#3f3d56"/>
    <ellipse id="Ellipse_160" data-name="Ellipse 160" cx="4.721" cy="6.187" rx="4.721" ry="6.187" transform="translate(587.16 480.553)" fill="#3f3d56"/>
    <ellipse id="Ellipse_161" data-name="Ellipse 161" cx="4.721" cy="6.187" rx="4.721" ry="6.187" transform="translate(587.16 472.996)" fill="#3f3d56"/>
    <ellipse id="Ellipse_162" data-name="Ellipse 162" cx="4.721" cy="6.187" rx="4.721" ry="6.187" transform="translate(587.16 465.44)" fill="#3f3d56"/>
    <ellipse id="Ellipse_163" data-name="Ellipse 163" cx="4.721" cy="6.187" rx="4.721" ry="6.187" transform="translate(587.16 457.883)" fill="#3f3d56"/>
    <path id="Path_635" data-name="Path 635" d="M698.638,519.524a22.948,22.948,0,0,0,1.745-2.618l-12.409-2.033,13.421.1a22.688,22.688,0,0,0,.428-17.923l-18.011,9.337,16.579-12.217a22.627,22.627,0,1,0-37.374,25.306A22.608,22.608,0,0,0,660.4,523.6l16.117,8.368L659.335,526.2a22.627,22.627,0,0,0,3.647,21.248,22.627,22.627,0,1,0,35.568,0,22.618,22.618,0,0,0,0-27.976Z" transform="translate(-89.077 -107.174)" fill="#18dfed"/>
    <path id="Path_636" data-name="Path 636" d="M658.24,540.861a22.554,22.554,0,0,0,4.841,13.959,22.627,22.627,0,1,0,35.57,0C701.661,551,658.24,538.322,658.24,540.861Z" transform="translate(-89.09 -114.523)" opacity="0.03"/>
    <ellipse id="Ellipse_164" data-name="Ellipse 164" cx="4.721" cy="6.187" rx="4.721" ry="6.187" transform="translate(637.772 542.491)" fill="#3f3d56"/>
    <ellipse id="Ellipse_165" data-name="Ellipse 165" cx="4.721" cy="6.187" rx="4.721" ry="6.187" transform="translate(637.772 534.934)" fill="#3f3d56"/>
    <ellipse id="Ellipse_166" data-name="Ellipse 166" cx="4.721" cy="6.187" rx="4.721" ry="6.187" transform="translate(637.772 527.377)" fill="#3f3d56"/>
    <ellipse id="Ellipse_167" data-name="Ellipse 167" cx="4.721" cy="6.187" rx="4.721" ry="6.187" transform="translate(637.772 519.821)" fill="#3f3d56"/>
    <ellipse id="Ellipse_168" data-name="Ellipse 168" cx="4.721" cy="6.187" rx="4.721" ry="6.187" transform="translate(637.772 512.264)" fill="#3f3d56"/>
    <ellipse id="Ellipse_169" data-name="Ellipse 169" cx="4.721" cy="6.187" rx="4.721" ry="6.187" transform="translate(637.772 504.707)" fill="#3f3d56"/>
    <ellipse id="Ellipse_170" data-name="Ellipse 170" cx="4.721" cy="6.187" rx="4.721" ry="6.187" transform="translate(637.772 497.15)" fill="#3f3d56"/>
    <path id="Path_637" data-name="Path 637" d="M756.638,564.524a22.909,22.909,0,0,0,1.745-2.618l-12.409-2.033,13.421.1a22.687,22.687,0,0,0,.428-17.923l-18.011,9.337,16.579-12.216a22.627,22.627,0,1,0-37.374,25.306A22.608,22.608,0,0,0,718.4,568.6l16.117,8.368L717.335,571.2a22.626,22.626,0,0,0,3.647,21.248,22.627,22.627,0,1,0,35.568,0,22.618,22.618,0,0,0,0-27.976Z" transform="translate(-96.466 -112.907)" fill="#18dfed"/>
    <path id="Path_638" data-name="Path 638" d="M716.24,585.861a22.553,22.553,0,0,0,4.841,13.959,22.627,22.627,0,1,0,35.57,0C759.661,596,716.24,583.322,716.24,585.861Z" transform="translate(-96.479 -120.256)" opacity="0.03"/>
    <ellipse id="Ellipse_171" data-name="Ellipse 171" cx="4.721" cy="6.187" rx="4.721" ry="6.187" transform="translate(677.039 474.428)" fill="#3f3d56"/>
    <ellipse id="Ellipse_172" data-name="Ellipse 172" cx="4.721" cy="6.187" rx="4.721" ry="6.187" transform="translate(677.039 466.871)" fill="#3f3d56"/>
    <ellipse id="Ellipse_173" data-name="Ellipse 173" cx="4.721" cy="6.187" rx="4.721" ry="6.187" transform="translate(677.039 459.314)" fill="#3f3d56"/>
    <ellipse id="Ellipse_174" data-name="Ellipse 174" cx="4.721" cy="6.187" rx="4.721" ry="6.187" transform="translate(677.039 451.757)" fill="#3f3d56"/>
    <ellipse id="Ellipse_175" data-name="Ellipse 175" cx="4.721" cy="6.187" rx="4.721" ry="6.187" transform="translate(677.039 444.2)" fill="#3f3d56"/>
    <ellipse id="Ellipse_176" data-name="Ellipse 176" cx="4.721" cy="6.187" rx="4.721" ry="6.187" transform="translate(677.039 436.644)" fill="#3f3d56"/>
    <ellipse id="Ellipse_177" data-name="Ellipse 177" cx="4.721" cy="6.187" rx="4.721" ry="6.187" transform="translate(677.039 429.087)" fill="#3f3d56"/>
    <path id="Path_639" data-name="Path 639" d="M801.638,486.524a22.927,22.927,0,0,0,1.745-2.618l-12.409-2.033,13.421.1a22.687,22.687,0,0,0,.428-17.923l-18.011,9.337,16.58-12.216a22.627,22.627,0,1,0-37.374,25.306A22.606,22.606,0,0,0,763.4,490.6l16.117,8.368L762.335,493.2a22.627,22.627,0,0,0,3.647,21.248,22.627,22.627,0,1,0,35.568,0,22.618,22.618,0,0,0,0-27.976Z" transform="translate(-102.199 -102.97)" fill="#18dfed"/>
    <path id="Path_640" data-name="Path 640" d="M761.24,507.861a22.555,22.555,0,0,0,4.841,13.959,22.627,22.627,0,1,0,35.57,0C804.661,518,761.24,505.322,761.24,507.861Z" transform="translate(-102.211 -110.319)" opacity="0.03"/>
    <ellipse id="Ellipse_178" data-name="Ellipse 178" cx="4.721" cy="6.187" rx="4.721" ry="6.187" transform="translate(965.872 379.313)" fill="#3f3d56"/>
    <ellipse id="Ellipse_179" data-name="Ellipse 179" cx="4.721" cy="6.187" rx="4.721" ry="6.187" transform="translate(965.872 371.757)" fill="#3f3d56"/>
    <ellipse id="Ellipse_180" data-name="Ellipse 180" cx="4.721" cy="6.187" rx="4.721" ry="6.187" transform="translate(965.872 364.2)" fill="#3f3d56"/>
    <ellipse id="Ellipse_181" data-name="Ellipse 181" cx="4.721" cy="6.187" rx="4.721" ry="6.187" transform="translate(965.872 356.643)" fill="#3f3d56"/>
    <ellipse id="Ellipse_182" data-name="Ellipse 182" cx="4.721" cy="6.187" rx="4.721" ry="6.187" transform="translate(965.872 349.086)" fill="#3f3d56"/>
    <ellipse id="Ellipse_183" data-name="Ellipse 183" cx="4.721" cy="6.187" rx="4.721" ry="6.187" transform="translate(965.872 341.529)" fill="#3f3d56"/>
    <ellipse id="Ellipse_184" data-name="Ellipse 184" cx="4.721" cy="6.187" rx="4.721" ry="6.187" transform="translate(965.872 333.973)" fill="#3f3d56"/>
    <path id="Path_641" data-name="Path 641" d="M1137.51,421.551v2.592c0,.131-.061.48-.1.724v.3a3.676,3.676,0,0,1-.14.75,4.277,4.277,0,0,1-.087.436c-.061.323-.14.628-.227.942s-.166.637-.262.934a18.636,18.636,0,0,1-.777,2.129c-.14.349-.288.681-.454,1.012s-.3.6-.454.873-.253.471-.384.7-.262.436-.41.654a2.8,2.8,0,0,0-.166.271c-.061.1-.244.375-.366.55a1.048,1.048,0,0,1-.131.174c-.148.227-.314.454-.489.672a22.774,22.774,0,0,1-2.888,3.133c-.227.209-.454.4-.689.593l-.079.061-.619.5-.332.236c-.2.157-.419.305-.628.445a21.288,21.288,0,0,1-3.124,1.789,21.888,21.888,0,0,1-1.745.707c-.314.1-.358.148-.541.2l-.314.113-.873.244-.873.236a2.245,2.245,0,0,1-.332.07l-.742.157c-.541.113-1.082.209-1.632.27h-.087c-.192,0-.393.052-.584.061a6,6,0,0,1-.681.052h-2.592a5.679,5.679,0,0,1-.672-.052,4.045,4.045,0,0,1-.559-.052h0c-.567-.061-1.125-.131-1.675-.244-.3-.052-.585-.122-.873-.192a.515.515,0,0,1-.192-.044,22.829,22.829,0,0,1-3.578-1.161,19.679,19.679,0,0,1-1.833-.873c-.279-.148-.567-.305-.872-.471l-.611-.375c-.4-.244-.794-.515-1.178-.794-.157-.113-.314-.227-.471-.358a3.368,3.368,0,0,1-.332-.253c-.166-.14-.332-.262-.5-.41a.411.411,0,0,1-.131-.113c-.218-.175-.428-.375-.637-.559a22.558,22.558,0,0,1-2-2.094c-.209-.244-.41-.5-.6-.742s-.279-.367-.4-.55-.209-.288-.305-.428-.271-.393-.4-.6-.323-.524-.48-.785c-.314-.524-.6-1.065-.873-1.614-.122-.253-.236-.5-.34-.759a13.224,13.224,0,0,1-.55-1.37c-.122-.314-.227-.637-.323-.96s-.209-.7-.3-1.056a.074.074,0,0,1,0-.044c-.078-.314-.157-.637-.218-.942s-.114-.541-.148-.812-.087-.489-.122-.733a1.325,1.325,0,0,1,0-.192c-.052-.288-.079-.593-.1-.873s-.061-.681-.07-1.012,0-.689,0-1.038a22.554,22.554,0,0,1,4.841-13.959c-.382-.491-.748-.989-1.08-1.5-.113-.166-.218-.323-.314-.489s-.288-.471-.419-.707-.323-.558-.48-.873a.357.357,0,0,1-.044-.079q-.453-.852-.82-1.745c-.087-.209-.166-.41-.244-.611-.218-.585-.41-1.169-.585-1.745a20.128,20.128,0,0,1-.48-2.085c-.043-.209-.078-.428-.1-.637a.1.1,0,0,1,0-.052,5.078,5.078,0,0,0-.1-.62c-.061-.5-.1-1.012-.131-1.527V393.68a22.69,22.69,0,0,1,1.2-7.251l17.182,5.768-16.117-8.386a22.828,22.828,0,0,1,2.618-4.119,22.688,22.688,0,0,1-3.037-22.862,243.53,243.53,0,0,1,28.892,28.578q6.85,8,12.976,16.58a22.294,22.294,0,0,1-3.194,5.593l-.07.087A22.5,22.5,0,0,1,1137.51,421.551Z" transform="translate(-144.394 -91.122)" fill="#18dfed"/>
    <path id="Path_642" data-name="Path 642" d="M1092.24,398.861a22.554,22.554,0,0,0,4.841,13.959,22.627,22.627,0,1,0,35.57,0C1135.661,409,1092.24,396.322,1092.24,398.861Z" transform="translate(-144.378 -96.434)" opacity="0.03"/>
    <path id="Path_643" data-name="Path 643" d="M655.784,224.288q-15.026,5.026-30.384,9,13.621-6.379,27.278-12.435C653.725,221.984,654.72,223.136,655.784,224.288Z" transform="translate(-84.907 -73.799)" fill="#18dfed" opacity="0.3"/>
    <path id="Path_644" data-name="Path 644" d="M339.286,99.368q7.548-.366,15.192-.358h.463c-6.213,4.093-12.461,8.019-18.752,11.7-1.579.873-3.159,1.832-4.747,2.714q-1.8,1.021-3.6,2-14.171,7.723-28.534,15.018-10.908,5.532-21.894,10.8-14.354,6.876-28.883,13.255c-23.491,10.288-47.191,19.546-71.135,27.5q30.323-18.325,60.69-35.777,21.51-12.312,43.072-24.258,2.347-1.309,4.686-2.618,15.759-8.726,31.571-17.225l2.435-1.318Z" transform="translate(-27.835 -58.277)" fill="#18dfed" opacity="0.3"/>
    <path id="Path_645" data-name="Path 645" d="M709.471,321.67q3.674,8.255,6.885,16.754c-1.326.637-2.618,1.257-3.979,1.885-30.69,14.319-61.711,27.234-92.976,38.456q28.561-18.613,57.138-36.58Q693,331.827,709.471,321.67Z" transform="translate(-84.142 -86.642)" fill="#18dfed" opacity="0.3"/>
    <path id="Path_646" data-name="Path 646" d="M641.983,763.52c-.157-21.449-3.107-42.592-11.649-61.728a103.568,103.568,0,0,0-4.956-9.826,108.734,108.734,0,0,0-8.979-13.229,116.229,116.229,0,0,0-8.229-9.346,149.684,149.684,0,0,0-23.63-19.494c-14.18-9.6-29.913-17.33-45.681-23.84a452.034,452.034,0,0,0-60.21-20.07q-3.648-.925-7.321-1.815c-.759-.192-1.518-.367-2.286-.55l-2.469-.567h0c-1.414-.332-2.81-.637-4.223-.951q-6.318-1.387-12.67-2.618-11-2.094-22.094-3.63c-15.986-2.2-32.077-3.569-48.177-4.747l-7.757-.558h0l-20.733-1.466c-6.92-.524-13.831-1.073-20.733-1.745l-1.667-.087-3.237-.323c-2.862-.3-5.733-.593-8.6-.925q-8.3-.942-16.58-2.173-9.206-1.37-18.377-3.229l-1-.209c-1.623-.332-3.246-.689-4.86-1.047-.96-.209-1.911-.428-2.862-.654q-8.8-2.068-17.452-4.677A227.027,227.027,0,0,1,231.84,565.4q-3.866-1.649-7.644-3.49l-1.03-.515a161.908,161.908,0,0,1-39.355-26.449l-.986-.873-2.094-2.007c-1.23-1.2-2.435-2.426-3.621-3.656s-2.295-2.4-3.429-3.621c-6.588-7.129-12.749-14.686-19.049-22.112-5.454-6.414-11-12.723-17.025-18.6-1.108-1.082-2.234-2.129-3.377-3.168a148.026,148.026,0,0,0-16.588-13.2c-.82-.567-1.649-1.117-2.478-1.658q-4.9-3.246-10.061-6.108c-3.36-1.867-6.8-3.613-10.288-5.236q-6.981-3.246-14.2-5.838a178.153,178.153,0,0,0-24.965-6.92A180.265,180.265,0,0,0,18.4,438.3h0c-3.682.044-7.365.192-11.021.48l-.759.07c.061.183.122.367.166.558a5.613,5.613,0,0,0,.506.271c-.07.794-.131,1.588-.192,2.374a7.514,7.514,0,0,1-.157,2.094Q6,456.362,6,468.876A324.977,324.977,0,0,0,43.121,620.238l.34.646a327.961,327.961,0,0,0,104.4,117.331,324.61,324.61,0,0,0,115.3,49.887l7.216,1.475q14.957,2.9,30.393,4.363,15.707,1.518,31.876,1.527a328.347,328.347,0,0,0,44.791-3.054H640.752C641.555,782.849,642.053,773.119,641.983,763.52Z" transform="translate(-6 -101.5)" fill="#3f3d56"/>
    <path id="Path_647" data-name="Path 647" d="M573.11,175.387a15.89,15.89,0,0,0-9.206,1,13.561,13.561,0,0,1-11.039,0,15.5,15.5,0,0,0-12.993.253,8.116,8.116,0,0,1-3.744.934c-5.236,0-9.651-5.305-10.558-12.3a9.991,9.991,0,0,0,2.618-2.836c3.08-4.974,7.853-8.168,13.237-8.168s10.1,3.15,13.185,8.072a10.148,10.148,0,0,0,8.726,4.808h.131C567.708,167.124,571.321,170.483,573.11,175.387Z" transform="translate(-72.189 -65.317)" fill="#18dfed" opacity="0.1"/>
    <path id="Path_648" data-name="Path 648" d="M590.611,166.339c-1.6,5.489-5.454,9.372-9.948,9.372a8.037,8.037,0,0,1-3.7-.916,15.5,15.5,0,0,0-12.88-.253,13.683,13.683,0,0,1-5.5,1.169,13.509,13.509,0,0,1-4.224-.689c-.227-.061-.463-.157-.689-.236s-.427-.166-.637-.262a.428.428,0,0,0-.166-.061,6.562,6.562,0,0,0-.681-.279c-.218-.087-.436-.157-.654-.236a15.428,15.428,0,0,0-11.492.82,8.09,8.09,0,0,1-3.735.942,7.323,7.323,0,0,1-2.1-.306,1.605,1.605,0,0,1-.278-.069,1.658,1.658,0,0,1-.314-.1c-4.058-1.457-7.182-6.161-7.853-12a20.113,20.113,0,0,1-.157-2.539c0-8.3,4.8-15.018,10.733-15.018h.288a9.9,9.9,0,0,0,8.726-4.712,15.7,15.7,0,0,1,1.126-1.623,326.5,326.5,0,0,1,44.128,27Z" transform="translate(-72.194 -63.415)" fill="#18dfed" opacity="0.1"/>
    <path id="Path_649" data-name="Path 649" d="M72.371,313.21a15.4,15.4,0,0,0-3.045-.279,15.61,15.61,0,0,0-6.161,1.309c-.192.078-.384.166-.585.236a13.49,13.49,0,0,1-4.9.925,13.735,13.735,0,0,1-4.058-.62c-.227-.079-.462-.157-.689-.253s-.541-.2-.8-.323l-.681-.279-.654-.227a15.585,15.585,0,0,0-10.471.236q4.363-9.476,9.319-18.6a19.006,19.006,0,0,1,4.276,4.843,10.175,10.175,0,0,0,8.726,4.8h.131a7.723,7.723,0,0,1,1.492.148,8.6,8.6,0,0,1,2.618.969h0A13.272,13.272,0,0,1,72.371,313.21Z" transform="translate(-10.372 -83.287)" fill="#18dfed" opacity="0.1"/>
    <path id="Path_650" data-name="Path 650" d="M90.633,297.215c0,8.29-4.808,15.009-10.733,15.009a8.038,8.038,0,0,1-3.7-.916,14.625,14.625,0,0,0-6.85-1.518,15.706,15.706,0,0,0-6.03,1.248c-.271.113-.532.227-.812.323a13.422,13.422,0,0,1-4.686.873,13.662,13.662,0,0,1-3.72-.516l-.5-.156c-.227-.079-.462-.157-.689-.253a6.543,6.543,0,0,1-.672-.271l-.166-.061c-.227-.1-.445-.183-.681-.279l-.654-.227-.6-.175a15.454,15.454,0,0,0-9.965.567,1.239,1.239,0,0,1,.07-.157q4.363-9.476,9.319-18.6,4.66-8.613,9.826-16.92c1.047-1.675,2.1-3.333,3.176-4.991a16.4,16.4,0,0,1,6.8,4.983L66.1,281.089l5.157-3.272a10.2,10.2,0,0,0,5.052,3.831l-1.239,2.26,2.888-1.841a9.867,9.867,0,0,0,1.745.14h.14A8.412,8.412,0,0,1,85,284.038l-3.49,6.414-1.641,2.993,6.981-4.415,1.553-.986a7.857,7.857,0,0,1,.393.768,19.259,19.259,0,0,1,1.841,8.4Z" transform="translate(-10.353 -80.084)" fill="#18dfed" opacity="0.1"/>
    <ellipse id="Ellipse_185" data-name="Ellipse 185" cx="31.231" cy="40.882" rx="31.231" ry="40.882" transform="translate(831.613 438.616)" fill="#2f2e41"/>
    <ellipse id="Ellipse_186" data-name="Ellipse 186" cx="31.231" cy="40.882" rx="31.231" ry="40.882" transform="translate(831.613 388.641)" fill="#2f2e41"/>
    <ellipse id="Ellipse_187" data-name="Ellipse 187" cx="31.231" cy="40.882" rx="31.231" ry="40.882" transform="translate(831.613 338.676)" fill="#2f2e41"/>
    <ellipse id="Ellipse_188" data-name="Ellipse 188" cx="31.231" cy="40.882" rx="31.231" ry="40.882" transform="translate(831.613 288.71)" fill="#2f2e41"/>
    <ellipse id="Ellipse_189" data-name="Ellipse 189" cx="31.231" cy="40.882" rx="31.231" ry="40.882" transform="translate(831.613 238.736)" fill="#2f2e41"/>
    <path id="Path_651" data-name="Path 651" d="M961.879,295.9A51.431,51.431,0,0,0,959,313.021,49.275,49.275,0,0,0,965.509,338c5.707,9.668,14.66,15.9,24.721,15.9s19.005-6.23,24.721-15.9a49.119,49.119,0,0,0,6.5-23.988,238.587,238.587,0,0,0-27.286-10.4q-9.686-3.037-19.7-5.236Z" transform="translate(-127.404 -83.36)" fill="#2f2e41"/>
    <path id="Path_652" data-name="Path 652" d="M976.74,298.71q10.009,2.216,19.7,5.236a24.514,24.514,0,0,1-3.936.323A25.742,25.742,0,0,1,976.74,298.71Z" transform="translate(-129.665 -83.718)" fill="#2f2e41"/>
    <ellipse id="Ellipse_190" data-name="Ellipse 190" cx="31.231" cy="40.882" rx="31.231" ry="40.882" transform="translate(249.583 431.635)" fill="#3f3d56"/>
    <ellipse id="Ellipse_191" data-name="Ellipse 191" cx="31.231" cy="40.882" rx="31.231" ry="40.882" transform="translate(249.583 381.661)" fill="#3f3d56"/>
    <ellipse id="Ellipse_192" data-name="Ellipse 192" cx="31.231" cy="40.882" rx="31.231" ry="40.882" transform="translate(249.583 331.695)" fill="#3f3d56"/>
    <ellipse id="Ellipse_193" data-name="Ellipse 193" cx="31.231" cy="40.882" rx="31.231" ry="40.882" transform="translate(249.583 281.73)" fill="#3f3d56"/>
    <ellipse id="Ellipse_194" data-name="Ellipse 194" cx="31.231" cy="40.882" rx="31.231" ry="40.882" transform="translate(249.583 231.755)" fill="#3f3d56"/>
    <ellipse id="Ellipse_195" data-name="Ellipse 195" cx="31.231" cy="40.882" rx="31.231" ry="40.882" transform="translate(249.583 181.79)" fill="#3f3d56"/>
    <ellipse id="Ellipse_196" data-name="Ellipse 196" cx="31.231" cy="40.882" rx="31.231" ry="40.882" transform="translate(249.583 131.824)" fill="#3f3d56"/>
    <ellipse id="Ellipse_197" data-name="Ellipse 197" cx="31.231" cy="40.882" rx="31.231" ry="40.882" transform="translate(249.583 92.19)" fill="#3f3d56"/>
    <path id="Path_653" data-name="Path 653" d="M310.022,104.686a34.659,34.659,0,0,0-11.492,12.059,42.3,42.3,0,0,0-2.766,5.559,50.933,50.933,0,0,0-3.744,19.285v.14a49.276,49.276,0,0,0,6.51,24.983c5.707,9.668,14.66,15.9,24.721,15.9s19.005-6.23,24.721-15.9a51.2,51.2,0,0,0,0-49.966c-.611-1.03-1.257-2.024-1.928-2.976a31.352,31.352,0,0,0-14.023-11.283,22.4,22.4,0,0,0-2.347-.777h0Z" transform="translate(-42.436 -58.621)" fill="#3f3d56"/>
    <path id="Path_654" data-name="Path 654" d="M330.032,101.418h0q2.382-.288,4.782-.541l19.433-1.457a49,49,0,0,1-3.1,11.344,44.241,44.241,0,0,1-2.818,5.689c-5.716,9.668-14.66,15.9-24.721,15.9a24.433,24.433,0,0,1-9.337-1.859,31.614,31.614,0,0,1-13.464-11.073c-.672-.951-1.318-1.937-1.92-2.967a44.505,44.505,0,0,1-3.979-8.84q7.67-1.806,15.471-3.22Z" transform="translate(-42.805 -58.33)" fill="#3f3d56"/>
    <ellipse id="Ellipse_198" data-name="Ellipse 198" cx="31.231" cy="40.882" rx="31.231" ry="40.882" transform="translate(48.883 308.597)" fill="#3f3d56"/>
    <ellipse id="Ellipse_199" data-name="Ellipse 199" cx="31.231" cy="40.882" rx="31.231" ry="40.882" transform="translate(48.883 258.623)" fill="#3f3d56"/>
    <ellipse id="Ellipse_200" data-name="Ellipse 200" cx="31.231" cy="40.882" rx="31.231" ry="40.882" transform="translate(48.883 208.657)" fill="#3f3d56"/>
    <path id="Path_655" data-name="Path 655" d="M124.479,275.03a49.3,49.3,0,0,1-6.51,24.983c-5.716,9.668-14.66,15.908-24.721,15.908-8.141,0-15.55-4.084-21.117-10.759V305.1a37.982,37.982,0,0,1-3.56-5.087c-.532-.873-1.03-1.806-1.5-2.749A50.306,50.306,0,0,1,62,275.03q0-2.269.183-4.476c1.047-1.675,2.1-3.333,3.176-4.991,2.225-3.49,4.529-6.85,6.894-10.218q7.443-10.628,15.707-20.62a23.8,23.8,0,0,1,5.236-.585c10.061,0,19.005,6.23,24.721,15.908A49.328,49.328,0,0,1,124.479,275.03Z" transform="translate(-13.134 -75.492)" fill="#3f3d56"/>
    <path id="Path_656" data-name="Path 656" d="M125.983,220.419a49.372,49.372,0,0,1-6.51,24.983c-5.716,9.668-14.669,15.89-24.721,15.89-8.08,0-15.436-4.005-20.943-10.593q7.443-10.628,15.707-20.62A324.336,324.336,0,0,1,120.582,197.4,50,50,0,0,1,125.983,220.419Z" transform="translate(-14.639 -70.811)" fill="#3f3d56"/>
    <path id="Path_657" data-name="Path 657" d="M302.981,811.8q14.957,2.9,30.393,4.363,15.707,1.536,31.876,1.536a328.518,328.518,0,0,0,44.838-3.069l384.215.006c1.038.166,2.077.332,3.124.48a242.725,242.725,0,0,0,259.941-148.344q-10.223-6.636-20.611-12.941-10.406-6.322-21.292-12c-1.091-.585-2.19-1.152-3.3-1.745a289.115,289.115,0,0,0-41.58-17.548c-6.2-2.033-12.443-3.8-18.726-5.236q-4.459-1.039-8.944-1.85-5.637-1.038-11.344-1.693a153.6,153.6,0,0,0-30.035-.646h0q-2.757.209-5.532.55-5.331.619-10.637,1.675-6.545,1.309-12.88,3.211c-36.388,10.812-67.906,34.974-100.542,55.131l-1.248.777a497.17,497.17,0,0,1-107.785,49.433q-10.567,3.4-21.274,6.335-12.217,3.351-24.52,6.108c-1.562.349-3.133.689-4.695,1.012q-9.415,2.016-18.9,3.647a504.993,504.993,0,0,1-116.79,6.562q-8.726-.524-17.5-1.37-11.614-1.117-23.159-2.8h0l-1.588-.227c-6.658-.986-13.316-2.112-19.965-3.237-7.976-1.344-15.951-2.67-23.936-3.752-2.705-.375-5.4-.707-8.106-1.012a210.939,210.939,0,0,0-25.611-1.414c-1.353,0-2.705.052-4.066.114-14.6.567-29.407,3.4-42.618,9.258l-.75.332a80.016,80.016,0,0,0-19.311,12.138q-2.5,2.129-4.817,4.52c-11.274,11.632-18.019,25.9-23.56,40.821a321.317,321.317,0,0,0,34.032,9.337Z" transform="translate(-38.581 -123.713)" fill="#2f2e41"/>
    <circle id="Ellipse_201" data-name="Ellipse 201" cx="1.745" cy="1.745" r="1.745" transform="translate(337.699 216.075)" fill="#fff" opacity="0.6"/>
    <circle id="Ellipse_202" data-name="Ellipse 202" cx="1.745" cy="1.745" r="1.745" transform="translate(160.56 217.82)" fill="#fff" opacity="0.6"/>
    <circle id="Ellipse_203" data-name="Ellipse 203" cx="1.745" cy="1.745" r="1.745" transform="translate(534.909 308.571)" fill="#fff" opacity="0.6"/>
    <circle id="Ellipse_204" data-name="Ellipse 204" cx="1.745" cy="1.745" r="1.745" transform="translate(667.545 247.488)" fill="#fff" opacity="0.6"/>
    <path id="Path_658" data-name="Path 658" d="M275.87,812.3A94.6,94.6,0,0,0,279,788.046c0-2.112-.079-4.206-.209-6.283a95.022,95.022,0,0,0,4.058-27.627,96.991,96.991,0,0,0-.53-10.11c0-.2-.046-.4-.063-.58a93.692,93.692,0,0,0-9.6-32.086l-39.547,12.321L217.8,728.447l11.545-6.789,36.649-21.536a94.9,94.9,0,0,0-71.327-40.655,95.458,95.458,0,0,0-7.4-9.8l-30.445,9.468L108.33,674.2l41.606-24.433,23.054-13.621a94.914,94.914,0,0,0-123.509,6.92h0l-.541.532a328.039,328.039,0,0,0,104.4,117.366,324.609,324.609,0,0,0,115.289,49.861Z" transform="translate(-11.47 -124.21)" fill="#2f2e41"/>
    <path id="Path_659" data-name="Path 659" d="M505.513,840.787H432.38c8.552-14.075,21.754-23.107,36.571-23.107S496.97,826.685,505.513,840.787Z" transform="translate(-60.318 -149.83)" fill="#3f3d56"/>
    <path id="Path_660" data-name="Path 660" d="M505.513,840.787H432.38c8.552-14.075,21.754-23.107,36.571-23.107S496.97,826.685,505.513,840.787Z" transform="translate(-60.318 -149.83)" opacity="0.1"/>
    <path id="Path_661" data-name="Path 661" d="M306.873,810.134q14.957,2.9,30.393,4.363,15.707,1.536,31.876,1.536a328.518,328.518,0,0,0,44.838-3.069l169.841.006a95.062,95.062,0,0,0,9.756-41.955c0-2.112-.079-4.206-.209-6.283a94.779,94.779,0,0,0,4.084-25.34v-2.251a94.521,94.521,0,0,0-10.166-42.758l-54.974,17.086,48.22-28.351A94.9,94.9,0,0,0,509.2,642.463q-1.745-2.7-3.726-5.236c-.358-.471-.724-.942-1.091-1.4q-1.257-1.6-2.618-3.133l-2.216.689L422.929,657.2l63.159-37.182,1.5-.873a94.957,94.957,0,0,0-72.871-18.325c-1.449.218-2.888.489-4.319.794a95.053,95.053,0,0,0-72.208,68.142l20.07,23.081,7.278,8.386L381.8,719.95l12.688,14.6,11.3,13.01-19.424-14.005L359.1,713.86l-26.737-19.311a94.945,94.945,0,0,0-32.732,114.12Z" transform="translate(-42.472 -122.049)" fill="#2f2e41"/>
    <path id="Path_662" data-name="Path 662" d="M679.224,776.972c5.628-9.346.305-21.361-6.047-30.218S659.023,728.612,659.7,717.74c.986-15.637,18.028-24.1,31.684-31.772a147.336,147.336,0,0,0,28.072-20.489c3.412-3.176,6.728-6.588,8.831-10.742,3.028-5.986,3.281-12.95,3.421-19.669q.672-33.526-.2-67.069Z" transform="translate(-89.272 -118.023)" fill="#2f2e41"/>
    <path id="Path_663" data-name="Path 663" d="M1096.3,524.13q4.93,11.152,9.677,22.382,8.3,19.668,16.012,39.573c2.426,6.257,4.843,12.792,4.363,19.485-.367,4.651-2.129,9.067-4.084,13.3l-.183.4q-2.277,4.9-4.9,9.6a146.042,146.042,0,0,1-9.712,15.166q-1.632,2.251-3.359,4.433c-4.485,5.681-9.6,11.8-13.255,18.194-2.949,5.113-4.991,10.41-5.1,15.812a21.548,21.548,0,0,0,1.143,7.435c3.49,10.323,14.258,15.925,23.508,21.7a49.817,49.817,0,0,1,11.745,9.852" transform="translate(-143.552 -112.434)" fill="none" stroke="#2f2e41" stroke-miterlimit="10" stroke-width="4"/>
    <circle id="Ellipse_205" data-name="Ellipse 205" cx="24.433" cy="24.433" r="24.433" transform="translate(929.083 386.896)" fill="#2f2e41"/>
    <circle id="Ellipse_206" data-name="Ellipse 206" cx="24.433" cy="24.433" r="24.433" transform="translate(972.268 427.621)" fill="#2f2e41"/>
    <circle id="Ellipse_207" data-name="Ellipse 207" cx="24.433" cy="24.433" r="24.433" transform="translate(929.729 484.768)" fill="#2f2e41"/>
    <circle id="Ellipse_208" data-name="Ellipse 208" cx="24.433" cy="24.433" r="24.433" transform="translate(942.155 544.76)" fill="#2f2e41"/>
    <path id="Path_664" data-name="Path 664" d="M860.452,681.268c1.641-10.777-7.854-19.861-17.094-25.637s-20.035-11.353-23.525-21.711c-5.035-14.834,7.5-29.136,17.208-41.431A146.979,146.979,0,0,0,855.2,562.82c1.955-4.232,3.717-8.648,4.084-13.29.524-6.693-1.894-13.229-4.363-19.485q-12.1-31.283-25.69-61.955" transform="translate(-109.529 -105.295)" fill="none" stroke="#2f2e41" stroke-miterlimit="10" stroke-width="4"/>
    <circle id="Ellipse_209" data-name="Ellipse 209" cx="24.433" cy="24.433" r="24.433" transform="translate(696.097 338.03)" fill="#2f2e41"/>
    <circle id="Ellipse_210" data-name="Ellipse 210" cx="24.433" cy="24.433" r="24.433" transform="translate(739.282 378.755)" fill="#2f2e41"/>
    <circle id="Ellipse_211" data-name="Ellipse 211" cx="24.433" cy="24.433" r="24.433" transform="translate(696.742 435.902)" fill="#2f2e41"/>
    <circle id="Ellipse_212" data-name="Ellipse 212" cx="24.433" cy="24.433" r="24.433" transform="translate(709.168 495.894)" fill="#2f2e41"/>
    <path id="Path_665" data-name="Path 665" d="M375.818,605.461c2.548-3.831.541-9-1.963-12.853s-5.62-7.906-5.122-12.478c.707-6.571,8.054-9.808,13.962-12.784a61.962,61.962,0,0,0,12.216-8.089,16.834,16.834,0,0,0,3.936-4.363c1.387-2.469,1.623-5.4,1.815-8.22q.942-14.119,1.2-28.264" transform="translate(-52.203 -111.706)" fill="none" stroke="#3f3d56" stroke-miterlimit="10" stroke-width="4"/>
    <circle id="Ellipse_213" data-name="Ellipse 213" cx="10.305" cy="10.305" r="10.305" transform="translate(339.715 396.399)" fill="#3f3d56"/>
    <circle id="Ellipse_214" data-name="Ellipse 214" cx="10.305" cy="10.305" r="10.305" transform="translate(348.973 419.663)" fill="#3f3d56"/>
    <circle id="Ellipse_215" data-name="Ellipse 215" cx="10.305" cy="10.305" r="10.305" transform="translate(322.533 433.939)" fill="#3f3d56"/>
    <circle id="Ellipse_216" data-name="Ellipse 216" cx="10.305" cy="10.305" r="10.305" transform="translate(316.6 459.087)" fill="#3f3d56"/>
    <path id="Path_666" data-name="Path 666" d="M899.485,373.789c-1.335-7.408-.672-15.393-4.066-22.086a4.9,4.9,0,0,0-1.545-1.981,5.341,5.341,0,0,0-2.766-.628q-4.59-.2-9.206-.087a2.565,2.565,0,0,0-2.312.873,1.752,1.752,0,0,0-.122.262c-3.49-3.927-6.178-8.813-9.965-12.443.541-.175,1.082-.349,1.632-.5-.052-.366-.122-.733-.2-1.091l-.087-.323c-.061-.253-.131-.5-.2-.742s-.087-.236-.122-.358-.148-.462-.236-.689l-.148-.358c-.087-.227-.175-.454-.279-.672s-.1-.218-.148-.332l-.332-.7c0-.1-.1-.183-.14-.279-.131-.253-.253-.5-.384-.733l-.131-.236-.445-.785-.087-.148c-.175-.3-.349-.593-.532-.873h0c-1.483-2.426-3.124-4.8-4.319-7.269-2.12-4.363-2.818-9.285-4.223-13.962s-3.848-9.372-8.115-11.579c-2.024-1.047-4.756-1.963-4.939-4.267a4.925,4.925,0,0,1,.445-2.138,27.561,27.561,0,0,1,2.12-4.285c.3-.506.628-1,.96-1.483.079-.122.166-.236.253-.358.262-.367.532-.716.8-1.065l.34-.428c.279-.332.558-.654.873-.969l.34-.384c.4-.428.812-.873,1.239-1.248a2.907,2.907,0,0,0,.873-1.152,3.492,3.492,0,0,0,.07-1.37c-.209-3.709,1.745-7.173,3.918-10.157s4.695-5.82,5.925-9.311c.14-.4.262-.811.366-1.213a2.288,2.288,0,0,1,.087-.41c.026-.14.122-.55.174-.82s.044-.323.07-.48.07-.515.1-.768a3.219,3.219,0,0,0,0-.506v-2.522a3.7,3.7,0,0,0-.07-.82c-.07-.271,0-.3-.044-.445q-.052-.471-.131-.942v-.314c-.07-.436-.148-.873-.236-1.291h0a66,66,0,0,0-2.382-8.107,28.894,28.894,0,0,0-1.972-4.73c.48-.087.96-.2,1.449-.332-.305-.558-.786-1.213-1.056-1.841a48.218,48.218,0,0,0,6.632-14.389,64.312,64.312,0,0,0,1.361-11.126c.724-11.23,1.44-22.522.515-33.735v-.445a27.755,27.755,0,0,0,.07-7.269c-.463-4.695-1.562-9.433-4.075-13.4s-6.676-7.47-11.292-7.941a16.751,16.751,0,0,1-2.522,2.33,9.9,9.9,0,0,1-2.932-4.572,24.922,24.922,0,0,0,20.9-21.815c.052-.41.087-.82.114-1.23v-3.56a3.824,3.824,0,0,0-.07-.873v-.3a4.572,4.572,0,0,0-.122-.873v-.192c-.052-.332-.114-.654-.175-.977a.442.442,0,0,1,0-.1c-.07-.349-.148-.689-.236-1.038h0a25.3,25.3,0,0,0-2.74-6.719,25.3,25.3,0,0,0,1.972-7.216c.052-.454.1-.873.122-1.344V92.6a25.305,25.305,0,0,0-6.981-16.684,15.51,15.51,0,0,0,1.239-2.67h0c.1-.271.183-.541.271-.82h0c.079-.262.148-.524.209-.794v-.07c.061-.244.1-.489.157-.742v-.131c.052-.288.1-.576.131-.873s.061-.611.079-.873V66.806a15.349,15.349,0,0,0-30.594-.7,15.842,15.842,0,0,0,.14,4.73,25.035,25.035,0,0,0-13.962,19.6,25.39,25.39,0,0,0-.148,4.215,25.306,25.306,0,0,0-3.927,11.658h0v.471c0,.524-.061,1.047-.061,1.579a25.2,25.2,0,0,0,9.7,19.939,17.642,17.642,0,0,0,4.9,5.166,20.146,20.146,0,0,1,.785,3.246,9.95,9.95,0,0,1-2.975,8.054c-.567.471-1.2.873-1.745,1.318a3.185,3.185,0,0,0-1.806.044c-6.693,2.1-13.089,6.265-16.187,12.653a24.128,24.128,0,0,0-1.606,4.511c-.122.183-.253.366-.366.558a65.1,65.1,0,0,0-8.7,20.829c-.872,3.778-1.37,7.705-3.132,11.143a10.944,10.944,0,0,0-1.021,2.26,23.117,23.117,0,0,0-.157,3.656c-.183,2.208-1.466,4.162-1.894,6.335-.262,1.291-.209,2.618-.436,3.927-.4,2.277-1.632,4.3-2.417,6.466-1.387,3.813-1.37,8-2.391,11.937a4.109,4.109,0,0,1-.8,1.745c-.7.777-1.8.96-2.705,1.457a5.96,5.96,0,0,0-2.714,4.066,18.126,18.126,0,0,0-.087,5.052l.506,6.588c-2.461.733-4.913,1.483-7.365,2.234l-12.1,3.7c-3.491,1.065-7.033,2.164-10.044,4.241a18.326,18.326,0,0,0-6.326,7.679A38.313,38.313,0,0,0,741.22,277.2c-1.387,9.6-3.072,19.2-6.222,28.281-.244.707-.506,1.414-.768,2.12h0c-.262.7-.541,1.387-.82,2.077l-.183.419c-.227.559-.454,1.108-.7,1.649-.314.7-.628,1.4-.969,2.077l28.307,9.485a9.291,9.291,0,0,0,.122,1.108c.977,6.981.506,14.014,1.413,20.943a13.625,13.625,0,0,0,.786,3.394,4.817,4.817,0,0,0-1.484,2.365,12.617,12.617,0,0,0-.148,4.511q.489,5.323.96,10.672a16.352,16.352,0,0,1,.044,3.918c-.358,2.347-1.693,4.407-2.443,6.658s-.7,5.122,1.161,6.553a4.607,4.607,0,0,0,4.459.4,10.375,10.375,0,0,0,3.691-2.853c5.707-6.318,8.255-14.878,12.7-22.182a42.9,42.9,0,0,0,3.028-5.288c.611-1.414.995-2.915,1.492-4.363a42.555,42.555,0,0,1,2.443-5.7c.524-1.047,2.548-3.578,2.12-4.756-.724-2-8.5-3.778-10.419-4.363a5.1,5.1,0,0,0-3.8-.175,2.509,2.509,0,0,0-.515.34c-.218-2.862-.445-5.724-.663-8.578,1.152-.1,2.295-.253,3.429-.436q-.065-2.422-.113-4.869l-.1-4.476c-.079-3.621-.157-7.251-.253-10.829a58.143,58.143,0,0,0-.4-6.283c-.445-3.194-1.414-6.3-1.745-9.5a3.6,3.6,0,0,1,1.606-.733h0a11.057,11.057,0,0,1,2.749-.1h.724c4,.122,7.906-1.291,11.466-3.159s6.867-4.189,10.41-6.108c.436-.236.873-.462,1.335-.689l.489-.244.829-.41.689-.332.157-.079c2.068-.986,4.154-1.946,6.108-3.019a6.217,6.217,0,0,0,.436.628,4.1,4.1,0,0,0,4.363,1.571c-2.443,5.908-5.323,11.623-6.056,18.011-1.065,9.215,2.618,18.237,6.239,26.754l11.545,27.217c1.274,3.01,2.975,6.387,6.108,7.1,1.955.445,3.979-.3,5.794-1.161,5.236-2.513,10.035-6.108,14.834-9.494a1.62,1.62,0,0,1,.192.148c4.363,3.447,7.112,8.272,10.131,12.871l8.1,13.29a3.864,3.864,0,0,0,.323,1.955,11.353,11.353,0,0,0,2.269,2.941,38.316,38.316,0,0,1,9.73,19.913c.3,1.885.5,3.892,1.606,5.436,2.173,3.01,6.789,2.819,10.052,1.1a6.555,6.555,0,0,0,2.513-2.077,8.318,8.318,0,0,0,1.021-3.15,44.151,44.151,0,0,0,.969-8.351C902.373,384.078,900.41,379.008,899.485,373.789ZM853.062,129.267c.559-.375,1.1-.785,1.632-1.213a25.071,25.071,0,0,1-5.236,8.9h0c-.55.6-1.134,1.169-1.745,1.745v-.41c-.07-1.335,0-2.74.044-4.119a17.643,17.643,0,0,0,5.306-4.9Zm-45.829,102.4a.827.827,0,0,1,.1-.253,5.39,5.39,0,0,1,1.178,1.222,4.86,4.86,0,0,0,.174,4.363c.681,1.152,1.9,2.216,1.632,3.49s-1.92,1.824-3.272,2.042c-1.745.279-3.49.611-5.236.969v-.1a13.5,13.5,0,0,0-.594-4.319C804.2,237.855,806.063,234.766,807.233,231.668Z" transform="translate(-98.431 -52.33)" fill="url(#linear-gradient-2)"/>
    <path id="Path_667" data-name="Path 667" d="M873.4,81.314a15.4,15.4,0,1,0-28.534-9.721,15.664,15.664,0,0,0,.14,4.66,24.747,24.747,0,0,0-13.918,19.372,25.565,25.565,0,0,0-.148,4.154,24.756,24.756,0,1,0,45.506,13.508q0-.585,0-1.178a24.764,24.764,0,0,0-3.019-30.794Z" transform="translate(-110.58 -53.06)" fill="#13b3be"/>
    <g id="Group_262" data-name="Group 262" transform="translate(716.324 18.35)" opacity="0.1">
      <path id="Path_668" data-name="Path 668" d="M847.41,74.3l.2-.1a6.479,6.479,0,0,0-.113-.812v.166A4.391,4.391,0,0,0,847.41,74.3Z" transform="translate(-829.513 -73.363)"/>
      <path id="Path_669" data-name="Path 669" d="M880.216,103.167a24.641,24.641,0,0,1-3.831,10.55V114.9a24.756,24.756,0,0,1-49.4,1.963c-.052.663-.087,1.335-.087,2.016a24.762,24.762,0,1,0,49.525,0c0-.39,0-.782,0-1.178a24.643,24.643,0,0,0,3.8-10.506,24.014,24.014,0,0,0,.087-5A4.627,4.627,0,0,1,880.216,103.167Z" transform="translate(-826.9 -77.033)"/>
      <path id="Path_670" data-name="Path 670" d="M882.213,73.36a15.453,15.453,0,0,1-2.033,5.89,12.524,12.524,0,0,1,1.239,1.387,15.419,15.419,0,0,0,.812-3.394,15.622,15.622,0,0,0-.017-3.883Z" transform="translate(-833.687 -73.36)"/>
    </g>
    <path id="Path_671" data-name="Path 671" d="M765.612,385.435a11.209,11.209,0,0,0,1.126,4.058,4.459,4.459,0,0,0,3.281,2.4,6.676,6.676,0,0,0,3.621-1.047c2.2-1.152,4.494-2.487,5.637-4.695s.96-4.686.768-7.086L778.57,360.19c-3.569-.1-7.156-.1-10.716.1s-4.145,1.021-3.656,4.468C765.176,371.613,764.7,378.576,765.612,385.435Z" transform="translate(-102.57 -91.541)" fill="#fbbebe"/>
    <path id="Path_672" data-name="Path 672" d="M883.841,400.426l8.482,13.709a3.42,3.42,0,0,0,1.85,1.745,2.942,2.942,0,0,0,1.745-.314c2.827-1.23,4.991-3.586,7.077-5.864,1.4-1.553,2.862-3.185,3.394-5.236a6.65,6.65,0,0,0-1.693-6.248,21.494,21.494,0,0,0-3.2-2.286c-6.71-4.52-9.738-13.089-16.353-17.766a2.618,2.618,0,0,0-1.344-.576,2.767,2.767,0,0,0-1.379.462l-9.049,4.965c-3.918,2.138-2.679,2.391.3,4.7C878.082,391.133,880.813,395.889,883.841,400.426Z" transform="translate(-116.182 -93.766)" fill="#fbbebe"/>
    <path id="Path_673" data-name="Path 673" d="M783.846,376.551a5.233,5.233,0,0,0-3.8-.174,4.188,4.188,0,0,0-1.981,3.133c-.236,1.257-.209,2.565-.558,3.8-.593,2.086-2.173,3.709-3.7,5.236a5.472,5.472,0,0,1-2.33,1.614c-1.222.314-2.522-.253-3.77,0a4.075,4.075,0,0,0-2.967,3.028,11.858,11.858,0,0,0-.148,4.442l.96,10.524a15.911,15.911,0,0,1,0,3.866c-.358,2.312-1.7,4.363-2.443,6.562s-.707,5.052,1.161,6.466a4.686,4.686,0,0,0,4.468.393,10.471,10.471,0,0,0,3.7-2.81c5.715-6.23,8.263-14.677,12.705-21.868a42.755,42.755,0,0,0,3.045-5.236c.6-1.4.995-2.88,1.483-4.363a43.347,43.347,0,0,1,2.452-5.611c.532-1.038,2.548-3.49,2.129-4.695C793.567,378.907,785.774,377.162,783.846,376.551Z" transform="translate(-102.392 -93.574)" fill="#2f2e41"/>
    <path id="Path_674" data-name="Path 674" d="M903.723,407.751a10.873,10.873,0,0,1-6,5.157,5.462,5.462,0,0,0-2.025,1.056,3.176,3.176,0,0,0-.358,3.49,11.223,11.223,0,0,0,2.278,2.88,37.52,37.52,0,0,1,9.747,19.634c.3,1.859.5,3.831,1.614,5.358,2.173,2.967,6.8,2.775,10.061,1.082a6.51,6.51,0,0,0,2.522-2.042,8.158,8.158,0,0,0,1.021-3.106,43.049,43.049,0,0,0,.969-8.237c-.061-5.236-2.024-10.236-2.967-15.384-1.335-7.3-.663-15.175-4.066-21.772a4.834,4.834,0,0,0-1.553-1.955,5.42,5.42,0,0,0-2.766-.62c-3.072-.131-6.152-.157-9.223-.078a2.559,2.559,0,0,0-2.321.873,2.7,2.7,0,0,0,.349,2.5C902.9,400.308,905.992,403.283,903.723,407.751Z" transform="translate(-119.248 -95.751)" fill="#2f2e41"/>
    <path id="Path_675" data-name="Path 675" d="M809.929,259.1a4.73,4.73,0,0,0-1.108,5.986c.681,1.134,1.9,2.182,1.632,3.49s-1.928,1.8-3.281,2.016c-11.911,1.894-23.508,5.384-35.061,8.857L759.99,283.1c-3.49,1.056-7.051,2.138-10.07,4.188a18.108,18.108,0,0,0-6.335,7.566,37.766,37.766,0,0,0-2.356,9.887c-1.815,12.391-4.136,24.9-9.668,36.126l29.4,9.6a42.275,42.275,0,0,0,8.8,2.216,32.9,32.9,0,0,0,8.578-.41c-.183-6.562-.3-13.325-.48-19.887a54.45,54.45,0,0,0-.4-6.2c-.436-3.141-1.413-6.2-1.745-9.363,1.353-1.117,3.325-.873,5.079-.794a23.845,23.845,0,0,0,11.492-3.115c3.56-1.841,6.885-4.127,10.471-5.995,5.908-3.124,12.627-5.236,17.138-10.166-2.295,8.726-7.723,16.388-8.726,25.375s2.618,17.976,6.248,26.379l11.571,26.833c1.274,2.967,2.975,6.292,6.108,6.981,1.963.445,3.988-.3,5.812-1.143,10.637-4.991,19.2-14.354,30.541-17.356-.873-5.628-5.288-10.279-7.81-15.384-2.12-4.3-2.818-9.145-4.232-13.735s-3.848-9.232-8.124-11.414c-2.024-1.03-4.765-1.928-4.956-4.206a4.853,4.853,0,0,1,.454-2.112,27.678,27.678,0,0,1,6.92-10.07,3.079,3.079,0,0,0,.873-1.134,3.352,3.352,0,0,0,.07-1.353c-.218-3.656,1.745-7.077,3.927-10.009s4.7-5.733,5.934-9.18c2.112-5.934,0-12.443-2.077-18.377-.873-2.4-1.745-4.878-3.491-6.737-2.722-2.915-6.981-3.752-10.934-4.189C835.156,254.544,820.077,251.185,809.929,259.1Z" transform="translate(-98.431 -78.025)" fill="#2f2e41"/>
    <g id="Group_263" data-name="Group 263" transform="translate(633.086 180.708)" opacity="0.1">
      <path id="Path_676" data-name="Path 676" d="M875.273,288.1c-2.19,2.941-4.145,6.353-3.927,10.009a3.354,3.354,0,0,1-.07,1.353,3.109,3.109,0,0,1-.873,1.143,27.61,27.61,0,0,0-6.92,10.07,4.826,4.826,0,0,0-.454,2.112c.122,1.422,1.248,2.312,2.618,3.028a27.573,27.573,0,0,1,4.8-5.846,3.084,3.084,0,0,0,.873-1.134,3.354,3.354,0,0,0,.07-1.353c-.218-3.656,1.745-7.077,3.927-10.009s4.7-5.733,5.934-9.18a19.147,19.147,0,0,0,.314-10.384c-.1.34-.2.681-.314,1.012C879.976,282.352,877.454,285.161,875.273,288.1Z" transform="translate(-748.264 -261.775)"/>
      <path id="Path_677" data-name="Path 677" d="M819.84,261.558a2.47,2.47,0,0,0,1.885-1.632,1.667,1.667,0,0,0,0-.506c-.183.14-.367.262-.55.41A4.365,4.365,0,0,0,819.84,261.558Z" transform="translate(-742.762 -259.42)"/>
      <path id="Path_678" data-name="Path 678" d="M769.756,354.8a43.4,43.4,0,0,1-8.8-2.216L735,344.08a77.083,77.083,0,0,1-3.49,8.237l29.4,9.6a42.28,42.28,0,0,0,8.8,2.216,32.9,32.9,0,0,0,8.578-.41c-.087-3.08-.157-6.213-.227-9.337A32.288,32.288,0,0,1,769.756,354.8Z" transform="translate(-731.51 -270.205)"/>
      <path id="Path_679" data-name="Path 679" d="M852.441,381.557c-1.824.873-3.848,1.588-5.812,1.152-3.141-.707-4.843-4.04-6.108-6.981l-11.571-26.833c-2.539-5.9-5.113-12.042-6.056-18.325-.07.445-.14.873-.192,1.326-1.064,9.084,2.618,17.976,6.248,26.379l11.571,26.833c1.274,2.967,2.976,6.292,6.108,6.981,1.963.445,3.988-.3,5.812-1.143,10.637-4.991,19.2-14.354,30.541-17.356a22,22,0,0,0-3.49-8.211C869.789,369.157,861.961,377.124,852.441,381.557Z" transform="translate(-743.103 -268.484)"/>
      <path id="Path_680" data-name="Path 680" d="M826.32,292.27c-4.511,4.93-11.231,7.033-17.138,10.157-3.543,1.876-6.859,4.162-10.471,6s-7.478,3.229-11.492,3.115c-1.745-.052-3.726-.332-5.078.785.279,2.923,1.126,5.75,1.606,8.648a15.362,15.362,0,0,1,3.49-.07,23.846,23.846,0,0,0,11.492-3.115c3.56-1.841,6.885-4.127,10.471-5.995,3.892-2.059,8.133-3.682,11.867-5.951C822.934,301.389,825.081,296.991,826.32,292.27Z" transform="translate(-737.96 -263.605)"/>
    </g>
    <path id="Path_681" data-name="Path 681" d="M843.572,151.859c.148,2.923-.733,6.056-2.984,7.932-.724.6-1.562,1.065-2.26,1.693a6.108,6.108,0,0,0,.873,9.258c2.33,1.431,5.305,1.047,8,.576a47.027,47.027,0,0,0,10.471-2.74,17.451,17.451,0,0,0,8.29-6.789c-2.941-1.632-4.538-5.079-4.721-8.429s.742-7.182-1.387-9.791-5.846-2.522-8.944-1.649c-1.571.436-3.089,1.03-4.66,1.457-.794.209-3.429.218-3.944.8C841.312,145.262,843.476,150.157,843.572,151.859Z" transform="translate(-111.812 -63.674)" fill="#fbbebe"/>
    <path id="Path_682" data-name="Path 682" d="M843.572,151.859c.148,2.923-.733,6.056-2.984,7.932-.724.6-1.562,1.065-2.26,1.693a6.108,6.108,0,0,0,.873,9.258c2.33,1.431,5.305,1.047,8,.576a47.027,47.027,0,0,0,10.471-2.74,17.451,17.451,0,0,0,8.29-6.789c-2.941-1.632-4.538-5.079-4.721-8.429s.742-7.182-1.387-9.791-5.846-2.522-8.944-1.649c-1.571.436-3.089,1.03-4.66,1.457-.794.209-3.429.218-3.944.8C841.312,145.262,843.476,150.157,843.572,151.859Z" transform="translate(-111.812 -63.674)" opacity="0.1"/>
    <circle id="Ellipse_217" data-name="Ellipse 217" cx="17.4" cy="17.4" r="17.4" transform="translate(723.366 53.194)" fill="#fbbebe"/>
    <path id="Path_683" data-name="Path 683" d="M791.421,285.127a11.778,11.778,0,0,1-1.641,3.866,18.177,18.177,0,0,0-2.077,11.876,12.557,12.557,0,0,0,7.321,9.241c1.623.646,3.639.811,4.983-.314-2.321-3.019-2.443-7.147-2.3-10.96a3.611,3.611,0,0,1,.489-2.033,1.274,1.274,0,0,1,1.832-.332,16.579,16.579,0,0,0,1.361,6.981c.366.873.995,1.745,1.92,1.745,1.326,0,1.684-1.832,1.632-3.159-.2-5.393-.471-11.012-3.072-15.751-.951-1.745-2.216-3.351-2.618-5.3a3.141,3.141,0,0,0-.663-1.859,2.34,2.34,0,0,0-.977-.454c-1.5-.428-5.044-1.745-6.283-.34S791.622,283.329,791.421,285.127Z" transform="translate(-105.552 -81.042)" fill="#fbbebe"/>
    <path id="Path_684" data-name="Path 684" d="M817,180.267c-1.99-.218-3.569,1.606-4.66,3.29a63.589,63.589,0,0,0-8.665,20.532c-.873,3.726-1.37,7.592-3.141,10.977a11.445,11.445,0,0,0-1.021,2.234,22.461,22.461,0,0,0-.157,3.6c-.183,2.173-1.466,4.1-1.9,6.248-.253,1.274-.2,2.618-.427,3.874-.4,2.243-1.632,4.232-2.426,6.37-1.387,3.761-1.37,7.853-2.391,11.771a4.067,4.067,0,0,1-.812,1.745c-.689.759-1.8.951-2.705,1.431a5.872,5.872,0,0,0-2.714,4.014,17.636,17.636,0,0,0-.1,4.983l.8,10.288c.82-.34,1.361-1.274,2.051-1.85,1.256-1.047,3.106-.812,4.712-.515l2.347.419c2.4.436,5.009.995,6.545,2.88,1.222-1.911.524-4.73,2.4-6a17.79,17.79,0,0,1,2.016-.873,4.52,4.52,0,0,0,2.051-3.613,13.212,13.212,0,0,0-.594-4.267c3.011-1.265,4.887-4.319,6.108-7.365a61.664,61.664,0,0,0,2.8-11.344c2.714-15.3,5.236-30.7,5.454-46.248a22.189,22.189,0,0,0-.873-7.705C820.82,182.65,819.581,180.564,817,180.267Z" transform="translate(-105.334 -68.627)" fill="#ffd88a"/>
    <path id="Path_685" data-name="Path 685" d="M817,180.267c-1.99-.218-3.569,1.606-4.66,3.29a63.589,63.589,0,0,0-8.665,20.532c-.873,3.726-1.37,7.592-3.141,10.977a11.445,11.445,0,0,0-1.021,2.234,22.461,22.461,0,0,0-.157,3.6c-.183,2.173-1.466,4.1-1.9,6.248-.253,1.274-.2,2.618-.427,3.874-.4,2.243-1.632,4.232-2.426,6.37-1.387,3.761-1.37,7.853-2.391,11.771a4.067,4.067,0,0,1-.812,1.745c-.689.759-1.8.951-2.705,1.431a5.872,5.872,0,0,0-2.714,4.014,17.636,17.636,0,0,0-.1,4.983l.8,10.288c.82-.34,1.361-1.274,2.051-1.85,1.256-1.047,3.106-.812,4.712-.515l2.347.419c2.4.436,5.009.995,6.545,2.88,1.222-1.911.524-4.73,2.4-6a17.79,17.79,0,0,1,2.016-.873,4.52,4.52,0,0,0,2.051-3.613,13.212,13.212,0,0,0-.594-4.267c3.011-1.265,4.887-4.319,6.108-7.365a61.664,61.664,0,0,0,2.8-11.344c2.714-15.3,5.236-30.7,5.454-46.248a22.189,22.189,0,0,0-.873-7.705C820.82,182.65,819.581,180.564,817,180.267Z" transform="translate(-105.334 -68.627)" fill="#2f2e41" opacity="0.1"/>
    <path id="Path_686" data-name="Path 686" d="M864.329,161.19a21.886,21.886,0,0,1-10.585,6.108,64.966,64.966,0,0,1-12.217,1.806,7.6,7.6,0,0,1-3.787-.332,2.606,2.606,0,0,1-1.579-3.1,3.431,3.431,0,0,0,.393-1.161c0-1.056-1.579-1.143-2.618-.829-6.7,2.068-13.089,6.169-16.213,12.461-1.745,3.56-2.321,7.557-2.88,11.475-1.448,10.314-2.906,20.855-.951,31.082,1.038,5.454,3.045,10.777,3.167,16.326.07,3.115-.454,6.213-.427,9.328a4.677,4.677,0,0,0,.82,3.072c.48.559,1.213.916,1.544,1.571.559,1.1-.192,2.618.55,3.6.873,1.213,2.818.34,4.066-.515a32.383,32.383,0,0,1,21.536-5.428c9.119.986,18.177,5.838,27.051,3.412a12.222,12.222,0,0,1-1.178-2.1c-4.363-14.494-4.11-30.69,2.487-44.32,2.26-4.66,5.236-9.1,6.108-14.2a26.94,26.94,0,0,0,.087-7.208,29.809,29.809,0,0,0-4.084-13.22C873.107,165.108,868.962,161.644,864.329,161.19Z" transform="translate(-108.799 -66.199)" fill="#ffd88a"/>
    <path id="Path_687" data-name="Path 687" d="M823.441,290.549a16.029,16.029,0,0,0-1,5.925,34.658,34.658,0,0,0,.288,5.785,9.19,9.19,0,0,0,1.693,4.538,4.145,4.145,0,0,0,4.363,1.545,4.547,4.547,0,0,0,2.618-2.914,26.4,26.4,0,0,0,.82-3.962c.768-3.953,2.836-7.661,2.88-11.684a3.317,3.317,0,0,0-.227-1.4c-.75-1.658-4.45-3.49-6.257-3.229C826.346,285.505,824.261,288.647,823.441,290.549Z" transform="translate(-110.005 -81.988)" fill="#fbbebe"/>
    <path id="Path_688" data-name="Path 688" d="M873.752,178c-.34,3.49,3,6.065,4.363,9.285a15.615,15.615,0,0,1,.873,4.668c.934,11.056.209,22.182-.515,33.264a62.435,62.435,0,0,1-1.344,10.977c-1.868,7.574-6.466,14.128-10.969,20.5a17.738,17.738,0,0,1-2.347,2.871,17.554,17.554,0,0,1-4.363,2.618l-15.48,7.531a29.772,29.772,0,0,0-5.489,3.159,14.974,14.974,0,0,0-4.546,5.908c-2.993-1.527-6.108-2.906-9.1-4.433-.707-.358-1.492-.873-1.606-1.606-.166-1.047.925-1.745,1.675-2.531,1.4-1.387,1.841-3.447,2.618-5.236,2.487-5.969,8.726-9.782,10.995-15.838.873-2.321,1.134-4.948,2.67-6.9a17.159,17.159,0,0,1,2.949-2.618,49.817,49.817,0,0,0,6.527-6.693A11.344,11.344,0,0,0,852.8,229.8c.681-1.745.48-3.639.515-5.48.114-6.038,2.845-11.675,4.52-17.452,1.571-5.463,2.225-11.2,4.293-16.5S868.245,179.44,873.752,178Z" transform="translate(-110.106 -68.34)" opacity="0.1"/>
    <path id="Path_689" data-name="Path 689" d="M876.054,178c-.34,3.49,3,6.065,4.363,9.285a15.607,15.607,0,0,1,.873,4.668c.934,11.056.21,22.182-.515,33.264a62.4,62.4,0,0,1-1.361,10.96c-1.867,7.574-6.466,14.128-10.969,20.5a17.734,17.734,0,0,1-2.347,2.871,17.556,17.556,0,0,1-4.363,2.618l-15.445,7.487a29.772,29.772,0,0,0-5.489,3.159,14.974,14.974,0,0,0-4.546,5.908c-2.993-1.527-6.108-2.906-9.1-4.433-.707-.358-1.492-.873-1.606-1.606-.166-1.047.925-1.745,1.675-2.531,1.4-1.387,1.841-3.447,2.618-5.236,2.487-5.969,8.726-9.782,10.995-15.838.873-2.321,1.134-4.948,2.67-6.9a17.143,17.143,0,0,1,2.949-2.618,50.424,50.424,0,0,0,6.536-6.693,11.274,11.274,0,0,0,2.129-3.124c.681-1.745.48-3.639.515-5.48.113-6.038,2.845-11.676,4.52-17.452,1.571-5.462,2.225-11.2,4.293-16.5S870.548,179.44,876.054,178Z" transform="translate(-110.402 -68.34)" fill="#ffd88a"/>
    <path id="Path_690" data-name="Path 690" d="M862.545,102.393a24.572,24.572,0,0,0-15.445,3.194,16.75,16.75,0,0,1,2.068.157,24.756,24.756,0,0,1,9.511,45.96,24.756,24.756,0,0,0,3.866-49.311Z" transform="translate(-113.15 -58.685)" fill="#13b3be"/>
    <path id="Path_691" data-name="Path 691" d="M868.859,117.067a11.345,11.345,0,0,1,.192,8.674,9.728,9.728,0,0,0-.4-1.056c-3.063-6.815-12.487-9.6-21.056-6.3a17.264,17.264,0,0,0-10.175,9.695c-2.182-6.579,2.251-14.145,10.384-17.3C856.372,107.442,865.779,110.261,868.859,117.067Z" transform="translate(-111.846 -59.598)" fill="#26a1b4"/>
    <g id="Group_264" data-name="Group 264" transform="translate(733.916 7.652)" opacity="0.1">
      <path id="Path_692" data-name="Path 692" d="M870.2,124.391a24.791,24.791,0,0,0-16.58-21.361,24.913,24.913,0,0,0-6.562,2.618,16.748,16.748,0,0,1,2.068.157A24.756,24.756,0,0,1,870.2,124.391Z" transform="translate(-847.06 -66.442)"/>
      <path id="Path_693" data-name="Path 693" d="M874.8,103.683a24.765,24.765,0,0,0-16.58-21.353,24.336,24.336,0,0,0-6.562,2.618,16.748,16.748,0,0,1,2.068.157A24.747,24.747,0,0,1,874.8,103.683Z" transform="translate(-847.646 -63.805)"/>
      <path id="Path_694" data-name="Path 694" d="M876.264,74a14.956,14.956,0,0,0-9.983-12.9,14.722,14.722,0,0,0-3.962,1.658,6.05,6.05,0,0,1,1.248.087A14.948,14.948,0,0,1,876.264,74Z" transform="translate(-849.004 -61.1)"/>
      <path id="Path_695" data-name="Path 695" d="M885.272,123.66a24.747,24.747,0,0,1-19.2,26.178,24.72,24.72,0,0,1-5.724,4.616,24.738,24.738,0,0,0,24.9-30.777Z" transform="translate(-848.753 -69.07)"/>
    </g>
    <path id="Path_696" data-name="Path 696" d="M955.272,115.917a17.731,17.731,0,0,0-10.244,1.117,15.07,15.07,0,0,1-12.3,0,17.278,17.278,0,0,0-14.468.279,8.979,8.979,0,0,1-4.162,1.047c-5.864,0-10.742-5.908-11.754-13.709a11.291,11.291,0,0,0,2.932-3.159C908.71,95.952,914,92.4,920.01,92.4s11.248,3.49,14.686,9a11.344,11.344,0,0,0,9.738,5.349h.157C949.217,106.719,953.257,110.463,955.272,115.917Z" transform="translate(-120.187 -57.435)" fill="#18dfed" opacity="0.1"/>
    <path id="Path_697" data-name="Path 697" d="M973.086,88.277l-9.476,6.012,5.75-10.471a9.329,9.329,0,0,0-5.733-2.051h-.148a10.473,10.473,0,0,1-1.964-.14l-3.22,2.007,1.379-2.5a11.458,11.458,0,0,1-5.62-4.267l-5.768,3.682,3.63-6.606c-3.359-4.031-7.853-6.51-12.88-6.51-5.977,0-11.344,3.552-14.747,9.1a11.03,11.03,0,0,1-9.747,5.236h-.288c-6.6,0-11.955,7.487-11.955,16.719s5.358,16.719,11.955,16.719a8.875,8.875,0,0,0,4.162-1.047,17.278,17.278,0,0,1,14.468-.279,15.271,15.271,0,0,0,6.187,1.326,15.087,15.087,0,0,0,6.108-1.3,17.269,17.269,0,0,1,14.337.279,8.935,8.935,0,0,0,4.119,1.021c6.606,0,11.955-7.487,11.955-16.719a21.249,21.249,0,0,0-2.5-10.21Z" transform="translate(-120.182 -54.254)" fill="#18dfed" opacity="0.1"/>
    <path id="Path_698" data-name="Path 698" d="M1034.96,242.965a25.219,25.219,0,0,0-14.634,1.6,21.562,21.562,0,0,1-17.574,0,24.66,24.66,0,0,0-20.663.4,12.776,12.776,0,0,1-5.951,1.492c-8.377,0-15.349-8.438-16.8-19.573a16.212,16.212,0,0,0,4.189-4.52c4.913-7.915,12.522-12.993,21.065-12.993s16.056,5.017,20.943,12.854a16.17,16.17,0,0,0,13.962,7.644h.218C1026.33,229.824,1032.107,235.173,1034.96,242.965Z" transform="translate(-127.448 -72.336)" fill="#18dfed" opacity="0.1"/>
    <path id="Path_699" data-name="Path 699" d="M1060.434,203.472l-13.543,8.6,8.22-14.956a13.438,13.438,0,0,0-8.194-2.923h-.218a16.722,16.722,0,0,1-2.81-.209l-4.59,2.906,1.972-3.578a16.3,16.3,0,0,1-8.028-6.108l-8.22,5.236,5.236-9.433c-4.808-5.768-11.283-9.311-18.4-9.311-8.543,0-16.152,5.087-21.065,13a15.707,15.707,0,0,1-13.962,7.5h-.463c-9.433,0-17.077,10.7-17.077,23.883s7.644,23.883,17.077,23.883a12.845,12.845,0,0,0,5.951-1.483,24.625,24.625,0,0,1,20.663-.41,21.562,21.562,0,0,0,17.574.044,24.686,24.686,0,0,1,20.489.393,12.784,12.784,0,0,0,5.881,1.457c9.433,0,17.077-10.689,17.077-23.883A30.333,30.333,0,0,0,1060.434,203.472Z" transform="translate(-127.442 -67.791)" fill="#18dfed" opacity="0.1"/>
    <path id="Path_700" data-name="Path 700" d="M698.62,188.917a17.732,17.732,0,0,1,10.245,1.117,15.043,15.043,0,0,0,12.295,0,17.278,17.278,0,0,1,14.468.279,9.005,9.005,0,0,0,4.162,1.047c5.864,0,10.75-5.908,11.763-13.709a11.16,11.16,0,0,1-2.932-3.159c-3.438-5.541-8.726-9.093-14.747-9.093s-11.239,3.49-14.677,9a11.344,11.344,0,0,1-9.773,5.323h-.148C704.632,179.72,700.583,183.463,698.62,188.917Z" transform="translate(-94.234 -66.735)" fill="#18dfed" opacity="0.1"/>
    <path id="Path_701" data-name="Path 701" d="M677.776,161.275l9.476,6.012-5.759-10.471a9.346,9.346,0,0,1,5.733-2.051h.157a10.468,10.468,0,0,0,1.963-.14l3.211,2.033-1.379-2.5a11.475,11.475,0,0,0,5.628-4.267l5.75,3.647-3.639-6.606c3.368-4.031,7.854-6.51,12.889-6.51,5.977,0,11.344,3.552,14.747,9.1a11.021,11.021,0,0,0,9.747,5.236h.314c6.606,0,11.955,7.487,11.955,16.719S743.221,188.2,736.616,188.2a8.927,8.927,0,0,1-4.162-1.047,17.277,17.277,0,0,0-14.468-.279,15.227,15.227,0,0,1-6.178,1.326,15.027,15.027,0,0,1-6.108-1.3,17.286,17.286,0,0,0-14.346.279,8.909,8.909,0,0,1-4.119,1.021c-6.6,0-11.955-7.487-11.955-16.719a21.248,21.248,0,0,1,2.5-10.2Z" transform="translate(-91.261 -63.553)" fill="#18dfed" opacity="0.1"/>
  </g>
</svg>
