<svg xmlns="http://www.w3.org/2000/svg" width="1183" height="537.002" viewBox="0 0 1183 537.002">
  <g id="Group_221" data-name="Group 221" transform="translate(-134.333 -208.333)">
    <path id="Path_126" data-name="Path 126" d="M151.5,331.5" transform="translate(17.061 122.406)" fill="#fff" stroke="#000" stroke-miterlimit="10" stroke-width="1"/>
    <rect id="Rectangle_108" data-name="Rectangle 108" width="1183" height="537.002" transform="translate(134.333 208.333)" fill="#cddee5"/>
    <g id="Group_124" data-name="Group 124" transform="translate(485.263 432.063)">
      <path id="Path_127" data-name="Path 127" d="M451.843,335.451" transform="translate(-169.716 -305.731)" fill="#fff" stroke="#000" stroke-miterlimit="10" stroke-width="1"/>
      <path id="Path_128" data-name="Path 128" d="M718.933,385.52l-299.721-.736-108.827-64.24,235.27.676Z" transform="translate(-310.299 -320.545)" fill="#afbe0c"/>
      <path id="Path_129" data-name="Path 129" d="M365.247,384.6l.092-31.9,299.071.983-.092,32.035C664.308,388.925,365.247,384.6,365.247,384.6Z" transform="translate(-255.776 -288.585)" fill="#635e49"/>
      <path id="Path_130" data-name="Path 130" d="M310.428,320.545l-.086,29.907,109.471,66.111.092-31.9Z" transform="translate(-310.342 -320.545)" fill="#79877a"/>
    </g>
    <g id="Group_127" data-name="Group 127" transform="translate(485.676 402.765)">
      <g id="Group_125" data-name="Group 125" transform="translate(77.076 38.698)">
        <path id="Path_131" data-name="Path 131" d="M355.456,333.706c28.38,0,63.415,7.216,63.415,7.216l14.459,7.381-17.059,10.858-52.916-8.613s-14.318-8.288-14.148-8.354,6.249-8.488,6.249-8.488" transform="translate(-349.206 -316.865)" fill="#8bdfd8"/>
        <path id="Path_132" data-name="Path 132" d="M417.317,325.259H386.909l123.656,58.947h40.543Z" transform="translate(-311.736 -325.259)" fill="#bcd3c7"/>
        <path id="Path_133" data-name="Path 133" d="M440.732,333.706l79.059,33.684H493.438l-72.977-33.684h20.271" transform="translate(-278.392 -316.864)" fill="#a7bcb1"/>
        <path id="Path_134" data-name="Path 134" d="M656.438,350.6H360.475l14.19,8.421h306.1Z" transform="translate(-338.007 -300.075)" fill="#9ab2a6"/>
      </g>
      <g id="Group_126" data-name="Group 126">
        <path id="Path_135" data-name="Path 135" d="M323.18,305.851h29.473l25.263,14.737,6.316,18.947,10.526,10.526,8.421,6.316H409.5l-42.1,12.631-56.842-33.684Z" transform="translate(-310.549 -305.851)" fill="#aa1"/>
        <path id="Path_136" data-name="Path 136" d="M310.549,335.324c0-2.105,12.631-29.473,12.631-29.473l21.053,16.842,14.736,23.156,8.422,12.633v10.525Z" transform="translate(-310.549 -305.85)" fill="#739b12"/>
        <path id="Path_137" data-name="Path 137" d="M327.021,315.294l34.525-2.052s6.316,21.053,6.316,23.156-16.842,14.738-16.842,14.738Z" transform="translate(-294.179 -298.505)" fill="#afbe0c"/>
        <path id="Path_138" data-name="Path 138" d="M346.358,305.851l25.263,14.737-33.684,2.105-21.052-16.842Z" transform="translate(-304.253 -305.851)" fill="#c1d83d"/>
      </g>
    </g>
    <g id="Group_130" data-name="Group 130" transform="translate(582.108 382.779)">
      <g id="Group_129" data-name="Group 129">
        <path id="Path_139" data-name="Path 139" d="M377.335,313.532v-5.982l-3.359-6.174-5.51-3.3,6.875,17.453Z" transform="translate(-349.422 -293.594)" fill="#739b12"/>
        <g id="Group_128" data-name="Group 128" transform="translate(9.969 21.932)">
          <path id="Path_140" data-name="Path 140" d="M366.415,307.577" transform="translate(-361.43 -306.081)" fill="#947669"/>
          <path id="Path_141" data-name="Path 141" d="M363.915,324.077H367.9l3.988,2.991H367.9Z" transform="translate(-363.915 -289.683)" fill="#947669"/>
          <path id="Path_142" data-name="Path 142" d="M365.915,343.465V307.577H369.9l-.571,35.608Z" transform="translate(-361.927 -306.081)" fill="#947669"/>
          <path id="Path_143" data-name="Path 143" d="M364.182,341.385l3.455,2.826.278-35.912-2.272-1.472Z" transform="translate(-363.649 -306.827)" fill="#9ab2a6"/>
        </g>
        <path id="Path_144" data-name="Path 144" d="M365.443,299.645l1.86,7.612-3.723,10.15s18.61,2.538,16.748,2.538,1.862-7.612,1.862-7.612l-5.583-10.151Z" transform="translate(-354.277 -292.032)" fill="#afbe0c"/>
        <path id="Path_145" data-name="Path 145" d="M378.463,305.978,376.6,300.9l-14.886-5.074s1.322,6.31,1.591,5.692,4.44,2.907,4.44,2.907Z" transform="translate(-356.132 -295.827)" fill="#c1d83d"/>
        <path id="Path_146" data-name="Path 146" d="M360.776,311.052l-1.861-5.075,5.583-10.15,1.861,5.075-5.066,10.307" transform="translate(-358.915 -295.827)" fill="#afbe0c"/>
      </g>
      <path id="Path_147" data-name="Path 147" d="M383.287,321.064,367.956,323.2l-6.247-7.069-.123-.5-1.738-7.11,5.583-10.15,3.722,2.538,1.861,7.613-3.722,10.15,16.253,2.477" transform="translate(-357.987 -293.297)" fill="#739b12"/>
    </g>
    <g id="Group_133" data-name="Group 133" transform="translate(743.608 412.687)">
      <g id="Group_132" data-name="Group 132">
        <path id="Path_148" data-name="Path 148" d="M453.072,323.473V319.2l-2.4-4.41-3.935-2.359,4.911,12.466Z" transform="translate(-433.134 -309.232)" fill="#739b12"/>
        <g id="Group_131" data-name="Group 131" transform="translate(7.121 15.666)">
          <path id="Path_149" data-name="Path 149" d="M445.272,319.22" transform="translate(-441.711 -318.151)" fill="#947669"/>
          <path id="Path_150" data-name="Path 150" d="M443.486,331.005h2.848l2.848,2.136h-2.848Z" transform="translate(-443.486 -306.439)" fill="#947669"/>
          <path id="Path_151" data-name="Path 151" d="M444.915,344.854V319.22h2.848l-.408,25.434Z" transform="translate(-442.066 -318.152)" fill="#947669"/>
          <path id="Path_152" data-name="Path 152" d="M443.677,343.368l2.468,2.019.2-25.652-1.623-1.051Z" transform="translate(-443.296 -318.684)" fill="#9ab2a6"/>
        </g>
        <path id="Path_153" data-name="Path 153" d="M444.578,313.554l1.328,5.437-2.658,7.252s13.293,1.812,11.963,1.812,1.33-5.439,1.33-5.439l-3.988-7.25Z" transform="translate(-436.602 -308.116)" fill="#afbe0c"/>
        <path id="Path_154" data-name="Path 154" d="M453.878,318.077l-1.33-3.625-10.633-3.625s.943,4.506,1.136,4.065,3.172,2.078,3.172,2.078Z" transform="translate(-437.927 -310.826)" fill="#c1d83d"/>
        <path id="Path_155" data-name="Path 155" d="M441.244,321.7l-1.329-3.625,3.988-7.25,1.329,3.625-3.618,7.362" transform="translate(-439.915 -310.827)" fill="#afbe0c"/>
      </g>
      <path id="Path_156" data-name="Path 156" d="M457.324,328.853l-10.951,1.529-4.462-5.049-.088-.359-1.241-5.079,3.988-7.25,2.658,1.813,1.329,5.438-2.658,7.25,11.609,1.769" transform="translate(-439.252 -309.02)" fill="#739b12"/>
    </g>
    <g id="Group_136" data-name="Group 136" transform="translate(500.362 364.835)">
      <g id="Group_135" data-name="Group 135" transform="translate(0)">
        <path id="Path_157" data-name="Path 157" d="M331.072,299.473V295.2l-2.4-4.41-3.936-2.359,4.911,12.466Z" transform="translate(-311.134 -285.232)" fill="#739b12"/>
        <g id="Group_134" data-name="Group 134" transform="translate(7.121 15.666)">
          <path id="Path_158" data-name="Path 158" d="M323.272,295.22" transform="translate(-319.711 -294.151)" fill="#947669"/>
          <path id="Path_159" data-name="Path 159" d="M321.486,307.005h2.848l2.848,2.136h-2.848Z" transform="translate(-321.486 -282.439)" fill="#947669"/>
          <path id="Path_160" data-name="Path 160" d="M322.915,320.854V295.22h2.848l-.408,25.434Z" transform="translate(-320.066 -294.152)" fill="#947669"/>
          <path id="Path_161" data-name="Path 161" d="M321.677,319.368l2.468,2.019.2-25.652-1.623-1.051Z" transform="translate(-321.296 -294.684)" fill="#9ab2a6"/>
        </g>
        <path id="Path_162" data-name="Path 162" d="M322.578,289.554l1.328,5.437-2.658,7.251s13.293,1.812,11.963,1.812,1.33-5.439,1.33-5.439l-3.988-7.25Z" transform="translate(-314.602 -284.116)" fill="#afbe0c"/>
        <path id="Path_163" data-name="Path 163" d="M331.878,294.077l-1.33-3.625-10.633-3.625s.943,4.506,1.136,4.065,3.172,2.077,3.172,2.077Z" transform="translate(-315.927 -286.826)" fill="#c1d83d"/>
        <path id="Path_164" data-name="Path 164" d="M319.244,297.7l-1.329-3.625,3.988-7.25,1.329,3.625-3.618,7.362" transform="translate(-317.915 -286.827)" fill="#afbe0c"/>
      </g>
      <path id="Path_165" data-name="Path 165" d="M335.324,304.853l-10.951,1.529-4.462-5.049-.088-.359-1.241-5.079,3.988-7.25,2.658,1.813,1.329,5.438-2.658,7.25,11.609,1.769" transform="translate(-317.252 -285.02)" fill="#739b12"/>
    </g>
    <g id="Group_139" data-name="Group 139" transform="translate(506.343 364.835)">
      <g id="Group_138" data-name="Group 138">
        <path id="Path_166" data-name="Path 166" d="M334.072,299.473V295.2l-2.4-4.41-3.936-2.359,4.911,12.466Z" transform="translate(-314.134 -285.232)" fill="#739b12"/>
        <g id="Group_137" data-name="Group 137" transform="translate(7.121 15.666)">
          <path id="Path_167" data-name="Path 167" d="M326.272,295.22" transform="translate(-322.711 -294.151)" fill="#947669"/>
          <path id="Path_168" data-name="Path 168" d="M324.486,307.005h2.848l2.848,2.136h-2.848Z" transform="translate(-324.486 -282.439)" fill="#947669"/>
          <path id="Path_169" data-name="Path 169" d="M325.915,320.854V295.22h2.848l-.408,25.434Z" transform="translate(-323.066 -294.152)" fill="#947669"/>
          <path id="Path_170" data-name="Path 170" d="M324.677,319.368l2.468,2.019.2-25.652-1.623-1.051Z" transform="translate(-324.296 -294.684)" fill="#9ab2a6"/>
        </g>
        <path id="Path_171" data-name="Path 171" d="M325.578,289.554l1.328,5.437-2.658,7.251s13.293,1.812,11.963,1.812,1.33-5.439,1.33-5.439l-3.988-7.25Z" transform="translate(-317.602 -284.116)" fill="#afbe0c"/>
        <path id="Path_172" data-name="Path 172" d="M334.878,294.077l-1.33-3.625-10.633-3.625s.943,4.506,1.136,4.065,3.172,2.077,3.172,2.077Z" transform="translate(-318.927 -286.826)" fill="#c1d83d"/>
        <path id="Path_173" data-name="Path 173" d="M322.244,297.7l-1.329-3.625,3.988-7.25,1.329,3.625-3.618,7.362" transform="translate(-320.915 -286.827)" fill="#afbe0c"/>
      </g>
      <path id="Path_174" data-name="Path 174" d="M338.324,304.853l-10.951,1.529-4.462-5.049-.088-.359-1.241-5.079,3.988-7.25,2.658,1.813,1.329,5.438-2.658,7.25,11.609,1.769" transform="translate(-320.252 -285.02)" fill="#739b12"/>
    </g>
    <g id="Group_142" data-name="Group 142" transform="translate(516.312 364.835)">
      <g id="Group_141" data-name="Group 141">
        <path id="Path_175" data-name="Path 175" d="M339.072,299.473V295.2l-2.4-4.41-3.936-2.359,4.911,12.466Z" transform="translate(-319.134 -285.232)" fill="#739b12"/>
        <g id="Group_140" data-name="Group 140" transform="translate(7.121 15.666)">
          <path id="Path_176" data-name="Path 176" d="M331.272,295.22" transform="translate(-327.711 -294.151)" fill="#947669"/>
          <path id="Path_177" data-name="Path 177" d="M329.486,307.005h2.848l2.848,2.136h-2.848Z" transform="translate(-329.486 -282.439)" fill="#947669"/>
          <path id="Path_178" data-name="Path 178" d="M330.915,320.854V295.22h2.848l-.408,25.434Z" transform="translate(-328.066 -294.152)" fill="#947669"/>
          <path id="Path_179" data-name="Path 179" d="M329.677,319.368l2.468,2.019.2-25.652-1.623-1.051Z" transform="translate(-329.296 -294.684)" fill="#9ab2a6"/>
        </g>
        <path id="Path_180" data-name="Path 180" d="M330.578,289.554l1.328,5.437-2.658,7.251s13.293,1.812,11.963,1.812,1.33-5.439,1.33-5.439l-3.988-7.25Z" transform="translate(-322.602 -284.116)" fill="#afbe0c"/>
        <path id="Path_181" data-name="Path 181" d="M339.878,294.077l-1.33-3.625-10.633-3.625s.943,4.506,1.136,4.065,3.172,2.077,3.172,2.077Z" transform="translate(-323.927 -286.826)" fill="#c1d83d"/>
        <path id="Path_182" data-name="Path 182" d="M327.244,297.7l-1.329-3.625,3.988-7.25,1.329,3.625-3.618,7.362" transform="translate(-325.915 -286.827)" fill="#afbe0c"/>
      </g>
      <path id="Path_183" data-name="Path 183" d="M343.324,304.853l-10.951,1.529-4.462-5.049-.088-.359-1.241-5.079,3.988-7.25,2.658,1.813,1.329,5.438-2.658,7.25,11.609,1.769" transform="translate(-325.252 -285.02)" fill="#739b12"/>
    </g>
    <path id="Path_184" data-name="Path 184" d="M506.081,307.209" transform="translate(369.45 98.265)" fill="#9e726c"/>
    <g id="Group_143" data-name="Group 143" transform="translate(617.19 397.912)">
      <path id="Path_185" data-name="Path 185" d="M376.51,305.251l45.732,1.829,1.829,7.317L394.8,312.569Z" transform="translate(-376.51 -301.593)" fill="#d2d099"/>
      <path id="Path_186" data-name="Path 186" d="M414.953,340.019V310.751l-29.269-1.829v31.1h29.269Z" transform="translate(-367.392 -297.945)" fill="#845753"/>
      <path id="Path_187" data-name="Path 187" d="M378.339,336.349l.22.1,16.243,7.219v-31.1l-18.293-7.317Z" transform="translate(-376.51 -301.593)" fill="#9ab2a6"/>
      <path id="Path_188" data-name="Path 188" d="M400.364,309.839" transform="translate(-352.803 -297.033)" fill="#9ab2a6"/>
      <path id="Path_189" data-name="Path 189" d="M389.209,316.261H409.47v16.421c0,.042-21.95.042-21.95.042V316.261Z" transform="translate(-365.568 -290.651)" fill="#918381"/>
      <path id="Path_190" data-name="Path 190" d="M417.8,348.271V315.344h47.562v32.927Z" transform="translate(-335.478 -291.563)" fill="#845753"/>
      <path id="Path_191" data-name="Path 191" d="M435.35,321.726v32.927l-35.217-14.634v-31.1Z" transform="translate(-353.032 -297.945)" fill="#76a592"/>
      <path id="Path_192" data-name="Path 192" d="M441.651,315.344" transform="translate(-311.771 -291.562)" fill="#9e726c"/>
      <path id="Path_193" data-name="Path 193" d="M400.364,308.921h43.9l38.415,12.805H435.121Z" transform="translate(-352.803 -297.945)" fill="#9e726c"/>
      <path id="Path_194" data-name="Path 194" d="M444.267,313.48h-43.9v-9.146Z" transform="translate(-352.803 -302.505)" fill="#9e726c"/>
      <path id="Path_195" data-name="Path 195" d="M471.13,321.58l-53.619-10.671V321.58Z" transform="translate(-335.762 -295.97)" fill="#9e726c"/>
      <path id="Path_196" data-name="Path 196" d="M398.529,303.416l38.618,14.939,52.846,10.671-42.683-14.939Z" transform="translate(-354.626 -303.416)" fill="#d2d099"/>
      <rect id="Rectangle_109" data-name="Rectangle 109" width="9.017" height="14.634" transform="translate(91.594 42.074)" fill="#9e726c"/>
      <rect id="Rectangle_110" data-name="Rectangle 110" width="18.293" height="10.976" transform="translate(106.099 42.074)" fill="#d2d099"/>
      <rect id="Rectangle_111" data-name="Rectangle 111" width="9.146" height="5.488" transform="translate(91.465 34.757)" fill="#d2d099"/>
      <rect id="Rectangle_112" data-name="Rectangle 112" width="9.146" height="10.976" transform="translate(106.099 27.439)" fill="#d2d099"/>
      <rect id="Rectangle_113" data-name="Rectangle 113" width="9.146" height="10.976" transform="translate(115.245 27.439)" fill="#d2d099"/>
      <path id="Path_197" data-name="Path 197" d="M413.209,319.014" transform="translate(-340.038 -287.915)" fill="#afbe0c"/>
      <path id="Path_198" data-name="Path 198" d="M422.327,322.661v10.976l-18.293-7.317V315.344Z" transform="translate(-349.156 -291.563)" fill="#aad6c2"/>
      <path id="Path_199" data-name="Path 199" d="M436.376,329.026V318.356l-37.846-14.939v10.671Z" transform="translate(-354.626 -303.416)" fill="#81aaa4"/>
    </g>
    <g id="Group_147" data-name="Group 147" transform="translate(658.867 438.91)">
      <path id="Path_200" data-name="Path 200" d="M401.623,327.124l3.419-.245s-4.745-1.98-4.8-2.187-2.831.329-2.831.329Z" transform="translate(-397.412 -323.318)" fill="#44423a"/>
      <g id="Group_144" data-name="Group 144" transform="translate(0.183)">
        <path id="Path_201" data-name="Path 201" d="M397.505,326.017c0-.1.768-2.038.768-2.038l1.47.768s-.867,1.637-.867,1.737v.1Z" transform="translate(-397.505 -323.979)" fill="#5c635c"/>
        <path id="Path_202" data-name="Path 202" d="M401.595,324.892a20.184,20.184,0,0,1-2.235-.145l-1.47-.768,2.779.522Z" transform="translate(-397.122 -323.979)" fill="#808988"/>
        <path id="Path_203" data-name="Path 203" d="M398.185,326.214l1.133.351.442.3,1.49-2.232-.084-.122-2.134-.141-.91,1.923" transform="translate(-396.891 -323.592)" fill="#282821"/>
        <path id="Path_204" data-name="Path 204" d="M400.486,324.447l-.391,2.2-1.131.1,1.439-2.3" transform="translate(-396.055 -323.514)" fill="#282821"/>
      </g>
      <g id="Group_145" data-name="Group 145" transform="translate(1.711 0.391)">
        <path id="Path_205" data-name="Path 205" d="M398.271,326c.022-.1,1.194-1.82,1.194-1.82l1.266,1.069s-1.2,1.408-1.224,1.505l-.022.1Z" transform="translate(-398.271 -324.175)" fill="#5c635c"/>
        <path id="Path_206" data-name="Path 206" d="M402.287,325.87a20.094,20.094,0,0,1-2.151-.626l-1.266-1.069,2.6,1.113Z" transform="translate(-397.676 -324.175)" fill="#808988"/>
        <path id="Path_207" data-name="Path 207" d="M398.88,326.322l1.03.589.366.387,1.94-1.855-.055-.138-2.052-.6-1.306,1.679" transform="translate(-397.743 -323.649)" fill="#282821"/>
        <path id="Path_208" data-name="Path 208" d="M401.526,325.055l-.86,2.063-1.125-.152,1.9-1.929" transform="translate(-397.008 -323.318)" fill="#282821"/>
      </g>
      <path id="Path_209" data-name="Path 209" d="M400.708,328.03" transform="translate(-394.138 -319.953)" fill="#7a887a"/>
      <g id="Group_146" data-name="Group 146" transform="translate(3.176 2.604)">
        <path id="Path_210" data-name="Path 210" d="M399.006,327.433c-.018-.1.375-2.145.375-2.145l1.587.48s-.548,1.771-.53,1.868l.02.1Z" transform="translate(-399.006 -325.282)" fill="#5c635c"/>
        <path id="Path_211" data-name="Path 211" d="M403,325.5a19.842,19.842,0,0,1-2.223.275l-1.587-.48,2.827-.006Z" transform="translate(-398.819 -325.285)" fill="#808988"/>
        <path id="Path_212" data-name="Path 212" d="M399.722,327.644l1.179.133.49.21,1.047-2.471-.1-.1-2.123.26-.535,2.059" transform="translate(-398.341 -325.159)" fill="#282821"/>
        <path id="Path_213" data-name="Path 213" d="M401.6,325.429l.027,2.235-1.093.306.985-2.525" transform="translate(-397.486 -325.142)" fill="#282821"/>
      </g>
      <path id="Path_214" data-name="Path 214" d="M402.985,325.635l-.03.259-.9,7.819h-2.524V326.14l3.029-.253h0" transform="translate(-395.304 -322.333)" fill="#625d48"/>
      <path id="Path_215" data-name="Path 215" d="M397.413,332.193v-7.405l4.209,2.1v7.573Z" transform="translate(-397.413 -323.175)" fill="#7a887a"/>
    </g>
    <g id="Group_151" data-name="Group 151" transform="translate(650.72 434.811)">
      <path id="Path_216" data-name="Path 216" d="M397.535,325.068l3.421-.247s-4.745-1.978-4.8-2.185-2.831.329-2.831.329Z" transform="translate(-393.326 -321.262)" fill="#44423a"/>
      <g id="Group_148" data-name="Group 148" transform="translate(0.181)">
        <path id="Path_217" data-name="Path 217" d="M393.418,323.961c0-.1.77-2.038.77-2.038l1.469.768s-.869,1.637-.869,1.737v.1Z" transform="translate(-393.418 -321.923)" fill="#5c635c"/>
        <path id="Path_218" data-name="Path 218" d="M397.509,322.836a20.2,20.2,0,0,1-2.235-.146l-1.469-.768,2.779.522Z" transform="translate(-393.034 -321.923)" fill="#808988"/>
        <path id="Path_219" data-name="Path 219" d="M394.1,324.158l1.134.351.442.3,1.49-2.232-.084-.122-2.134-.141-.91,1.923" transform="translate(-392.804 -321.537)" fill="#282821"/>
        <path id="Path_220" data-name="Path 220" d="M396.4,322.391l-.391,2.2-1.131.1,1.439-2.3" transform="translate(-391.967 -321.458)" fill="#282821"/>
      </g>
      <g id="Group_149" data-name="Group 149" transform="translate(1.745 0.596)">
        <path id="Path_221" data-name="Path 221" d="M394.2,324.044c.022-.1,1.194-1.822,1.194-1.822l1.266,1.069s-1.2,1.41-1.224,1.507l-.022.1Z" transform="translate(-394.202 -322.222)" fill="#5c635c"/>
        <path id="Path_222" data-name="Path 222" d="M398.218,323.919a20.1,20.1,0,0,1-2.151-.628l-1.266-1.069,2.6,1.113Z" transform="translate(-393.607 -322.222)" fill="#808988"/>
        <path id="Path_223" data-name="Path 223" d="M394.811,324.369l1.03.589.367.387,1.94-1.855-.055-.138-2.052-.6-1.306,1.679" transform="translate(-393.674 -321.696)" fill="#282821"/>
        <path id="Path_224" data-name="Path 224" d="M397.457,323.1l-.86,2.063-1.125-.152,1.9-1.929" transform="translate(-392.939 -321.364)" fill="#282821"/>
      </g>
      <path id="Path_225" data-name="Path 225" d="M396.622,325.974" transform="translate(-390.052 -317.897)" fill="#7a887a"/>
      <g id="Group_150" data-name="Group 150" transform="translate(3.175 2.604)">
        <path id="Path_226" data-name="Path 226" d="M394.92,325.377c-.02-.1.373-2.145.373-2.145l1.587.48s-.546,1.771-.528,1.868l.02.1Z" transform="translate(-394.92 -323.226)" fill="#5c635c"/>
        <path id="Path_227" data-name="Path 227" d="M398.917,323.44a20.26,20.26,0,0,1-2.223.275l-1.587-.48,2.829-.006Z" transform="translate(-394.733 -323.229)" fill="#808988"/>
        <path id="Path_228" data-name="Path 228" d="M395.635,325.587l1.179.133.49.21,1.047-2.471-.1-.1-2.123.26-.535,2.059" transform="translate(-394.255 -323.103)" fill="#282821"/>
        <path id="Path_229" data-name="Path 229" d="M397.515,323.373l.027,2.234-1.093.306.985-2.525" transform="translate(-393.4 -323.086)" fill="#282821"/>
      </g>
      <path id="Path_230" data-name="Path 230" d="M398.9,323.579l-.03.259-.9,7.819h-2.524v-7.573l3.029-.252h0" transform="translate(-391.219 -320.278)" fill="#625d48"/>
      <path id="Path_231" data-name="Path 231" d="M393.327,330.137v-7.405l4.207,2.1v7.573Z" transform="translate(-393.327 -321.119)" fill="#7a887a"/>
    </g>
    <g id="Group_152" data-name="Group 152" transform="translate(655.274 445.876)">
      <path id="Path_232" data-name="Path 232" d="M395.611,329.3c.022-.1,1.194-1.822,1.194-1.822l1.266,1.069s-1.2,1.41-1.224,1.507l-.022.1Z" transform="translate(-395.611 -327.473)" fill="#5c635c"/>
      <path id="Path_233" data-name="Path 233" d="M399.627,329.17a20.1,20.1,0,0,1-2.151-.628l-1.266-1.069,2.6,1.113Z" transform="translate(-395.016 -327.473)" fill="#808988"/>
      <path id="Path_234" data-name="Path 234" d="M396.22,329.62l1.03.589.367.387,1.94-1.855-.055-.138-2.052-.6-1.306,1.679" transform="translate(-395.083 -326.947)" fill="#282821"/>
      <path id="Path_235" data-name="Path 235" d="M398.866,328.354l-.86,2.063-1.125-.152,1.9-1.929" transform="translate(-394.348 -326.615)" fill="#282821"/>
    </g>
    <g id="Group_153" data-name="Group 153" transform="translate(657.561 447.465)">
      <path id="Path_236" data-name="Path 236" d="M398.578,331.809c-.1-.022-1.82-1.192-1.82-1.192l1.069-1.268s1.408,1.2,1.505,1.224l.1.022Z" transform="translate(-396.758 -327.198)" fill="#5c635c"/>
      <path id="Path_237" data-name="Path 237" d="M398.453,328.27a20.112,20.112,0,0,1-.626,2.151l-1.069,1.268,1.113-2.6Z" transform="translate(-396.758 -328.27)" fill="#808988"/>
      <path id="Path_238" data-name="Path 238" d="M398.905,331.676l.589-1.03.387-.367-1.855-1.94-.138.055-.6,2.052,1.679,1.306" transform="translate(-396.232 -328.2)" fill="#282821"/>
      <path id="Path_239" data-name="Path 239" d="M397.638,328.317l2.063.86-.152,1.125-1.929-1.9" transform="translate(-395.901 -328.223)" fill="#282821"/>
    </g>
    <g id="Group_154" data-name="Group 154" transform="translate(659.166 450.069)">
      <path id="Path_240" data-name="Path 240" d="M397.563,331.566c.006-.1.885-1.99.885-1.99l1.422.851s-.961,1.583-.965,1.683l-.006.1Z" transform="translate(-397.563 -329.576)" fill="#5c635c"/>
      <path id="Path_241" data-name="Path 241" d="M401.652,330.7a19.907,19.907,0,0,1-2.223-.271l-1.422-.851,2.744.68Z" transform="translate(-397.122 -329.576)" fill="#808988"/>
      <path id="Path_242" data-name="Path 242" d="M398.228,331.8l1.111.416.424.323,1.616-2.143-.076-.127L399.18,330l-1.019,1.868" transform="translate(-396.969 -329.151)" fill="#282821"/>
      <path id="Path_243" data-name="Path 243" d="M400.615,330.17l-.517,2.174-1.135.031,1.569-2.21" transform="translate(-396.17 -328.99)" fill="#282821"/>
    </g>
    <g id="Group_155" data-name="Group 155" transform="translate(619.734 444.119)">
      <ellipse id="Ellipse_34" data-name="Ellipse 34" cx="0.919" cy="2.011" rx="0.919" ry="2.011" transform="translate(0 1.67) rotate(-65.283)" fill="#9b1dd6"/>
      <ellipse id="Ellipse_35" data-name="Ellipse 35" cx="0.893" cy="0.664" rx="0.893" ry="0.664" transform="translate(2.096 1.289)" fill="#fff"/>
      <line id="Line_15" data-name="Line 15" y1="0.503" x2="1.04" transform="translate(2.463 1.712)" fill="#1a1a1a" stroke="#000" stroke-miterlimit="10" stroke-width="0.1"/>
    </g>
    <g id="Group_156" data-name="Group 156" transform="translate(631.931 448.628)">
      <ellipse id="Ellipse_36" data-name="Ellipse 36" cx="0.919" cy="2.011" rx="0.919" ry="2.011" transform="translate(0 1.67) rotate(-65.283)" fill="red"/>
      <ellipse id="Ellipse_37" data-name="Ellipse 37" cx="0.893" cy="0.664" rx="0.893" ry="0.664" transform="translate(2.096 1.289)" fill="#fff"/>
      <line id="Line_16" data-name="Line 16" y1="0.503" x2="1.04" transform="translate(2.463 1.712)" fill="#1a1a1a" stroke="#000" stroke-miterlimit="10" stroke-width="0.1"/>
    </g>
    <g id="Group_157" data-name="Group 157" transform="translate(661.838 462.585)">
      <ellipse id="Ellipse_38" data-name="Ellipse 38" cx="0.919" cy="2.011" rx="0.919" ry="2.011" transform="translate(0 1.67) rotate(-65.283)" fill="red"/>
      <ellipse id="Ellipse_39" data-name="Ellipse 39" cx="0.893" cy="0.664" rx="0.893" ry="0.664" transform="translate(2.096 1.289)" fill="#fff"/>
      <line id="Line_17" data-name="Line 17" y1="0.503" x2="1.04" transform="translate(2.463 1.712)" fill="#1a1a1a" stroke="#000" stroke-miterlimit="10" stroke-width="0.1"/>
    </g>
    <g id="Group_161" data-name="Group 161" transform="translate(665.678 440.435)">
      <path id="Path_244" data-name="Path 244" d="M405.037,327.888l3.421-.245s-4.745-1.978-4.8-2.185-2.831.327-2.831.327Z" transform="translate(-400.828 -324.082)" fill="#44423a"/>
      <g id="Group_158" data-name="Group 158" transform="translate(0.181)">
        <path id="Path_245" data-name="Path 245" d="M400.92,326.782c0-.1.77-2.038.77-2.038l1.469.77s-.869,1.637-.869,1.737v.1Z" transform="translate(-400.92 -324.744)" fill="#5c635c"/>
        <path id="Path_246" data-name="Path 246" d="M405.011,325.657a20.141,20.141,0,0,1-2.235-.143l-1.469-.77,2.779.522Z" transform="translate(-400.536 -324.744)" fill="#808988"/>
        <path id="Path_247" data-name="Path 247" d="M401.6,326.98l1.134.351.442.3,1.49-2.232-.084-.122-2.134-.141-.91,1.923" transform="translate(-400.306 -324.357)" fill="#282821"/>
        <path id="Path_248" data-name="Path 248" d="M403.9,325.212l-.391,2.2-1.131.1,1.439-2.3" transform="translate(-399.469 -324.278)" fill="#282821"/>
      </g>
      <g id="Group_159" data-name="Group 159" transform="translate(1.711 0.391)">
        <path id="Path_249" data-name="Path 249" d="M401.687,326.762c.022-.1,1.192-1.822,1.192-1.822l1.268,1.069s-1.2,1.41-1.226,1.507l-.022.1Z" transform="translate(-401.687 -324.94)" fill="#5c635c"/>
        <path id="Path_250" data-name="Path 250" d="M405.7,326.637a20.084,20.084,0,0,1-2.149-.628l-1.268-1.069,2.6,1.112Z" transform="translate(-401.093 -324.94)" fill="#808988"/>
        <path id="Path_251" data-name="Path 251" d="M402.3,327.088l1.03.589.367.387,1.94-1.855-.055-.138-2.052-.6-1.306,1.679" transform="translate(-401.16 -324.414)" fill="#282821"/>
        <path id="Path_252" data-name="Path 252" d="M404.941,325.821l-.86,2.063-1.125-.152,1.9-1.929" transform="translate(-400.425 -324.083)" fill="#282821"/>
      </g>
      <path id="Path_253" data-name="Path 253" d="M404.124,328.8" transform="translate(-397.554 -320.717)" fill="#7a887a"/>
      <g id="Group_160" data-name="Group 160" transform="translate(3.174 2.606)">
        <path id="Path_254" data-name="Path 254" d="M402.421,328.2c-.018-.1.375-2.143.375-2.143l1.587.481s-.546,1.768-.528,1.868l.018.1Z" transform="translate(-402.421 -326.048)" fill="#5c635c"/>
        <path id="Path_255" data-name="Path 255" d="M406.419,326.26a19.79,19.79,0,0,1-2.223.277l-1.587-.481,2.829-.006Z" transform="translate(-402.233 -326.051)" fill="#808988"/>
        <path id="Path_256" data-name="Path 256" d="M403.137,328.409l1.179.133.49.21,1.047-2.471-.1-.1-2.123.26-.535,2.059" transform="translate(-401.755 -325.926)" fill="#282821"/>
        <path id="Path_257" data-name="Path 257" d="M405.017,326.195l.027,2.234-1.093.306.985-2.525" transform="translate(-400.9 -325.908)" fill="#282821"/>
      </g>
      <path id="Path_258" data-name="Path 258" d="M406.4,326.4l-.03.259-.9,7.819h-2.524v-7.573l3.029-.252h0" transform="translate(-398.721 -323.098)" fill="#625d48"/>
      <path id="Path_259" data-name="Path 259" d="M400.829,332.958v-7.405l4.207,2.1v7.575Z" transform="translate(-400.829 -323.94)" fill="#7a887a"/>
    </g>
    <g id="Group_165" data-name="Group 165" transform="translate(654.74 443.823)">
      <path id="Path_260" data-name="Path 260" d="M399.55,329.587l3.419-.245s-4.743-1.98-4.8-2.185-2.831.327-2.831.327Z" transform="translate(-395.343 -325.781)" fill="#44423a"/>
      <g id="Group_162" data-name="Group 162" transform="translate(0.179)">
        <path id="Path_261" data-name="Path 261" d="M395.433,328.481c0-.1.768-2.038.768-2.038l1.471.77s-.869,1.635-.869,1.737v.1Z" transform="translate(-395.433 -326.443)" fill="#5c635c"/>
        <path id="Path_262" data-name="Path 262" d="M399.525,327.356a20.153,20.153,0,0,1-2.235-.144l-1.472-.77,2.78.522Z" transform="translate(-395.05 -326.443)" fill="#808988"/>
        <path id="Path_263" data-name="Path 263" d="M396.113,328.679l1.133.351.442.3,1.49-2.232-.084-.122-2.134-.141-.91,1.923" transform="translate(-394.819 -326.056)" fill="#282821"/>
        <path id="Path_264" data-name="Path 264" d="M398.414,326.911l-.391,2.2-1.131.1,1.439-2.3" transform="translate(-393.982 -325.978)" fill="#282821"/>
      </g>
      <g id="Group_163" data-name="Group 163" transform="translate(1.709 0.391)">
        <path id="Path_265" data-name="Path 265" d="M396.2,328.459c.022-.1,1.192-1.82,1.192-1.82l1.268,1.069s-1.2,1.41-1.226,1.507l-.022.1Z" transform="translate(-396.2 -326.639)" fill="#5c635c"/>
        <path id="Path_266" data-name="Path 266" d="M400.215,328.334a20.059,20.059,0,0,1-2.149-.626l-1.268-1.069,2.6,1.112Z" transform="translate(-395.606 -326.639)" fill="#808988"/>
        <path id="Path_267" data-name="Path 267" d="M396.808,328.786l1.03.589.367.387,1.94-1.855-.055-.138-2.052-.6-1.306,1.679" transform="translate(-395.673 -326.113)" fill="#282821"/>
        <path id="Path_268" data-name="Path 268" d="M399.454,327.52l-.86,2.063-1.125-.152,1.9-1.929" transform="translate(-394.938 -325.782)" fill="#282821"/>
      </g>
      <path id="Path_269" data-name="Path 269" d="M398.637,330.495" transform="translate(-392.069 -322.416)" fill="#7a887a"/>
      <g id="Group_164" data-name="Group 164" transform="translate(3.172 2.604)">
        <path id="Path_270" data-name="Path 270" d="M396.934,329.9c-.018-.1.375-2.145.375-2.145l1.587.481s-.548,1.77-.528,1.868l.018.1Z" transform="translate(-396.934 -327.746)" fill="#5c635c"/>
        <path id="Path_271" data-name="Path 271" d="M400.932,327.96a19.767,19.767,0,0,1-2.223.275l-1.587-.481,2.829-.006Z" transform="translate(-396.746 -327.749)" fill="#808988"/>
        <path id="Path_272" data-name="Path 272" d="M397.65,330.108l1.179.133.49.21,1.047-2.471-.1-.1-2.123.26-.535,2.059" transform="translate(-396.269 -327.623)" fill="#282821"/>
        <path id="Path_273" data-name="Path 273" d="M399.53,327.893l.027,2.235-1.093.306.985-2.525" transform="translate(-395.413 -327.605)" fill="#282821"/>
      </g>
    </g>
    <g id="Group_166" data-name="Group 166" transform="translate(714.527 454.233)">
      <ellipse id="Ellipse_40" data-name="Ellipse 40" cx="0.919" cy="2.011" rx="0.919" ry="2.011" transform="translate(0 1.67) rotate(-65.283)" fill="red"/>
      <ellipse id="Ellipse_41" data-name="Ellipse 41" cx="0.893" cy="0.664" rx="0.893" ry="0.664" transform="translate(2.096 1.289)" fill="#fff"/>
      <line id="Line_18" data-name="Line 18" y1="0.503" x2="1.04" transform="translate(2.463 1.712)" fill="#1a1a1a" stroke="#000" stroke-miterlimit="10" stroke-width="0.1"/>
    </g>
    <path id="Path_274" data-name="Path 274" d="M383.081,302.209" transform="translate(247.21 93.296)" fill="#bcd3c7"/>
    <g id="Group_167" data-name="Group 167" transform="translate(721.411 440.313)">
      <path id="Path_275" data-name="Path 275" d="M433.93,327.046a2.289,2.289,0,1,1-2.289-2.289A2.289,2.289,0,0,1,433.93,327.046Z" transform="translate(-428.215 -324.609)" fill="#ddf2f1"/>
      <path id="Path_276" data-name="Path 276" d="M430.486,333.067" transform="translate(-427.088 -316.35)" fill="#303535"/>
      <path id="Path_277" data-name="Path 277" d="M431.252,330.005" transform="translate(-426.327 -319.394)" fill="#303535"/>
      <path id="Path_278" data-name="Path 278" d="M430.987,332.269l-1.8,1.962,2.344-.153-.084-1.766Z" transform="translate(-428.376 -317.144)" fill="#212121"/>
      <path id="Path_279" data-name="Path 279" d="M431.073,332.264l1.8,1.961-2.344-.153.084-1.766Z" transform="translate(-427.048 -317.148)" fill="#232323"/>
      <path id="Path_280" data-name="Path 280" d="M429.941,327.081l-1.159,6.1.732.183.671-5.49-.2-.763" transform="translate(-428.782 -322.3)" fill="#ddf2f1"/>
      <path id="Path_281" data-name="Path 281" d="M431.43,327.014l1.159,6.1-.732.183-.671-5.49.2-.763" transform="translate(-426.392 -322.366)" fill="#ddf2f1"/>
      <path id="Path_282" data-name="Path 282" d="M431.106,324.908c-.052.034-1.426.584-1.476.618s-.413,1.854-.413,1.854l2.815-.584.652-.756,1.029,1.665.756.07-.532-2.317a11.975,11.975,0,0,0-1.288-.774C432.615,324.737,431.106,324.908,431.106,324.908Z" transform="translate(-428.348 -324.683)" fill="#e8de28"/>
      <path id="Path_283" data-name="Path 283" d="M430.733,327.037h2.616v4.878h-3.924v-4.878h1.308" transform="translate(-428.143 -322.343)" fill="#8e8888"/>
      <path id="Path_284" data-name="Path 284" d="M429.427,329.37l.01.14c.074.891.469,5.768.373,5.8s1.485,0,1.485,0l.07-5.327h.263v5.276l1.414.034.361-5.88" transform="translate(-428.141 -320.025)" fill="#193754"/>
    </g>
    <g id="Group_168" data-name="Group 168" transform="translate(648.069 458.78)">
      <path id="Path_285" data-name="Path 285" d="M394.368,334.139l-1.46,1.511s-.144,5.991-.167,6.183a47.662,47.662,0,0,0,5.264.219l.383-6.54-1.842-1.458Z" transform="translate(-391.259 -333.836)" fill="#47360c"/>
      <path id="Path_286" data-name="Path 286" d="M397.457,336.917a2.31,2.31,0,0,1-2.139,2.45,1.906,1.906,0,0,1-.973-.267,2.511,2.511,0,0,1-1.168-2.183,2.16,2.16,0,1,1,4.281,0Z" transform="translate(-390.826 -333.428)" fill="#8a82bc"/>
      <path id="Path_287" data-name="Path 287" d="M394.6,336.926h3.621v8.147h-5.431v-8.147h1.81" transform="translate(-391.213 -330.982)" fill="#b22222"/>
      <path id="Path_288" data-name="Path 288" d="M395.164,349.424l-2.112-8.449h2.112v8.449" transform="translate(-390.95 -326.959)" fill="#303535"/>
      <path id="Path_289" data-name="Path 289" d="M394.357,349.462v-8.449h2.112" transform="translate(-389.653 -326.921)" fill="#303535"/>
      <line id="Line_19" data-name="Line 19" x1="2.112" y2="8.449" transform="translate(4.704 14.092)" fill="#303535"/>
      <path id="Path_290" data-name="Path 290" d="M394.693,344.758l-1.453,1.585,1.894-.124-.068-1.427Z" transform="translate(-390.762 -323.199)" fill="#303535"/>
      <path id="Path_291" data-name="Path 291" d="M394.763,344.754l1.453,1.585-1.894-.124.068-1.427Z" transform="translate(-389.689 -323.203)" fill="#303535"/>
      <path id="Path_292" data-name="Path 292" d="M393.6,336.965l-1.6,8.444,1.013.253.929-7.6-.274-1.055" transform="translate(-391.998 -330.944)" fill="#8a82bc"/>
      <path id="Path_293" data-name="Path 293" d="M395.663,336.872l1.6,8.444-1.013.253-.929-7.6.274-1.055" transform="translate(-388.69 -331.036)" fill="#8a82bc"/>
      <path id="Path_294" data-name="Path 294" d="M394.2,334.6a14.91,14.91,0,0,0-1.244,1.567c-.048.082.383.548.383.548s4.546-.164,4.618-.191a4.739,4.739,0,0,0-.048-1.017l-1.6-1.567Z" transform="translate(-391.046 -333.945)" fill="#47360c"/>
    </g>
    <g id="Group_169" data-name="Group 169" transform="translate(603.096 435.449)">
      <path id="Path_295" data-name="Path 295" d="M370.8,322.354l-.835.865s-.082,3.429-.1,3.539a27.1,27.1,0,0,0,3.015.128l.217-3.746-1.055-.833Z" transform="translate(-369.018 -322.18)" fill="#e8de28"/>
      <path id="Path_296" data-name="Path 296" d="M372.974,324.019a1.534,1.534,0,0,1-1.529,1.537,1.5,1.5,0,0,1-.694-.17,1.535,1.535,0,1,1,2.223-1.368Z" transform="translate(-368.967 -322.008)" fill="#8a82bc"/>
      <path id="Path_297" data-name="Path 297" d="M371.254,331.105l-1.209-4.837h1.209v4.837" transform="translate(-368.841 -318.243)" fill="#8a82bc"/>
      <path id="Path_298" data-name="Path 298" d="M370.792,331.127v-4.837H372" transform="translate(-368.099 -318.222)" fill="#8a82bc"/>
      <line id="Line_20" data-name="Line 20" x1="1.209" y2="4.837" transform="translate(2.693 8.068)" fill="#8a82bc"/>
      <path id="Path_299" data-name="Path 299" d="M370.985,328.434l-.832.908,1.085-.071-.039-.817Z" transform="translate(-368.734 -316.091)" fill="#303535"/>
      <path id="Path_300" data-name="Path 300" d="M371.024,328.432l.832.908-1.085-.071.039-.817Z" transform="translate(-368.119 -316.093)" fill="#303535"/>
      <path id="Path_301" data-name="Path 301" d="M370.7,322.62a8.7,8.7,0,0,0-.712.9c-.028.048.219.315.219.315s2.6-.094,2.644-.11a2.8,2.8,0,0,0-.028-.582l-.917-.9Z" transform="translate(-368.896 -322.243)" fill="#e8de28"/>
      <path id="Path_302" data-name="Path 302" d="M370.923,324.034h1.9v5.324h-2.847v-5.324h.949" transform="translate(-368.911 -320.463)" fill="#ffb3c2"/>
      <path id="Path_303" data-name="Path 303" d="M370.36,323.972l-.919,4.834.58.145.532-4.351-.157-.6" transform="translate(-369.441 -320.525)" fill="#8a82bc"/>
      <path id="Path_304" data-name="Path 304" d="M371.54,323.919l.919,4.834-.58.145-.532-4.351.157-.6" transform="translate(-367.548 -320.577)" fill="#8a82bc"/>
    </g>
    <rect id="Rectangle_114" data-name="Rectangle 114" width="989.931" height="19.938" transform="translate(234.357 655.281)" fill="#359e9b"/>
    <path id="Path_305" data-name="Path 305" d="M195.333,293.934l33.23-21.268,85.07,11.963,7.311,23.926-29.907,11.3-33.895,11.3-43.864-14.621Z" transform="translate(60.623 63.936)" fill="#f2f2f2"/>
    <path id="Path_306" data-name="Path 306" d="M309,270.3l22.857-10.634,58.513,5.982,5.029,11.963-20.571,5.649-23.314,5.649L321.343,281.6Z" transform="translate(173.587 51.016)" fill="#f2f2f2"/>
    <path id="Path_307" data-name="Path 307" d="M371.667,286.267l53.274-24.785,136.381,13.941,11.72,27.883L525.1,316.473,470.756,329.64,400.435,312.6Z" transform="translate(235.867 52.82)" fill="#f2f2f2"/>
    <path id="Path_308" data-name="Path 308" d="M613.667,319.723l29.177-13.574,74.692,7.635,6.419,15.271L697.7,336.266l-29.76,7.211-38.513-9.332Z" transform="translate(476.371 97.211)" fill="#f2f2f2"/>
    <g id="Group_176" data-name="Group 176" transform="translate(224.501 417.012)">
      <g id="Group_173" data-name="Group 173" transform="translate(0 24.567)">
        <g id="Group_170" data-name="Group 170">
          <path id="Path_309" data-name="Path 309" d="M273.611,340.335" transform="translate(-86.084 -310.393)" fill="#fff" stroke="#000" stroke-miterlimit="10" stroke-width="1"/>
          <path id="Path_310" data-name="Path 310" d="M487.981,390.516l-287.478-.9-20.947-64.3,204.858.023Z" transform="translate(-179.557 -325.317)" fill="#e9e8cc"/>
          <path id="Path_311" data-name="Path 311" d="M190.854,389.488l.088-31.9,285.812.983-.088,32.035C476.656,393.809,190.854,389.488,190.854,389.488Z" transform="translate(-168.329 -293.247)" fill="#cdbab6"/>
          <path id="Path_312" data-name="Path 312" d="M180.477,327.222l1.862,27.814L200.75,419.55l.088-31.9Z" transform="translate(-178.642 -323.425)" fill="#79877a"/>
        </g>
        <g id="Group_172" data-name="Group 172" transform="translate(19.226 57.291)">
          <g id="Group_171" data-name="Group 171">
            <path id="Path_313" data-name="Path 313" d="M464.937,354.052l-275.737.689,2.207,7.485H479.125Z" transform="translate(-189.199 -354.052)" fill="#d6d5d4"/>
          </g>
        </g>
      </g>
      <g id="Group_175" data-name="Group 175" transform="translate(171.991)">
        <g id="Group_174" data-name="Group 174">
          <path id="Path_314" data-name="Path 314" d="M265.819,313" transform="translate(-265.819 -312.996)" fill="#afbe0c"/>
        </g>
      </g>
    </g>
    <path id="Path_315" data-name="Path 315" d="M188.358,349.974" transform="translate(53.691 140.765)" fill="#d6d5d4"/>
    <path id="Path_316" data-name="Path 316" d="M198.741,349.919l-11.207.532h-5.87L180.6,325.9l202.787-.574s5.347,3.242-3.192,6.978-36.824,7.471-42.694,7.471-19.212,5.337-25.082,2.668-99.8,1.6-105.668,4.8S198.741,349.919,198.741,349.919Z" transform="translate(45.976 116.273)" fill="#4dc2a0"/>
    <path id="Path_317" data-name="Path 317" d="M181.69,344.395,187,337.929h-5.87Z" transform="translate(46.508 128.795)" fill="#4dc2a0"/>
    <path id="Path_318" data-name="Path 318" d="M180.425,325.238l7.278,25.3-5.311,6.466Z" transform="translate(45.806 116.182)" fill="#359e9b"/>
    <g id="Group_177" data-name="Group 177" transform="translate(355.947 457.186)" opacity="0.5">
      <ellipse id="Ellipse_42" data-name="Ellipse 42" cx="0.919" cy="2.011" rx="0.919" ry="2.011" transform="translate(0 1.67) rotate(-65.283)" fill="red"/>
      <ellipse id="Ellipse_43" data-name="Ellipse 43" cx="0.893" cy="0.664" rx="0.893" ry="0.664" transform="translate(2.096 1.289)" fill="#fff"/>
      <line id="Line_21" data-name="Line 21" y1="0.503" x2="1.04" transform="translate(2.463 1.712)" fill="#1a1a1a" stroke="#000" stroke-miterlimit="10" stroke-width="0.1"/>
    </g>
    <g id="Group_178" data-name="Group 178" transform="translate(334.93 451.106)" opacity="0.66">
      <ellipse id="Ellipse_44" data-name="Ellipse 44" cx="0.642" cy="1.924" rx="0.642" ry="1.924" transform="translate(0 1.241) rotate(-75.221)" fill="#9b1dd6"/>
      <ellipse id="Ellipse_45" data-name="Ellipse 45" cx="0.893" cy="0.443" rx="0.893" ry="0.443" transform="translate(1.908 0.853)" fill="#fff"/>
      <line id="Line_22" data-name="Line 22" y1="0.336" x2="1.04" transform="translate(2.275 1.135)" fill="#1a1a1a" stroke="#000" stroke-miterlimit="10" stroke-width="0.1"/>
    </g>
    <g id="Group_179" data-name="Group 179" transform="translate(357.276 447.217)" opacity="0.45">
      <ellipse id="Ellipse_46" data-name="Ellipse 46" cx="0.919" cy="2.011" rx="0.919" ry="2.011" transform="translate(0 1.67) rotate(-65.283)" fill="red"/>
      <ellipse id="Ellipse_47" data-name="Ellipse 47" cx="0.893" cy="0.664" rx="0.893" ry="0.664" transform="translate(2.096 1.289)" fill="#fff"/>
      <line id="Line_23" data-name="Line 23" y1="0.503" x2="1.04" transform="translate(2.463 1.712)" fill="#1a1a1a" stroke="#000" stroke-miterlimit="10" stroke-width="0.1"/>
    </g>
    <g id="Group_183" data-name="Group 183" transform="translate(234.674 458.37)" opacity="0.46">
      <path id="Path_319" data-name="Path 319" d="M188.866,336.884l3.421-.245s-4.745-1.98-4.8-2.187-2.831.329-2.831.329Z" transform="translate(-184.659 -333.078)" fill="#44423a"/>
      <g id="Group_180" data-name="Group 180" transform="translate(0.181)">
        <path id="Path_320" data-name="Path 320" d="M184.75,335.777c0-.1.768-2.038.768-2.038l1.469.768s-.869,1.637-.869,1.737v.1Z" transform="translate(-184.75 -333.739)" fill="#5c635c"/>
        <path id="Path_321" data-name="Path 321" d="M188.84,334.652a20.185,20.185,0,0,1-2.235-.146l-1.469-.768,2.779.522Z" transform="translate(-184.367 -333.739)" fill="#808988"/>
        <path id="Path_322" data-name="Path 322" d="M185.43,335.975l1.134.351.442.3,1.49-2.232-.084-.122-2.134-.141-.91,1.923" transform="translate(-184.137 -333.352)" fill="#282821"/>
        <path id="Path_323" data-name="Path 323" d="M187.731,334.207l-.391,2.2-1.131.1,1.439-2.3" transform="translate(-183.3 -333.274)" fill="#282821"/>
      </g>
      <g id="Group_181" data-name="Group 181" transform="translate(1.709 0.391)">
        <path id="Path_324" data-name="Path 324" d="M185.516,335.755c.022-.1,1.192-1.82,1.192-1.82L187.976,335s-1.2,1.41-1.224,1.507l-.022.1Z" transform="translate(-185.516 -333.935)" fill="#5c635c"/>
        <path id="Path_325" data-name="Path 325" d="M189.533,335.63a20.1,20.1,0,0,1-2.151-.626l-1.268-1.069,2.6,1.113Z" transform="translate(-184.922 -333.935)" fill="#808988"/>
        <path id="Path_326" data-name="Path 326" d="M186.124,336.082l1.03.589.367.387,1.94-1.855-.055-.138-2.052-.6-1.306,1.679" transform="translate(-184.988 -333.409)" fill="#282821"/>
        <path id="Path_327" data-name="Path 327" d="M188.771,334.815l-.86,2.063-1.125-.152,1.9-1.929" transform="translate(-184.254 -333.078)" fill="#282821"/>
      </g>
      <path id="Path_328" data-name="Path 328" d="M187.953,337.79" transform="translate(-181.385 -329.713)" fill="#7a887a"/>
      <g id="Group_182" data-name="Group 182" transform="translate(3.173 2.604)">
        <path id="Path_329" data-name="Path 329" d="M186.251,337.193c-.02-.1.375-2.145.375-2.145l1.587.481s-.548,1.771-.53,1.868l.02.1Z" transform="translate(-186.251 -335.042)" fill="#5c635c"/>
        <path id="Path_330" data-name="Path 330" d="M190.247,335.256a19.783,19.783,0,0,1-2.221.275l-1.587-.481,2.827-.006Z" transform="translate(-186.063 -335.045)" fill="#808988"/>
        <path id="Path_331" data-name="Path 331" d="M186.966,337.4l1.179.133.49.21,1.047-2.471-.105-.1-2.123.26-.535,2.059" transform="translate(-185.586 -334.919)" fill="#282821"/>
        <path id="Path_332" data-name="Path 332" d="M188.846,335.189l.027,2.235-1.093.306.985-2.525" transform="translate(-184.731 -334.902)" fill="#282821"/>
      </g>
    </g>
    <g id="Group_187" data-name="Group 187" transform="translate(419.136 442.951)" opacity="0.46">
      <path id="Path_333" data-name="Path 333" d="M281.383,329.151l3.421-.247s-4.745-1.978-4.8-2.185-2.831.329-2.831.329Z" transform="translate(-277.176 -325.345)" fill="#44423a"/>
      <g id="Group_184" data-name="Group 184" transform="translate(0.179)">
        <path id="Path_334" data-name="Path 334" d="M277.266,328.044c0-.1.77-2.038.77-2.038l1.469.768s-.869,1.637-.869,1.737v.1Z" transform="translate(-277.266 -326.006)" fill="#5c635c"/>
        <path id="Path_335" data-name="Path 335" d="M281.357,326.917a19.692,19.692,0,0,1-2.235-.144l-1.469-.768,2.779.52Z" transform="translate(-276.882 -326.006)" fill="#808988"/>
        <path id="Path_336" data-name="Path 336" d="M277.946,328.241l1.133.351.442.3,1.49-2.232-.084-.122-2.134-.141-.91,1.923" transform="translate(-276.652 -325.62)" fill="#282821"/>
        <path id="Path_337" data-name="Path 337" d="M280.247,326.474l-.391,2.2-1.131.1,1.439-2.3" transform="translate(-275.815 -325.541)" fill="#282821"/>
      </g>
      <g id="Group_185" data-name="Group 185" transform="translate(1.709 0.389)">
        <path id="Path_338" data-name="Path 338" d="M278.033,328.023c.022-.1,1.192-1.822,1.192-1.822l1.268,1.071s-1.2,1.408-1.226,1.505l-.022.1Z" transform="translate(-278.033 -326.201)" fill="#5c635c"/>
        <path id="Path_339" data-name="Path 339" d="M282.048,327.9a20.06,20.06,0,0,1-2.149-.626l-1.268-1.071,2.6,1.115Z" transform="translate(-277.439 -326.201)" fill="#808988"/>
        <path id="Path_340" data-name="Path 340" d="M278.641,328.349l1.03.589.367.387,1.94-1.855-.055-.138-2.052-.6-1.306,1.679" transform="translate(-277.506 -325.675)" fill="#282821"/>
        <path id="Path_341" data-name="Path 341" d="M281.287,327.082l-.86,2.063-1.125-.152,1.9-1.929" transform="translate(-276.771 -325.343)" fill="#282821"/>
      </g>
      <path id="Path_342" data-name="Path 342" d="M280.47,330.057" transform="translate(-273.902 -321.98)" fill="#7a887a"/>
      <g id="Group_186" data-name="Group 186" transform="translate(3.172 2.604)">
        <path id="Path_343" data-name="Path 343" d="M278.767,329.46c-.018-.1.375-2.145.375-2.145l1.587.48s-.546,1.771-.528,1.868l.018.1Z" transform="translate(-278.767 -327.309)" fill="#5c635c"/>
        <path id="Path_344" data-name="Path 344" d="M282.765,327.523a20.275,20.275,0,0,1-2.223.275l-1.587-.48,2.829-.006Z" transform="translate(-278.579 -327.312)" fill="#808988"/>
        <path id="Path_345" data-name="Path 345" d="M279.483,329.67l1.179.133.49.21,1.047-2.471-.105-.1-2.123.26-.535,2.059" transform="translate(-278.101 -327.187)" fill="#282821"/>
        <path id="Path_346" data-name="Path 346" d="M281.363,327.456l.027,2.235L280.3,330l.985-2.525" transform="translate(-277.246 -327.169)" fill="#282821"/>
      </g>
    </g>
    <rect id="Rectangle_115" data-name="Rectangle 115" width="37.776" height="31.994" transform="translate(445.409 466.113)" fill="#845753"/>
    <path id="Path_347" data-name="Path 347" d="M296.444,341.445l-12.218-7.669v27.361l12.218,12.3Z" transform="translate(148.965 124.668)" fill="#9ab2a6"/>
    <rect id="Rectangle_116" data-name="Rectangle 116" width="10.829" height="10.976" transform="translate(449.163 470.672)" fill="#d2d099"/>
    <rect id="Rectangle_117" data-name="Rectangle 117" width="10.829" height="10.976" transform="translate(449.187 483.961)" fill="#d2d099"/>
    <rect id="Rectangle_118" data-name="Rectangle 118" width="7.972" height="13.724" transform="translate(464.124 484.354)" fill="#9e726c"/>
    <rect id="Rectangle_119" data-name="Rectangle 119" width="7.792" height="3.813" transform="translate(464.155 477.778)" fill="#d2d099"/>
    <g id="Group_188" data-name="Group 188" transform="translate(388.141 443.141)">
      <rect id="Rectangle_120" data-name="Rectangle 120" width="37.776" height="31.994" transform="translate(12.218 24.289)" fill="#845753"/>
      <path id="Path_348" data-name="Path 348" d="M273.849,342.106l-12.218-7.669V361.8l12.218,12.3Z" transform="translate(-261.63 -317.817)" fill="#9ab2a6"/>
      <path id="Path_349" data-name="Path 349" d="M305.534,349.6l-17.22-22.712L267.759,349.6Z" transform="translate(-255.54 -325.315)" fill="#9e726c"/>
      <path id="Path_350" data-name="Path 350" d="M261.63,342.721l21.735-16.62,11.039,1.577L273.849,350.39Z" transform="translate(-261.63 -326.101)" fill="#d2d099"/>
      <rect id="Rectangle_121" data-name="Rectangle 121" width="31.054" height="7.759" transform="translate(15.307 29.68)" fill="#d2d099"/>
      <rect id="Rectangle_122" data-name="Rectangle 122" width="7.079" height="10.976" transform="translate(16.162 41.638)" fill="#d2d099"/>
      <rect id="Rectangle_123" data-name="Rectangle 123" width="7.972" height="13.724" transform="translate(39.582 42.364)" fill="#9e726c"/>
      <rect id="Rectangle_124" data-name="Rectangle 124" width="7.079" height="10.976" transform="translate(29.884 41.858)" fill="#d2d099"/>
    </g>
    <g id="Group_189" data-name="Group 189" transform="translate(349.647 456.653)">
      <rect id="Rectangle_125" data-name="Rectangle 125" width="32.261" height="24.367" transform="translate(10.435 18.499)" fill="#845753"/>
      <path id="Path_351" data-name="Path 351" d="M252.759,345.067l-10.435-5.841v20.839l10.435,9.369Z" transform="translate(-242.324 -326.568)" fill="#9ab2a6"/>
      <path id="Path_352" data-name="Path 352" d="M279.819,350.778l-14.706-17.3-17.555,17.3Z" transform="translate(-237.122 -332.279)" fill="#9e726c"/>
      <path id="Path_353" data-name="Path 353" d="M242.324,345.536l18.562-12.658,9.428,1.2-17.555,17.3Z" transform="translate(-242.324 -332.878)" fill="#d2d099"/>
      <rect id="Rectangle_126" data-name="Rectangle 126" width="15.148" height="8.981" transform="translate(13.803 31.091)" fill="#d2d099"/>
      <rect id="Rectangle_127" data-name="Rectangle 127" width="8.224" height="13.777" transform="translate(32.631 28.94)" fill="#9e726c"/>
      <rect id="Rectangle_128" data-name="Rectangle 128" width="3.556" height="8.359" transform="translate(40.924 23.564) rotate(90)" fill="#d2d099"/>
    </g>
    <path id="Path_354" data-name="Path 354" d="M328.129,348.943l-17.22-22.712-20.556,22.712Z" transform="translate(155.056 117.169)" fill="#9e726c"/>
    <path id="Path_355" data-name="Path 355" d="M284.225,342.061l21.735-16.62L317,327.017l-20.556,22.712Z" transform="translate(148.965 116.383)" fill="#d2d099"/>
    <g id="Group_195" data-name="Group 195" transform="translate(716.14 524.786)">
      <g id="Group_190" data-name="Group 190" transform="translate(0 21.933)">
        <path id="Path_356" data-name="Path 356" d="M602.1,396.578" transform="translate(-251.259 -359.638)" fill="#fff" stroke="#000" stroke-miterlimit="10" stroke-width="1"/>
        <path id="Path_357" data-name="Path 357" d="M933.939,458.818,561.4,457.9,426.138,378.057l292.426.84Z" transform="translate(-426.138 -378.045)" fill="#afb59e"/>
        <path id="Path_358" data-name="Path 358" d="M494.472,457.672l.114-39.651,371.728,1.222L866.2,459.06C866.188,463.041,494.472,457.672,494.472,457.672Z" transform="translate(-358.227 -338.327)" fill="#635e49"/>
        <path id="Path_359" data-name="Path 359" d="M426.335,378.051l-.107,37.173L562.294,497.4l.114-39.651Z" transform="translate(-426.049 -378.051)" fill="#79877a"/>
      </g>
      <g id="Group_192" data-name="Group 192" transform="translate(118.309 92.558)">
        <g id="Group_191" data-name="Group 191">
          <path id="Path_360" data-name="Path 360" d="M847.293,413.473H485.476l17.347,9.913H877.031Z" transform="translate(-485.476 -413.473)" fill="#d6d5d4"/>
        </g>
      </g>
      <g id="Group_194" data-name="Group 194" transform="translate(332.995)">
        <g id="Group_193" data-name="Group 193">
          <path id="Path_361" data-name="Path 361" d="M593.152,367.05" transform="translate(-593.152 -367.05)" fill="#afbe0c"/>
        </g>
      </g>
    </g>
    <path id="Path_362" data-name="Path 362" d="M608.631,434.507" transform="translate(471.366 224.776)" fill="#8bdfd8"/>
    <path id="Path_363" data-name="Path 363" d="M640.6,481.162V352.5h70.586V482.056Z" transform="translate(503.135 143.276)" fill="#465454"/>
    <path id="Path_364" data-name="Path 364" d="M617.319,343.909l49.805,18.532,67.193-1.4" transform="translate(480.001 134.738)" fill="#92938a"/>
    <path id="Path_365" data-name="Path 365" d="M632.032,360.367l-27.683.769,27.738,11.509" transform="translate(467.11 151.094)" fill="#92938a"/>
    <path id="Path_366" data-name="Path 366" d="M617.684,344.739,590,345.624l27.738,13.25" transform="translate(452.852 135.562)" fill="#92938a"/>
    <path id="Path_367" data-name="Path 367" d="M553.226,449.725V321.063h70.586V450.618Z" transform="translate(416.304 112.033)" fill="#465454"/>
    <path id="Path_368" data-name="Path 368" d="M529.948,312.472,579.753,331l67.193-1.4" transform="translate(393.17 103.495)" fill="#92938a"/>
    <path id="Path_369" data-name="Path 369" d="M577.091,458.766l-47.57-17.225,3.035-83.474,1.6-43.934L577.091,330.1Z" transform="translate(392.746 105.145)" fill="#76a592"/>
    <path id="Path_370" data-name="Path 370" d="M516.775,453.039V324.377h70.586V453.933Z" transform="translate(380.078 115.326)" fill="#465454"/>
    <path id="Path_371" data-name="Path 371" d="M493.5,315.786l49.8,18.532,67.193-1.4" transform="translate(356.944 106.788)" fill="#92938a"/>
    <path id="Path_372" data-name="Path 372" d="M540.641,462.08l-47.57-17.225,3.035-83.474,1.6-43.934,42.937,15.971Z" transform="translate(356.52 108.439)" fill="#76a592"/>
    <path id="Path_373" data-name="Path 373" d="M488.887,336.69l27.738,13.25-3.035,96.1-29.316-20.82Z" transform="translate(347.777 127.563)" fill="#597575"/>
    <path id="Path_374" data-name="Path 374" d="M516.273,337.232l-27.683.885,27.738,13.25" transform="translate(352.067 128.102)" fill="#92938a"/>
    <path id="Path_375" data-name="Path 375" d="M460.724,341.813l5.218,10.958,45.919,5.218-12.523-14.611Z" transform="translate(324.374 132.655)" fill="#92938a"/>
    <path id="Path_376" data-name="Path 376" d="M509.562,352.928v74.2H465.214l-2.177-80.22Z" transform="translate(326.673 137.717)" fill="#465454"/>
    <path id="Path_377" data-name="Path 377" d="M461.215,341.813l-.985,74.518L468,432.189l-1.57-79.417Z" transform="translate(323.883 132.655)" fill="#688ba0"/>
    <line id="Line_24" data-name="Line 24" x1="2.487" y2="4.664" transform="translate(996.169 380.15)" fill="#688ba0"/>
    <ellipse id="Ellipse_48" data-name="Ellipse 48" cx="58.113" cy="8.955" rx="58.113" ry="8.955" transform="translate(904.717 584.075)" fill="#597575"/>
    <ellipse id="Ellipse_49" data-name="Ellipse 49" cx="45.741" cy="6.251" rx="45.741" ry="6.251" transform="translate(920.501 586.554)" fill="#8bdfd8"/>
    <path id="Path_378" data-name="Path 378" d="M520.719,401.278v10.264l23.174,3.884,72.817.323,17.476-7.12,2.76-7.351-19.91,7.676-72.818.323S522.141,401.368,520.719,401.278Z" transform="translate(383.998 191.752)" fill="#465454"/>
    <path id="Path_379" data-name="Path 379" d="M477.966,397.5" transform="translate(341.509 187.997)" fill="#465454"/>
    <path id="Path_380" data-name="Path 380" d="M548.075,409.628l3.777-6.654-2.518-8.273,12.23.54-4.676,8.093,2.338,6.654Z" transform="translate(411.185 185.215)" fill="#e4f4f2"/>
    <g id="Group_196" data-name="Group 196" transform="translate(909.759 456.659)">
      <rect id="Rectangle_129" data-name="Rectangle 129" width="8.253" height="11.004" transform="translate(0.404 0.447)" fill="#ccfc86"/>
      <rect id="Rectangle_130" data-name="Rectangle 130" width="8.253" height="11.004" transform="translate(14.436 0.376)" fill="#ccfc86"/>
      <rect id="Rectangle_131" data-name="Rectangle 131" width="8.253" height="11.004" transform="translate(27.044)" fill="#ccfc86"/>
      <rect id="Rectangle_132" data-name="Rectangle 132" width="8.253" height="11.004" transform="translate(38.534 0.235)" fill="#ccfc86"/>
      <rect id="Rectangle_133" data-name="Rectangle 133" width="8.253" height="11.004" transform="translate(0.586 15.496)" fill="#ccfc86"/>
      <rect id="Rectangle_134" data-name="Rectangle 134" width="8.253" height="11.004" transform="translate(14.618 15.426)" fill="#ccfc86"/>
      <rect id="Rectangle_135" data-name="Rectangle 135" width="8.253" height="11.004" transform="translate(27.226 15.049)" fill="#ccfc86"/>
      <rect id="Rectangle_136" data-name="Rectangle 136" width="8.253" height="11.004" transform="translate(38.716 15.284)" fill="#ccfc86"/>
      <rect id="Rectangle_137" data-name="Rectangle 137" width="8.253" height="11.004" transform="translate(0 31.528)" fill="#ccfc86"/>
      <rect id="Rectangle_138" data-name="Rectangle 138" width="8.253" height="11.004" transform="translate(14.032 31.457)" fill="#ccfc86"/>
      <rect id="Rectangle_139" data-name="Rectangle 139" width="8.253" height="11.004" transform="translate(26.64 31.081)" fill="#ccfc86"/>
      <rect id="Rectangle_140" data-name="Rectangle 140" width="8.253" height="11.004" transform="translate(38.129 31.316)" fill="#ccfc86"/>
      <rect id="Rectangle_141" data-name="Rectangle 141" width="8.253" height="11.004" transform="translate(0.182 46.577)" fill="#ccfc86"/>
      <rect id="Rectangle_142" data-name="Rectangle 142" width="8.253" height="11.004" transform="translate(14.214 46.506)" fill="#ccfc86"/>
      <rect id="Rectangle_143" data-name="Rectangle 143" width="8.253" height="11.004" transform="translate(26.822 46.13)" fill="#ccfc86"/>
      <rect id="Rectangle_144" data-name="Rectangle 144" width="8.253" height="11.004" transform="translate(38.312 46.365)" fill="#ccfc86"/>
      <rect id="Rectangle_145" data-name="Rectangle 145" width="8.253" height="11.004" transform="translate(0.061 61.741)" fill="#ccfc86"/>
      <rect id="Rectangle_146" data-name="Rectangle 146" width="8.253" height="11.004" transform="translate(14.093 61.67)" fill="#ccfc86"/>
      <rect id="Rectangle_147" data-name="Rectangle 147" width="8.253" height="11.004" transform="translate(26.701 61.294)" fill="#ccfc86"/>
      <rect id="Rectangle_148" data-name="Rectangle 148" width="8.253" height="11.004" transform="translate(38.191 61.529)" fill="#ccfc86"/>
      <rect id="Rectangle_149" data-name="Rectangle 149" width="8.253" height="11.004" transform="translate(0.244 76.79)" fill="#ccfc86"/>
      <rect id="Rectangle_150" data-name="Rectangle 150" width="8.253" height="11.004" transform="translate(14.275 76.719)" fill="#ccfc86"/>
      <rect id="Rectangle_151" data-name="Rectangle 151" width="8.253" height="11.004" transform="translate(26.883 76.343)" fill="#ccfc86"/>
      <rect id="Rectangle_152" data-name="Rectangle 152" width="8.253" height="11.004" transform="translate(38.373 76.578)" fill="#ccfc86"/>
    </g>
    <g id="Group_197" data-name="Group 197" transform="translate(1156.414 507.698)">
      <rect id="Rectangle_153" data-name="Rectangle 153" width="6.63" height="8.839" transform="translate(3.268 0.359)" fill="#ccfc86"/>
      <rect id="Rectangle_154" data-name="Rectangle 154" width="8.253" height="11.004" transform="translate(13.85 0.377)" fill="#ccfc86"/>
      <rect id="Rectangle_155" data-name="Rectangle 155" width="6.63" height="8.839" transform="translate(24.667)" fill="#ccfc86"/>
      <rect id="Rectangle_156" data-name="Rectangle 156" width="8.253" height="11.004" transform="translate(37.947 0.235)" fill="#ccfc86"/>
      <rect id="Rectangle_157" data-name="Rectangle 157" width="8.253" height="11.004" transform="translate(0 15.496)" fill="#ccfc86"/>
      <rect id="Rectangle_158" data-name="Rectangle 158" width="8.253" height="11.004" transform="translate(14.032 15.426)" fill="#ccfc86"/>
      <rect id="Rectangle_159" data-name="Rectangle 159" width="6.63" height="8.839" transform="translate(24.813 12.088)" fill="#ccfc86"/>
      <rect id="Rectangle_160" data-name="Rectangle 160" width="8.253" height="11.004" transform="translate(38.129 15.284)" fill="#ccfc86"/>
    </g>
    <g id="Group_198" data-name="Group 198" transform="translate(977.687 455.9)">
      <rect id="Rectangle_161" data-name="Rectangle 161" width="8.253" height="11.004" transform="translate(0.667 0.447)" fill="#ccfc86"/>
      <rect id="Rectangle_162" data-name="Rectangle 162" width="8.253" height="11.004" transform="translate(14.698 0.376)" fill="#ccfc86"/>
      <rect id="Rectangle_163" data-name="Rectangle 163" width="8.253" height="11.004" transform="translate(27.306)" fill="#ccfc86"/>
      <rect id="Rectangle_164" data-name="Rectangle 164" width="8.253" height="11.004" transform="translate(38.796 0.235)" fill="#ccfc86"/>
      <rect id="Rectangle_165" data-name="Rectangle 165" width="8.253" height="11.004" transform="translate(0.849 15.496)" fill="#ccfc86"/>
      <rect id="Rectangle_166" data-name="Rectangle 166" width="8.253" height="11.004" transform="translate(14.881 15.426)" fill="#ccfc86"/>
      <rect id="Rectangle_167" data-name="Rectangle 167" width="8.253" height="11.004" transform="translate(27.489 15.049)" fill="#ccfc86"/>
      <rect id="Rectangle_168" data-name="Rectangle 168" width="8.253" height="11.004" transform="translate(38.978 15.284)" fill="#ccfc86"/>
      <rect id="Rectangle_169" data-name="Rectangle 169" width="8.253" height="11.004" transform="translate(0.945 31.688)" fill="#ccfc86"/>
      <rect id="Rectangle_170" data-name="Rectangle 170" width="8.253" height="11.004" transform="translate(14.977 31.617)" fill="#ccfc86"/>
      <rect id="Rectangle_171" data-name="Rectangle 171" width="8.253" height="11.004" transform="translate(27.585 31.241)" fill="#ccfc86"/>
      <rect id="Rectangle_172" data-name="Rectangle 172" width="8.253" height="11.004" transform="translate(39.074 31.475)" fill="#ccfc86"/>
      <rect id="Rectangle_173" data-name="Rectangle 173" width="8.253" height="11.004" transform="translate(1.127 46.737)" fill="#ccfc86"/>
      <rect id="Rectangle_174" data-name="Rectangle 174" width="8.253" height="11.004" transform="translate(15.159 46.666)" fill="#ccfc86"/>
      <rect id="Rectangle_175" data-name="Rectangle 175" width="8.253" height="11.004" transform="translate(27.767 46.29)" fill="#ccfc86"/>
      <rect id="Rectangle_176" data-name="Rectangle 176" width="8.253" height="11.004" transform="translate(39.256 46.524)" fill="#ccfc86"/>
      <rect id="Rectangle_177" data-name="Rectangle 177" width="8.253" height="11.004" transform="translate(0 61.289)" fill="#ccfc86"/>
      <rect id="Rectangle_178" data-name="Rectangle 178" width="8.253" height="11.004" transform="translate(14.032 61.219)" fill="#ccfc86"/>
      <rect id="Rectangle_179" data-name="Rectangle 179" width="8.253" height="11.004" transform="translate(26.64 60.842)" fill="#ccfc86"/>
      <rect id="Rectangle_180" data-name="Rectangle 180" width="8.253" height="11.004" transform="translate(38.13 61.077)" fill="#ccfc86"/>
      <rect id="Rectangle_181" data-name="Rectangle 181" width="8.253" height="11.004" transform="translate(0.182 76.338)" fill="#ccfc86"/>
      <rect id="Rectangle_182" data-name="Rectangle 182" width="8.253" height="11.004" transform="translate(14.214 76.268)" fill="#ccfc86"/>
      <rect id="Rectangle_183" data-name="Rectangle 183" width="8.253" height="11.004" transform="translate(26.822 75.891)" fill="#ccfc86"/>
      <rect id="Rectangle_184" data-name="Rectangle 184" width="8.253" height="11.004" transform="translate(38.312 76.126)" fill="#ccfc86"/>
    </g>
    <g id="Group_199" data-name="Group 199" transform="translate(1155.293 543.661)">
      <rect id="Rectangle_185" data-name="Rectangle 185" width="6.63" height="8.839" transform="translate(3.268 0.359)" fill="#ccfc86"/>
      <rect id="Rectangle_186" data-name="Rectangle 186" width="8.253" height="11.004" transform="translate(13.85 0.377)" fill="#ccfc86"/>
      <rect id="Rectangle_187" data-name="Rectangle 187" width="6.63" height="8.839" transform="translate(24.667)" fill="#ccfc86"/>
      <rect id="Rectangle_188" data-name="Rectangle 188" width="8.253" height="11.004" transform="translate(37.947 0.235)" fill="#ccfc86"/>
      <rect id="Rectangle_189" data-name="Rectangle 189" width="8.253" height="11.004" transform="translate(0 15.496)" fill="#ccfc86"/>
      <rect id="Rectangle_190" data-name="Rectangle 190" width="8.253" height="11.004" transform="translate(14.032 15.426)" fill="#ccfc86"/>
      <rect id="Rectangle_191" data-name="Rectangle 191" width="6.63" height="8.839" transform="translate(24.813 12.088)" fill="#ccfc86"/>
      <rect id="Rectangle_192" data-name="Rectangle 192" width="8.253" height="11.004" transform="translate(38.13 15.284)" fill="#ccfc86"/>
    </g>
    <g id="Group_200" data-name="Group 200" transform="translate(795.771 500.489)">
      <rect id="Rectangle_193" data-name="Rectangle 193" width="4.922" height="7.009" transform="translate(2.426 0.285)" fill="#ccfc86"/>
      <rect id="Rectangle_194" data-name="Rectangle 194" width="6.127" height="8.726" transform="translate(10.282 0.299)" fill="#ccfc86"/>
      <rect id="Rectangle_195" data-name="Rectangle 195" width="4.922" height="7.009" transform="translate(18.312)" fill="#ccfc86"/>
      <rect id="Rectangle_196" data-name="Rectangle 196" width="6.127" height="8.726" transform="translate(28.171 0.186)" fill="#ccfc86"/>
      <rect id="Rectangle_197" data-name="Rectangle 197" width="6.127" height="8.726" transform="translate(0 12.287)" fill="#ccfc86"/>
      <rect id="Rectangle_198" data-name="Rectangle 198" width="6.127" height="8.726" transform="translate(10.417 12.231)" fill="#ccfc86"/>
      <rect id="Rectangle_199" data-name="Rectangle 199" width="4.922" height="7.009" transform="translate(18.421 9.585)" fill="#ccfc86"/>
      <rect id="Rectangle_200" data-name="Rectangle 200" width="6.127" height="8.726" transform="translate(28.307 12.119)" fill="#ccfc86"/>
    </g>
    <g id="Group_201" data-name="Group 201" transform="translate(1152.022 582.012)">
      <rect id="Rectangle_201" data-name="Rectangle 201" width="6.63" height="8.839" transform="translate(3.268 0.359)" fill="#ccfc86"/>
      <rect id="Rectangle_202" data-name="Rectangle 202" width="8.253" height="11.004" transform="translate(13.85 0.376)" fill="#ccfc86"/>
      <rect id="Rectangle_203" data-name="Rectangle 203" width="6.63" height="8.839" transform="translate(24.667)" fill="#ccfc86"/>
      <rect id="Rectangle_204" data-name="Rectangle 204" width="8.253" height="11.004" transform="translate(37.947 0.235)" fill="#ccfc86"/>
      <rect id="Rectangle_205" data-name="Rectangle 205" width="8.253" height="11.004" transform="translate(0 15.496)" fill="#ccfc86"/>
      <rect id="Rectangle_206" data-name="Rectangle 206" width="8.253" height="11.004" transform="translate(14.032 15.426)" fill="#ccfc86"/>
      <rect id="Rectangle_207" data-name="Rectangle 207" width="6.63" height="8.839" transform="translate(24.813 12.088)" fill="#ccfc86"/>
      <rect id="Rectangle_208" data-name="Rectangle 208" width="8.253" height="11.004" transform="translate(38.129 15.284)" fill="#ccfc86"/>
    </g>
    <g id="Group_202" data-name="Group 202" transform="translate(796.698 527.498)">
      <rect id="Rectangle_209" data-name="Rectangle 209" width="4.922" height="7.009" transform="translate(2.426 0.285)" fill="#ccfc86"/>
      <rect id="Rectangle_210" data-name="Rectangle 210" width="6.127" height="8.726" transform="translate(10.282 0.299)" fill="#ccfc86"/>
      <rect id="Rectangle_211" data-name="Rectangle 211" width="4.922" height="7.009" transform="translate(18.312)" fill="#ccfc86"/>
      <rect id="Rectangle_212" data-name="Rectangle 212" width="6.127" height="8.726" transform="translate(28.172 0.186)" fill="#ccfc86"/>
      <rect id="Rectangle_213" data-name="Rectangle 213" width="6.127" height="8.726" transform="translate(0 12.287)" fill="#ccfc86"/>
      <rect id="Rectangle_214" data-name="Rectangle 214" width="6.127" height="8.726" transform="translate(10.417 12.231)" fill="#ccfc86"/>
      <rect id="Rectangle_215" data-name="Rectangle 215" width="4.922" height="7.009" transform="translate(18.421 9.585)" fill="#ccfc86"/>
      <rect id="Rectangle_216" data-name="Rectangle 216" width="6.127" height="8.726" transform="translate(28.307 12.119)" fill="#ccfc86"/>
    </g>
    <g id="Group_204" data-name="Group 204" transform="translate(758.683 569.492)">
      <g id="Group_203" data-name="Group 203">
        <path id="Path_381" data-name="Path 381" d="M809.293,389.473H447.476l17.347,9.913H839.031Z" transform="translate(-447.476 -389.473)" fill="#d6d5d4"/>
      </g>
    </g>
    <path id="Path_382" data-name="Path 382" d="M664.463,490.2l-47.57-17.225,3.035-83.474,1.6-43.934,42.937,15.971Z" transform="translate(479.577 136.388)" fill="#76a592"/>
    <path id="Path_383" data-name="Path 383" d="M606.649,360.753l27.737,11.509-3.036,83.474-29.316-18.085Z" transform="translate(464.811 151.477)" fill="#9ab2a6"/>
    <path id="Path_384" data-name="Path 384" d="M591.607,344.72l27.738,13.25-3.035,96.1-29.316-20.82Z" transform="translate(449.862 135.544)" fill="#597575"/>
    <g id="Group_208" data-name="Group 208" transform="translate(838.143 558.071)">
      <path id="Path_385" data-name="Path 385" d="M491.537,386.888l3.421-.245s-4.745-1.978-4.8-2.185-2.831.327-2.831.327Z" transform="translate(-487.328 -383.082)" fill="#44423a"/>
      <g id="Group_205" data-name="Group 205" transform="translate(0.181)">
        <path id="Path_386" data-name="Path 386" d="M487.42,385.782c0-.1.77-2.038.77-2.038l1.469.77s-.869,1.637-.869,1.737v.1Z" transform="translate(-487.42 -383.744)" fill="#5c635c"/>
        <path id="Path_387" data-name="Path 387" d="M491.51,384.657a20.148,20.148,0,0,1-2.235-.144l-1.469-.77,2.779.522Z" transform="translate(-487.036 -383.744)" fill="#808988"/>
        <path id="Path_388" data-name="Path 388" d="M488.1,385.98l1.134.351.442.3,1.49-2.232-.084-.122-2.134-.141-.91,1.923" transform="translate(-486.806 -383.357)" fill="#282821"/>
        <path id="Path_389" data-name="Path 389" d="M490.4,384.212l-.391,2.2-1.131.1,1.439-2.3" transform="translate(-485.969 -383.278)" fill="#282821"/>
      </g>
      <g id="Group_206" data-name="Group 206" transform="translate(1.711 0.391)">
        <path id="Path_390" data-name="Path 390" d="M488.187,385.762c.022-.1,1.192-1.822,1.192-1.822l1.268,1.069s-1.2,1.41-1.226,1.507l-.022.1Z" transform="translate(-488.187 -383.94)" fill="#5c635c"/>
        <path id="Path_391" data-name="Path 391" d="M492.2,385.637a20.058,20.058,0,0,1-2.149-.628l-1.268-1.069,2.6,1.113Z" transform="translate(-487.593 -383.94)" fill="#808988"/>
        <path id="Path_392" data-name="Path 392" d="M488.8,386.087l1.03.589.367.387,1.94-1.855-.055-.138-2.052-.6-1.306,1.679" transform="translate(-487.66 -383.414)" fill="#282821"/>
        <path id="Path_393" data-name="Path 393" d="M491.441,384.821l-.86,2.063-1.125-.152,1.9-1.929" transform="translate(-486.925 -383.082)" fill="#282821"/>
      </g>
      <path id="Path_394" data-name="Path 394" d="M490.624,387.8" transform="translate(-484.054 -379.717)" fill="#7a887a"/>
      <g id="Group_207" data-name="Group 207" transform="translate(3.174 2.606)">
        <path id="Path_395" data-name="Path 395" d="M488.921,387.2c-.018-.1.375-2.143.375-2.143l1.587.481s-.546,1.769-.528,1.868l.018.1Z" transform="translate(-488.921 -385.048)" fill="#5c635c"/>
        <path id="Path_396" data-name="Path 396" d="M492.919,385.26a19.788,19.788,0,0,1-2.223.277l-1.587-.481,2.829-.006Z" transform="translate(-488.733 -385.051)" fill="#808988"/>
        <path id="Path_397" data-name="Path 397" d="M489.637,387.409l1.179.133.49.21,1.047-2.471-.1-.1-2.123.26-.535,2.059" transform="translate(-488.255 -384.926)" fill="#282821"/>
        <path id="Path_398" data-name="Path 398" d="M491.517,385.195l.027,2.234-1.093.306.985-2.525" transform="translate(-487.4 -384.908)" fill="#282821"/>
      </g>
      <path id="Path_399" data-name="Path 399" d="M492.9,385.4l-.03.259-.9,7.819H489.45v-7.573l3.029-.252h0" transform="translate(-485.221 -382.098)" fill="#625d48"/>
      <path id="Path_400" data-name="Path 400" d="M487.329,391.958v-7.4l4.207,2.1v7.575Z" transform="translate(-487.329 -382.94)" fill="#7a887a"/>
    </g>
    <g id="Group_212" data-name="Group 212" transform="translate(879.68 558.737)">
      <path id="Path_401" data-name="Path 401" d="M512.37,387.223l3.421-.247s-4.745-1.978-4.8-2.185-2.831.329-2.831.329Z" transform="translate(-508.161 -383.417)" fill="#44423a"/>
      <g id="Group_209" data-name="Group 209" transform="translate(0.183)">
        <path id="Path_402" data-name="Path 402" d="M508.254,386.116c0-.1.768-2.038.768-2.038l1.469.768s-.869,1.637-.869,1.737v.1Z" transform="translate(-508.254 -384.078)" fill="#5c635c"/>
        <path id="Path_403" data-name="Path 403" d="M512.344,384.989a19.715,19.715,0,0,1-2.235-.143l-1.469-.768,2.779.52Z" transform="translate(-507.871 -384.078)" fill="#808988"/>
        <path id="Path_404" data-name="Path 404" d="M508.934,386.313l1.134.351.442.3L512,384.73l-.084-.122-2.134-.141-.91,1.923" transform="translate(-507.641 -383.692)" fill="#282821"/>
        <path id="Path_405" data-name="Path 405" d="M511.235,384.546l-.391,2.2-1.131.1,1.439-2.3" transform="translate(-506.804 -383.613)" fill="#282821"/>
      </g>
      <g id="Group_210" data-name="Group 210" transform="translate(1.711 0.389)">
        <path id="Path_406" data-name="Path 406" d="M509.02,386.1c.022-.1,1.192-1.822,1.192-1.822l1.268,1.071s-1.2,1.408-1.224,1.505l-.022.1Z" transform="translate(-509.02 -384.273)" fill="#5c635c"/>
        <path id="Path_407" data-name="Path 407" d="M513.037,385.97a20.1,20.1,0,0,1-2.151-.626l-1.268-1.071,2.6,1.115Z" transform="translate(-508.426 -384.273)" fill="#808988"/>
        <path id="Path_408" data-name="Path 408" d="M509.628,386.421l1.03.589.366.387,1.94-1.855-.055-.138-2.052-.6-1.306,1.679" transform="translate(-508.492 -383.747)" fill="#282821"/>
        <path id="Path_409" data-name="Path 409" d="M512.275,385.154l-.86,2.063-1.125-.152,1.9-1.929" transform="translate(-507.757 -383.415)" fill="#282821"/>
      </g>
      <path id="Path_410" data-name="Path 410" d="M511.457,388.129" transform="translate(-504.887 -380.052)" fill="#7a887a"/>
      <g id="Group_211" data-name="Group 211" transform="translate(3.175 2.604)">
        <path id="Path_411" data-name="Path 411" d="M509.755,387.532c-.02-.1.375-2.145.375-2.145l1.587.481s-.548,1.77-.53,1.868l.02.1Z" transform="translate(-509.755 -385.381)" fill="#5c635c"/>
        <path id="Path_412" data-name="Path 412" d="M513.751,385.6a20.209,20.209,0,0,1-2.221.275l-1.587-.481,2.827-.006Z" transform="translate(-509.567 -385.384)" fill="#808988"/>
        <path id="Path_413" data-name="Path 413" d="M510.47,387.742l1.179.133.49.21,1.047-2.471-.1-.1-2.123.26-.535,2.059" transform="translate(-509.09 -385.259)" fill="#282821"/>
        <path id="Path_414" data-name="Path 414" d="M512.35,385.528l.027,2.235-1.093.306.985-2.525" transform="translate(-508.235 -385.241)" fill="#282821"/>
      </g>
      <path id="Path_415" data-name="Path 415" d="M513.734,385.733l-.03.259-.9,7.819h-2.524v-7.573l3.029-.252h0" transform="translate(-506.053 -382.433)" fill="#625d48"/>
      <path id="Path_416" data-name="Path 416" d="M508.162,392.291v-7.405l4.207,2.105v7.573Z" transform="translate(-508.162 -383.275)" fill="#7a887a"/>
    </g>
    <g id="Group_216" data-name="Group 216" transform="translate(779.658 554.749)">
      <path id="Path_417" data-name="Path 417" d="M462.2,385.223l3.419-.247s-4.745-1.978-4.8-2.185-2.831.329-2.831.329Z" transform="translate(-457.995 -381.417)" fill="#44423a"/>
      <g id="Group_213" data-name="Group 213" transform="translate(0.181)">
        <path id="Path_418" data-name="Path 418" d="M458.087,384.116c0-.1.768-2.038.768-2.038l1.469.768s-.867,1.637-.867,1.737v.1Z" transform="translate(-458.087 -382.078)" fill="#5c635c"/>
        <path id="Path_419" data-name="Path 419" d="M462.177,382.989a19.743,19.743,0,0,1-2.235-.144l-1.469-.768,2.779.52Z" transform="translate(-457.704 -382.078)" fill="#808988"/>
        <path id="Path_420" data-name="Path 420" d="M458.767,384.313l1.134.351.442.3,1.49-2.232-.084-.122-2.134-.141-.91,1.923" transform="translate(-457.473 -381.692)" fill="#282821"/>
        <path id="Path_421" data-name="Path 421" d="M461.068,382.546l-.391,2.2-1.131.1,1.439-2.3" transform="translate(-456.637 -381.613)" fill="#282821"/>
      </g>
      <g id="Group_214" data-name="Group 214" transform="translate(1.711 0.389)">
        <path id="Path_422" data-name="Path 422" d="M458.854,384.1c.02-.1,1.192-1.822,1.192-1.822l1.266,1.071s-1.2,1.408-1.224,1.505l-.022.1Z" transform="translate(-458.854 -382.273)" fill="#5c635c"/>
        <path id="Path_423" data-name="Path 423" d="M462.869,383.97a20.1,20.1,0,0,1-2.151-.626l-1.266-1.071,2.6,1.114Z" transform="translate(-458.26 -382.273)" fill="#808988"/>
        <path id="Path_424" data-name="Path 424" d="M459.462,384.421l1.03.589.367.387,1.94-1.855-.055-.138-2.052-.6-1.306,1.679" transform="translate(-458.327 -381.747)" fill="#282821"/>
        <path id="Path_425" data-name="Path 425" d="M462.108,383.154l-.86,2.063-1.125-.152,1.9-1.929" transform="translate(-457.592 -381.415)" fill="#282821"/>
      </g>
      <path id="Path_426" data-name="Path 426" d="M461.291,386.129" transform="translate(-454.721 -378.052)" fill="#7a887a"/>
      <g id="Group_215" data-name="Group 215" transform="translate(3.174 2.604)">
        <path id="Path_427" data-name="Path 427" d="M459.588,385.532c-.018-.1.375-2.145.375-2.145l1.587.48s-.548,1.771-.528,1.868l.018.1Z" transform="translate(-459.588 -383.381)" fill="#5c635c"/>
        <path id="Path_428" data-name="Path 428" d="M463.586,383.6a20.307,20.307,0,0,1-2.223.275l-1.587-.48,2.827-.006Z" transform="translate(-459.401 -383.384)" fill="#808988"/>
        <path id="Path_429" data-name="Path 429" d="M460.3,385.742l1.179.133.49.21,1.047-2.471-.105-.1-2.123.26-.535,2.059" transform="translate(-458.923 -383.259)" fill="#282821"/>
        <path id="Path_430" data-name="Path 430" d="M462.183,383.528l.027,2.234-1.093.306.985-2.525" transform="translate(-458.068 -383.241)" fill="#282821"/>
      </g>
      <path id="Path_431" data-name="Path 431" d="M463.567,383.733l-.03.259-.9,7.819h-2.524v-7.573l3.029-.252h0" transform="translate(-455.888 -380.433)" fill="#625d48"/>
      <path id="Path_432" data-name="Path 432" d="M458,390.291v-7.405l4.207,2.105v7.573Z" transform="translate(-457.996 -381.275)" fill="#7a887a"/>
    </g>
    <g id="Group_220" data-name="Group 220" transform="translate(766.025 548.598)">
      <path id="Path_433" data-name="Path 433" d="M458.229,384.277l5.746-.413s-7.971-3.326-8.059-3.673-4.757.55-4.757.55Z" transform="translate(-451.157 -377.882)" fill="#44423a"/>
      <g id="Group_217" data-name="Group 217" transform="translate(0.305)">
        <path id="Path_434" data-name="Path 434" d="M451.311,382.416c0-.169,1.29-3.423,1.29-3.423l2.47,1.29s-1.459,2.75-1.459,2.919v.167Z" transform="translate(-451.311 -378.993)" fill="#5c635c"/>
        <path id="Path_435" data-name="Path 435" d="M458.183,380.526a33.867,33.867,0,0,1-3.754-.243l-2.47-1.29,4.671.877Z" transform="translate(-450.668 -378.993)" fill="#808988"/>
        <path id="Path_436" data-name="Path 436" d="M452.454,382.749l1.9.59.742.5,2.5-3.75-.141-.206-3.586-.237-1.529,3.231" transform="translate(-450.28 -378.344)" fill="#282821"/>
        <path id="Path_437" data-name="Path 437" d="M456.32,379.779l-.656,3.7-1.9.162,2.418-3.859" transform="translate(-448.874 -378.212)" fill="#282821"/>
      </g>
      <g id="Group_218" data-name="Group 218" transform="translate(2.873 0.656)">
        <path id="Path_438" data-name="Path 438" d="M452.6,382.383c.038-.166,2-3.061,2-3.061l2.129,1.8s-2.022,2.367-2.058,2.53l-.038.163Z" transform="translate(-452.599 -379.322)" fill="#5c635c"/>
        <path id="Path_439" data-name="Path 439" d="M459.346,382.171a34.143,34.143,0,0,1-3.613-1.053l-2.129-1.8,4.369,1.87Z" transform="translate(-451.6 -379.322)" fill="#808988"/>
        <path id="Path_440" data-name="Path 440" d="M453.621,382.929l1.731.99.616.65,3.259-3.116-.092-.231-3.448-1.01-2.195,2.821" transform="translate(-451.713 -378.439)" fill="#282821"/>
        <path id="Path_441" data-name="Path 441" d="M458.067,380.8l-1.444,3.466-1.89-.255,3.2-3.241" transform="translate(-450.478 -377.882)" fill="#282821"/>
      </g>
      <path id="Path_442" data-name="Path 442" d="M456.694,385.8" transform="translate(-445.656 -372.228)" fill="#7a887a"/>
      <g id="Group_219" data-name="Group 219" transform="translate(5.333 4.374)">
        <path id="Path_443" data-name="Path 443" d="M453.833,384.8c-.03-.166.63-3.6.63-3.6l2.666.805s-.919,2.975-.889,3.14l.032.166Z" transform="translate(-453.832 -381.181)" fill="#5c635c"/>
        <path id="Path_444" data-name="Path 444" d="M460.549,381.542a33.366,33.366,0,0,1-3.734.463l-2.666-.805,4.751-.012Z" transform="translate(-453.518 -381.187)" fill="#808988"/>
        <path id="Path_445" data-name="Path 445" d="M455.036,385.15l1.981.224.823.353,1.76-4.151-.176-.176-3.567.437-.9,3.459" transform="translate(-452.715 -380.976)" fill="#282821"/>
        <path id="Path_446" data-name="Path 446" d="M458.194,381.429l.045,3.754-1.836.514,1.656-4.242" transform="translate(-451.278 -380.946)" fill="#282821"/>
      </g>
      <path id="Path_447" data-name="Path 447" d="M460.518,381.775l-.05.435-1.505,13.137h-4.241V382.623l5.09-.424h0" transform="translate(-447.616 -376.228)" fill="#625d48"/>
      <path id="Path_448" data-name="Path 448" d="M451.158,392.791V380.352l7.068,3.533V396.61Z" transform="translate(-451.158 -377.642)" fill="#7a887a"/>
    </g>
    <path id="Path_449" data-name="Path 449" d="M179.369,334.651a20.008,20.008,0,0,0,1.091,3.092c5.1,13.584,25.587,66.273,25.587,66.273H488.84L485.8,391.479,383.919,325.091l55.566,6.893,113.383,62.7L739.405,404.9l.479,26.219-68.264-.52.72,20.572,135.309,75.568,372.166,4v28.011H191.374" transform="translate(44.711 116.036)" fill="#47c2aa" opacity="0.74"/>
    <path id="Path_450" data-name="Path 450" d="M328.31,348.789l-17.22-22.712-20.556,22.712Z" transform="translate(155.236 117.016)" fill="#9e726c"/>
    <path id="Path_451" data-name="Path 451" d="M284.406,341.907l21.735-16.62,11.039,1.577-20.556,22.712Z" transform="translate(149.145 116.23)" fill="#d2d099"/>
    <rect id="Rectangle_217" data-name="Rectangle 217" width="37.776" height="31.994" transform="translate(445.932 465.788)" fill="#845753"/>
    <rect id="Rectangle_218" data-name="Rectangle 218" width="10.829" height="10.976" transform="translate(449.686 470.348)" fill="#d2d099"/>
    <rect id="Rectangle_219" data-name="Rectangle 219" width="10.829" height="10.976" transform="translate(449.71 483.636)" fill="#d2d099"/>
    <rect id="Rectangle_220" data-name="Rectangle 220" width="7.972" height="13.724" transform="translate(464.647 484.029)" fill="#9e726c"/>
    <rect id="Rectangle_221" data-name="Rectangle 221" width="7.792" height="3.813" transform="translate(464.678 477.453)" fill="#d2d099"/>
  </g>
</svg>
