<svg id="Group_86" data-name="Group 86" xmlns="http://www.w3.org/2000/svg" width="202.356" height="316.44" viewBox="0 0 202.356 316.44">
  <circle id="Ellipse_11" data-name="Ellipse 11" cx="31.564" cy="31.564" r="31.564" transform="translate(134.597 133.446)" fill="#1ed56d"/>
  <line id="Line_5" data-name="Line 5" y1="57.256" x2="0.259" transform="translate(165.875 164.837)" fill="#3f3d56" stroke="#3f3d56" stroke-miterlimit="10" stroke-width="2"/>
  <circle id="Ellipse_12" data-name="Ellipse 12" cx="8.097" cy="8.097" r="8.097" transform="translate(158.037 156.74)" fill="#3f3d56"/>
  <path id="Path_91" data-name="Path 91" d="M508.1,494.588s-1.044-24.883-24.769-22.1" transform="translate(-342.128 -294.463)" fill="#3f3d56"/>
  <circle id="Ellipse_13" data-name="Ellipse 13" cx="31.564" cy="31.564" r="31.564" transform="translate(2.37 70.075)" fill="#1ed56d"/>
  <line id="Line_6" data-name="Line 6" y1="116.563" x2="1.816" transform="translate(32.147 101.604)" fill="#3f3d56" stroke="#3f3d56" stroke-miterlimit="10" stroke-width="2"/>
  <circle id="Ellipse_14" data-name="Ellipse 14" cx="8.097" cy="8.097" r="8.097" transform="translate(25.866 93.507)" fill="#3f3d56"/>
  <path id="Path_92" data-name="Path 92" d="M251.441,367.3s-.769-24.893-24.523-22.371" transform="translate(-217.992 -232.728)" fill="#3f3d56"/>
  <path id="Path_93" data-name="Path 93" d="M249.4,498.764s5.95-47.754-24.084-50.536" transform="translate(-217.214 -282.823)" fill="none" stroke="#3f3d56" stroke-miterlimit="10" stroke-width="2"/>
  <circle id="Ellipse_15" data-name="Ellipse 15" cx="8.097" cy="8.097" r="8.097" transform="translate(0 157.308)" fill="#3f3d56"/>
  <circle id="Ellipse_16" data-name="Ellipse 16" cx="31.564" cy="31.564" r="31.564" transform="translate(70.248)" fill="#1ed56d"/>
  <line id="Line_7" data-name="Line 7" y1="190.981" transform="translate(101.832 31.68)" fill="#3f3d56" stroke="#3f3d56" stroke-miterlimit="10" stroke-width="2"/>
  <circle id="Ellipse_17" data-name="Ellipse 17" cx="8.097" cy="8.097" r="8.097" transform="translate(93.736 23.493)" fill="#3f3d56"/>
  <circle id="Ellipse_18" data-name="Ellipse 18" cx="8.097" cy="8.097" r="8.097" transform="translate(68.867 161.668)" fill="#3f3d56"/>
  <path id="Path_94" data-name="Path 94" d="M383.674,248.155s-1.157-24.878-24.869-21.986" transform="translate(-281.841 -175.206)" fill="#3f3d56"/>
  <path id="Path_95" data-name="Path 95" d="M383.674,384.867s-1.157-24.878-24.869-21.986" transform="translate(-281.841 -241.391)" fill="#3f3d56"/>
  <path id="Path_96" data-name="Path 96" d="M383.674,507.35s5.205-48.357-24.869-50.67" transform="translate(-281.841 -286.915)" fill="none" stroke="#3f3d56" stroke-miterlimit="10" stroke-width="2"/>
  <circle id="Ellipse_19" data-name="Ellipse 19" cx="8.097" cy="8.097" r="8.097" transform="translate(119.101 85.717)" fill="#3f3d56"/>
  <path id="Path_97" data-name="Path 97" d="M407.652,357.543s-5.205-45.777,24.869-48.091" transform="translate(-305.323 -215.638)" fill="none" stroke="#3f3d56" stroke-miterlimit="10" stroke-width="2"/>
  <path id="Path_102" data-name="Path 102" d="M313.951,647.08A100.08,100.08,0,0,0,414.032,547H213.871A100.08,100.08,0,0,0,313.951,647.08Z" transform="translate(-211.676 -330.641)" fill="#1ed56d"/>
</svg>
