<svg xmlns="http://www.w3.org/2000/svg" width="221" height="211" viewBox="0 0 221 211">
  <g id="Group_340" data-name="Group 340" transform="translate(-3308 248)">
    <path id="Path_452" data-name="Path 452" d="M0,0H221V211H0Z" transform="translate(3308 -248)" fill="#fcfcfc"/>
    <circle id="Ellipse_11" data-name="Ellipse 11" cx="94.198" cy="94.198" r="94.198" transform="translate(3324 -237)" fill="#63ffbb" opacity="0.3"/>
    <g id="travel" transform="translate(3310 -324.676)">
      <path id="Path_36" data-name="Path 36" d="M212.572,158.459c0,36.773-177.273,77.362-190.7,77.362-7.526,0-16.064-1.735-16.064-8.673,0-2.318,2.676-5.669,7.371-9.708l-.005,0L.733,195.333a5.682,5.682,0,0,1,2.84-8.062l2.139-.856a14.208,14.208,0,0,1,11.928.633l22.591,11.96c8.8-5.217,18.773-10.679,29.29-16.057L25.5,154.388a5.683,5.683,0,0,1,.07-9.579l3.6-2.263a25.571,25.571,0,0,1,20.124-3.073l73.237,19.318c22.835-9.063,43.48-15.25,55.7-15.25,3.264,0,6.532.086,9.686.312L165.8,153.838l-.529,7.439,34.14-15.694C207.592,147.535,212.572,151.178,212.572,158.459Zm-89.1,63.478,27.318,31.033a5.683,5.683,0,0,0,6.661,1.4l3.659-1.7a17.048,17.048,0,0,0,9.747-17.44l-3.42-29.241a2.842,2.842,0,0,0-3.766-2.349l-39.009,13.741A2.842,2.842,0,0,0,123.477,221.937Z" transform="translate(0 0)" fill="#36ecce"/>
    </g>
  </g>
</svg>
