<svg xmlns="http://www.w3.org/2000/svg" width="221" height="211" viewBox="0 0 221 211">
  <g id="Group_338" data-name="Group 338" transform="translate(-3308 695)">
    <rect id="Rectangle_225" data-name="Rectangle 225" width="221" height="211" transform="translate(3308 -695)" fill="#fcfcfc"/>
    <circle id="Ellipse_12" data-name="Ellipse 12" cx="94.198" cy="94.198" r="94.198" transform="translate(3324 -684)" fill="#63ffbb" opacity="0.3"/>
    <path id="Subtraction_1" data-name="Subtraction 1" d="M-2763.329,356.767H-2889.9a20.986,20.986,0,0,1-14.91-6.186,20.986,20.986,0,0,1-6.187-14.91V305.534a20.986,20.986,0,0,1,6.187-14.91,20.986,20.986,0,0,1,14.91-6.186h126.575a20.987,20.987,0,0,1,14.91,6.186,20.987,20.987,0,0,1,6.186,14.91v30.137a20.987,20.987,0,0,1-6.186,14.91A20.987,20.987,0,0,1-2763.329,356.767ZM-2811.566,329h2.2l4,7.745a3.6,3.6,0,0,0,1.5,1.584,4.192,4.192,0,0,0,1.892.439h4.092a2.608,2.608,0,0,0,2.244-.9c.438-.6.349-1.464-.264-2.574l-3.96-7.04c-.178-.326-.349-.607-.506-.836-.168-.245-.32-.446-.463-.616-.146-.2-.294-.4-.439-.572v-.088a8,8,0,0,0,1.98-1.715,9.55,9.55,0,0,0,1.364-2.2,12.086,12.086,0,0,0,.792-2.463,12.244,12.244,0,0,0,.264-2.464,11.488,11.488,0,0,0-.462-3.3,10.084,10.084,0,0,0-1.3-2.772,9.1,9.1,0,0,0-1.98-2.112,8.418,8.418,0,0,0-2.464-1.319,12.143,12.143,0,0,0-2.574-.506c-1-.1-2.255-.155-3.718-.155h-8.58c-1.927,0-2.9.962-2.9,2.86v25.916c0,1.9.977,2.859,2.9,2.859h3.52a2.534,2.534,0,0,0,2.859-2.859V329Zm-39.028-21.868a2.546,2.546,0,0,0-2.222.9,2.55,2.55,0,0,0-.11,2.4l9.02,26.048a3.234,3.234,0,0,0,3.3,2.288h4.708a3.235,3.235,0,0,0,3.3-2.288l8.976-26.048a2.551,2.551,0,0,0-.11-2.4,2.546,2.546,0,0,0-2.222-.9h-3.916a3.1,3.1,0,0,0-3.256,2.42l-3.872,13.6a15.642,15.642,0,0,0-.463,1.738q-.14.67-.269,1.285l-.014.069-.09.428c-.107.592-.222,1.211-.352,1.892h-.088c-.135-.714-.25-1.332-.352-1.892-.113-.538-.246-1.137-.4-1.782-.146-.627-.294-1.212-.44-1.738l-3.828-13.6a3.028,3.028,0,0,0-3.212-2.42Zm-15.221-16.646a3,3,0,0,0-2.112.864l-33.15,33.151a3.022,3.022,0,0,0,.019,4.242,2.994,2.994,0,0,0,2.131.883,2.993,2.993,0,0,0,2.111-.864l33.151-33.15a3.022,3.022,0,0,0-.02-4.243A2.994,2.994,0,0,0-2865.814,290.485Zm-27.123,9.041a3,3,0,0,0-2.111.863l-9.041,9.041a3.024,3.024,0,0,0,.02,4.243,2.993,2.993,0,0,0,2.13.882,3,3,0,0,0,2.112-.863l9.041-9.041a3.023,3.023,0,0,0-.019-4.243A3,3,0,0,0-2892.937,299.526Zm9.074-9.063a2.847,2.847,0,0,0-1.158.244,3.072,3.072,0,0,0-1,.633,3.15,3.15,0,0,0-.874,2.139,2.963,2.963,0,0,0,.21,1.145,4.507,4.507,0,0,0,.665,1,3.1,3.1,0,0,0,2.139.874,3,3,0,0,0,1.145-.242,2.706,2.706,0,0,0,1.628-1.627,3.012,3.012,0,0,0,.241-1.145,3.1,3.1,0,0,0-.874-2.139,2.979,2.979,0,0,0-.483-.363,1.631,1.631,0,0,0-.512-.27,1.96,1.96,0,0,0-.542-.183A2.908,2.908,0,0,0-2883.863,290.463Zm74.277,30.615h-1.98V315.05h1.408a12.279,12.279,0,0,1,1.342.067,4.121,4.121,0,0,1,1.122.285,1.893,1.893,0,0,1,1.188,1.057,4.045,4.045,0,0,1,.219,1.276,3.445,3.445,0,0,1-.813,2.574A3.524,3.524,0,0,1-2809.586,321.079Zm-97.43-36.564v0l4.668-21.469a27.129,27.129,0,0,1,3.571-8.687,27.114,27.114,0,0,1,6.063-6.746,27.279,27.279,0,0,1,7.884-4.368,27,27,0,0,1,9.031-1.553,27.408,27.408,0,0,1,5.486.558l36.935,7.7a32.96,32.96,0,0,0,6.76.7,32.971,32.971,0,0,0,6.761-.7l36.935-7.7a27.417,27.417,0,0,1,5.482-.557,27.006,27.006,0,0,1,9.031,1.553,27.282,27.282,0,0,1,7.884,4.367,27.128,27.128,0,0,1,6.065,6.745,27.145,27.145,0,0,1,3.573,8.686l4.667,21.47a27.076,27.076,0,0,0-17.091-6.1h-126.614a27.057,27.057,0,0,0-17.091,6.1Zm14.143-44.067v0l6.45-23.564a39.148,39.148,0,0,1,5.387-11.691,39.2,39.2,0,0,1,8.629-9.121,39.2,39.2,0,0,1,11.065-5.935,39.141,39.141,0,0,1,12.7-2.133h44.058a39.142,39.142,0,0,1,12.7,2.133,39.2,39.2,0,0,1,11.065,5.936,39.192,39.192,0,0,1,8.629,9.122,39.136,39.136,0,0,1,5.387,11.692l6.449,23.561a33.416,33.416,0,0,0-14.2-4.653l-5.724-20.977a24.232,24.232,0,0,0-23.279-17.773h-46.112a24.233,24.233,0,0,0-23.279,17.771l-5.724,20.978a33.365,33.365,0,0,0-14.2,4.657Zm27.694-28.517,0,0a18.155,18.155,0,0,1,6.585-6.474,18.131,18.131,0,0,1,8.921-2.385h46.112a18.136,18.136,0,0,1,8.92,2.385,18.134,18.134,0,0,1,6.582,6.473,44.779,44.779,0,0,0-16.529-3.164h-44.058a44.742,44.742,0,0,0-16.531,3.166Z" transform="translate(6264.805 -877)" fill="#36ecce"/>
  </g>
</svg>
