<svg xmlns="http://www.w3.org/2000/svg" width="798.648" height="505" viewBox="0 0 798.648 505">
  <g id="Group_559" data-name="Group 559" transform="translate(0 0)">
    <path id="Path_98" data-name="Path 98" d="M794.8,439.6c-3.868,33.142-11.906,59.752-22.939,80.973-14.681,28.276-39.793,39.668-62.226,51.589a141.878,141.878,0,0,1-20.157,8.765c-40.821,14.167-86.508,10.409-122.4,2.929a482.483,482.483,0,0,0-76.407-9.66q-10.989-.5-22-.492c-11.319.015-215.129,3.883-264.75-96.579-12.251-24.782-20.649-55.054-23.666-91.955-8.537-104.323,38.384-172.84,98.906-217.624,114.49-84.717,271.423-81.164,384.225,5.784C738.524,231.25,808.876,318.9,794.8,439.6Z" transform="translate(-88.778 -106.019)" fill="#363636"/>
    <path id="Path_99" data-name="Path 99" d="M780.8,567.9c-14.681,28.276-34.655,47.009-57.087,58.93a141.868,141.868,0,0,1-20.157,8.765c-40.821,14.167-86.508,10.409-122.4,2.929a482.49,482.49,0,0,0-76.407-9.66q-10.989-.5-22-.492-16.979.022-33.95,1.263c-73.53,5.4-186.317-4.72-235.939-105.182L337.017,283.981l46.209,118.637,14.747,37.87,40.644-55.773,20.987-28.8L555.178,465.49l27.013-59.656L769.213,558.458l10.431,8.508Z" transform="translate(-97.717 -153.348)" fill="#f2f2f2"/>
    <path id="Path_100" data-name="Path 100" d="M302,267.8l19.085-41.841,26.426,60.926-22.756-44.043Z" transform="translate(-80.316 -60.094)" opacity="0.1"/>
    <path id="Path_101" data-name="Path 101" d="M571.815,685.571q-10.989-.5-22-.492L465.04,497.191Z" transform="translate(-164.783 -210.05)" opacity="0.1"/>
    <path id="Path_102" data-name="Path 102" d="M464.411,309.279,485.4,292.962,580.824,403.07l-96.895-93.959Z" transform="translate(-123.509 -77.913)" opacity="0.1"/>
    <path id="Path_103" data-name="Path 103" d="M847.731,692.6a141.878,141.878,0,0,1-20.157,8.765L679.2,531.251Z" transform="translate(-221.739 -219.109)" opacity="0.1"/>
    <circle id="Ellipse_232" data-name="Ellipse 232" cx="2.202" cy="2.202" r="2.202" transform="translate(351.611 72.643)" fill="#f2f2f2"/>
    <circle id="Ellipse_233" data-name="Ellipse 233" cx="2.202" cy="2.202" r="2.202" transform="translate(290.685 148.251)" fill="#f2f2f2"/>
    <circle id="Ellipse_234" data-name="Ellipse 234" cx="1.468" cy="1.468" r="1.468" transform="translate(440.431 162.198)" fill="#f2f2f2"/>
    <circle id="Ellipse_235" data-name="Ellipse 235" cx="1.468" cy="1.468" r="1.468" transform="translate(132.129 195.23)" fill="#f2f2f2"/>
    <circle id="Ellipse_236" data-name="Ellipse 236" cx="1.468" cy="1.468" r="1.468" transform="translate(449.24 71.175)" fill="#f2f2f2"/>
    <circle id="Ellipse_237" data-name="Ellipse 237" cx="1.468" cy="1.468" r="1.468" transform="translate(540.262 141.644)" fill="#f2f2f2"/>
    <circle id="Ellipse_238" data-name="Ellipse 238" cx="1.468" cy="1.468" r="1.468" transform="translate(629.816 253.22)" fill="#f2f2f2"/>
    <path id="Path_104" data-name="Path 104" d="M304.138,120.488h-2.026v-2.026h-1.086v2.026H299v1.087h2.026V123.6h1.086v-2.025h2.026Z" transform="translate(-79.519 -31.505)" fill="#f2f2f2"/>
    <path id="Path_105" data-name="Path 105" d="M846.138,423.488h-2.026v-2.026h-1.086v2.026H841v1.087h2.026V426.6h1.086v-2.025h2.026Z" transform="translate(-223.662 -112.087)" fill="#f2f2f2"/>
    <path id="Path_106" data-name="Path 106" d="M854.648,718.672c0,12.162-178.783,54.32-399.324,54.32S56,730.834,56,718.672s178.783,10.277,399.324,10.277S854.648,706.51,854.648,718.672Z" transform="translate(-56 -267.992)" fill="#3f3d56"/>
    <path id="Path_107" data-name="Path 107" d="M854.648,718.672c0,12.162-178.783,54.32-399.324,54.32S56,730.834,56,718.672s178.783,10.277,399.324,10.277S854.648,706.51,854.648,718.672Z" transform="translate(-56 -267.992)" fill="#effbff" opacity="0.1"/>
    <ellipse id="Ellipse_239" data-name="Ellipse 239" cx="399.324" cy="22.022" rx="399.324" ry="22.022" transform="translate(0 428.658)" fill="#363636"/>
    <path id="Path_108" data-name="Path 108" d="M606.447,652.45c0,24.324-10.845,17.617-24.224,17.617S558,676.774,558,652.45s24.224-70.469,24.224-70.469S606.447,628.126,606.447,652.45Z" transform="translate(-189.506 -232.6)" fill="#fc93ee"/>
    <path id="Path_109" data-name="Path 109" d="M598.022,679.055c0,11.057-4.93,8.008-11.011,8.008S576,690.111,576,679.055s11.011-32.031,11.011-32.031S598.022,668,598.022,679.055Z" transform="translate(-194.293 -249.898)" opacity="0.1"/>
    <rect id="Rectangle_131" data-name="Rectangle 131" width="67.533" height="13.213" rx="6.606" transform="translate(358.951 444.073)" fill="#2f2e41"/>
    <rect id="Rectangle_132" data-name="Rectangle 132" width="67.533" height="13.213" rx="6.606" transform="translate(358.951 430.86)" fill="#2f2e41"/>
    <path id="Path_110" data-name="Path 110" d="M193,596.547c0,40.625,25.486,73.5,56.982,73.5" transform="translate(-92.435 -236.474)" fill="#3f3d56"/>
    <path id="Path_111" data-name="Path 111" d="M270.626,669.745c0-41.081,28.441-74.323,63.588-74.323" transform="translate(-113.079 -236.175)" fill="#f9d9ff"/>
    <path id="Path_112" data-name="Path 112" d="M221.125,601.564c0,38.589,16.252,69.815,36.336,69.815" transform="translate(-99.915 -237.808)" fill="#f9d9ff"/>
    <path id="Path_113" data-name="Path 113" d="M270.626,662.265c0-52.493,32.873-94.969,73.5-94.969" transform="translate(-113.079 -228.695)" fill="#3f3d56"/>
    <path id="Path_114" data-name="Path 114" d="M254.295,695.8s8.081-.249,10.516-1.983,12.431-3.8,13.035-1.024,12.144,13.833,3.021,13.906-21.2-1.421-23.629-2.9S254.295,695.8,254.295,695.8Z" transform="translate(-108.736 -261.708)" fill="#a8a8a8"/>
    <path id="Path_115" data-name="Path 115" d="M281.03,707.307c-9.123.074-21.2-1.421-23.629-2.9-1.851-1.128-2.589-5.174-2.836-7.04l-.27.01s.512,6.517,2.943,8,14.506,2.975,23.629,2.9c2.634-.021,3.543-.958,3.493-2.346C283.995,706.767,282.99,707.291,281.03,707.307Z" transform="translate(-108.736 -263.286)" opacity="0.2"/>
    <path id="Path_116" data-name="Path 116" d="M777.429,633.081c0,27.915,17.513,50.5,39.155,50.5" transform="translate(-247.863 -246.19)" fill="#3f3d56"/>
    <path id="Path_117" data-name="Path 117" d="M830.769,683.379c0-28.229,19.543-51.071,43.694-51.071" transform="translate(-262.048 -245.984)" fill="#f9d9ff"/>
    <path id="Path_118" data-name="Path 118" d="M796.755,636.528c0,26.517,11.167,47.973,24.968,47.973" transform="translate(-253.002 -247.107)" fill="#f9d9ff"/>
    <path id="Path_119" data-name="Path 119" d="M830.769,678.239c0-36.07,22.589-65.258,50.5-65.258" transform="translate(-262.048 -240.845)" fill="#3f3d56"/>
    <path id="Path_120" data-name="Path 120" d="M819.548,701.28s5.553-.171,7.226-1.363,8.542-2.615,8.957-.7,8.345,9.505,2.076,9.556-14.567-.977-16.237-1.994S819.548,701.28,819.548,701.28Z" transform="translate(-259.064 -263.529)" fill="#a8a8a8"/>
    <path id="Path_121" data-name="Path 121" d="M837.918,709.189c-6.269.051-14.567-.976-16.237-1.994-1.272-.775-1.779-3.555-1.948-4.838l-.185.007s.352,4.478,2.022,5.5,9.968,2.044,16.237,1.994c1.81-.015,2.435-.658,2.4-1.612C839.955,708.818,839.265,709.178,837.918,709.189Z" transform="translate(-259.064 -264.614)" opacity="0.2"/>
    <path id="Path_122" data-name="Path 122" d="M949.813,722.136s8.338-1.269,10.644-3.37,12.4-5.5,13.372-2.692,14.309,12.807,4.869,14.025-22.134,1.181-24.837-.048S949.813,722.136,949.813,722.136Z" transform="translate(-293.708 -267.979)" fill="#a8a8a8"/>
    <path id="Path_123" data-name="Path 123" d="M978.746,731.642c-9.44,1.218-22.134,1.181-24.837-.048-2.058-.936-3.329-5.034-3.818-6.937l-.278.045s1.346,6.686,4.049,7.915,15.4,1.266,24.837.048c2.725-.352,3.55-1.436,3.325-2.867C981.749,730.713,980.774,731.381,978.746,731.642Z" transform="translate(-293.708 -270.545)" opacity="0.2"/>
    <path id="Path_124" data-name="Path 124" d="M670.26,721.717s7.037-1.071,8.983-2.844,10.464-4.639,11.286-2.272,12.076,10.809,4.109,11.837-18.68,1-20.961-.041S670.26,721.717,670.26,721.717Z" transform="translate(-219.361 -268.164)" fill="#a8a8a8"/>
    <path id="Path_125" data-name="Path 125" d="M694.677,729.739c-7.967,1.028-18.68,1-20.961-.041-1.737-.79-2.809-4.249-3.222-5.854l-.235.038s1.136,5.643,3.417,6.68,12.994,1.068,20.961.04c2.3-.3,3-1.212,2.806-2.42C697.212,728.955,696.389,729.519,694.677,729.739Z" transform="translate(-219.361 -270.328)" opacity="0.2"/>
    <path id="Path_126" data-name="Path 126" d="M178.389,717.413s5.479-.834,6.993-2.214,8.146-3.611,8.786-1.768,9.4,8.414,3.2,9.215-14.542.776-16.318-.032S178.389,717.413,178.389,717.413Z" transform="translate(-88.549 -267.373)" fill="#a8a8a8"/>
    <path id="Path_127" data-name="Path 127" d="M197.4,723.658c-6.2.8-14.542.776-16.318-.032-1.352-.615-2.187-3.308-2.508-4.558l-.183.029s.884,4.393,2.66,5.2,10.116.832,16.318.032c1.79-.231,2.332-.943,2.184-1.884C199.371,723.048,198.731,723.486,197.4,723.658Z" transform="translate(-88.549 -269.058)" opacity="0.2"/>
    <path id="Path_128" data-name="Path 128" d="M390.024,697.552c0,22.183-30.921,15.322-68.78,15.322s-68.321,6.862-68.321-15.322,30.917-27.008,68.776-27.008S390.024,675.369,390.024,697.552Z" transform="translate(-108.371 -256.153)" opacity="0.1"/>
    <path id="Path_129" data-name="Path 129" d="M390.024,690.112c0,22.183-30.921,15.322-68.78,15.322s-68.321,6.862-68.321-15.322S283.839,663.1,321.7,663.1,390.024,667.928,390.024,690.112Z" transform="translate(-108.371 -254.175)" fill="#363636"/>
    <path id="Path_130" data-name="Path 130" d="M442.085,555.719a33.232,33.232,0,0,0-5.18,3.282,11.137,11.137,0,0,0-3.6,4.877,45,45,0,0,1-2.23-6.592,108.513,108.513,0,0,0-4.557-11.866,15.769,15.769,0,0,0,7.163-5.492c3.523,3.508,7.145,7.166,8.9,11.818.3.8,1.181,1.656,1.385,2.374C444.25,555.134,442.855,555.3,442.085,555.719Z" transform="translate(-154.538 -221.416)" fill="#ffbfc5"/>
    <path id="Path_131" data-name="Path 131" d="M490.525,677.842a32.568,32.568,0,0,1,10.584,5.663,1.1,1.1,0,0,1,.481.651c.08.61-.734.858-1.325,1.028-1.737.5-2.847,2.132-4.127,3.41s-3.335,2.279-4.828,1.259a4.672,4.672,0,0,1-1.014-1.068l-6.305-8.23a38.215,38.215,0,0,1,6.713-2.947" transform="translate(-169.824 -258.032)" fill="#f1f1f1"/>
    <path id="Path_132" data-name="Path 132" d="M503.129,679.876c.835.852,1.2,2.077,2.016,2.944a7.36,7.36,0,0,0,1.866,1.295l4.824,2.655a13.941,13.941,0,0,0,2.331,1.1,21.385,21.385,0,0,0,2.768.578,20.053,20.053,0,0,1,3.9,1.152c.946.387,2,1.056,2,2.078a2.258,2.258,0,0,1-.579,1.343c-1.9,2.4-5.269,2.927-8.311,3.249-6.586.7-13.325,1.218-19.763-.334a8.429,8.429,0,0,1-3.473-1.5c-1.943-1.61-2.329-4.542-1.6-6.958a3.762,3.762,0,0,1,1.534-2.281c1.02-.584,2.29-.313,3.462-.4a10.9,10.9,0,0,0,3.569-1.137c.736-.332,1.584-.76,1.741-1.636.146-.812-.808-1.626-.607-2.351C499.249,678.057,502.359,679.091,503.129,679.876Z" transform="translate(-171.093 -258.354)" fill="#575a89"/>
    <path id="Path_133" data-name="Path 133" d="M503.129,679.876c.835.852,1.2,2.077,2.016,2.944a7.36,7.36,0,0,0,1.866,1.295l4.824,2.655a13.941,13.941,0,0,0,2.331,1.1,21.385,21.385,0,0,0,2.768.578,20.053,20.053,0,0,1,3.9,1.152c.946.387,2,1.056,2,2.078a2.258,2.258,0,0,1-.579,1.343c-1.9,2.4-5.269,2.927-8.311,3.249-6.586.7-13.325,1.218-19.763-.334a8.429,8.429,0,0,1-3.473-1.5c-1.943-1.61-2.329-4.542-1.6-6.958a3.762,3.762,0,0,1,1.534-2.281c1.02-.584,2.29-.313,3.462-.4a10.9,10.9,0,0,0,3.569-1.137c.736-.332,1.584-.76,1.741-1.636.146-.812-.808-1.626-.607-2.351C499.249,678.057,502.359,679.091,503.129,679.876Z" transform="translate(-171.093 -258.354)" opacity="0.1"/>
    <path id="Path_134" data-name="Path 134" d="M518.045,714.048q1.014.668,2.026,1.338a3.627,3.627,0,0,1,1.473,1.452c.439,1.033-.155,2.2-.816,3.108A17.876,17.876,0,0,1,512.917,726a11.71,11.71,0,0,1-3.392.846,1.444,1.444,0,0,1-.789-.1c-.618-.326-.529-1.209-.536-1.908-.022-2.027-1.552-3.673-2.928-5.162s-2.778-3.322-2.463-5.325a6.619,6.619,0,0,1,1.746-3.116,12.954,12.954,0,0,1,2.656-2.505c1.431-.937,1.936-.432,3.283.426Q514.287,711.575,518.045,714.048Z" transform="translate(-174.816 -266.175)" fill="#f1f1f1"/>
    <path id="Path_135" data-name="Path 135" d="M512.19,726.065a3.619,3.619,0,0,0,3.192-.72,8.128,8.128,0,0,0,2.073-2.665,22.375,22.375,0,0,0,1.283-2.826,6.04,6.04,0,0,1,1.815-3.082,3.823,3.823,0,0,1,4.145.3,21.743,21.743,0,0,1,3.178,3.044,21.482,21.482,0,0,0,9.025,5.022,98.159,98.159,0,0,0,10.2,2.18,5.8,5.8,0,0,1,1.962.632,3.952,3.952,0,0,1,1.457,4.294,9.562,9.562,0,0,1-2.541,4.069,10.173,10.173,0,0,1-3.377,2.615,10.726,10.726,0,0,1-3.421.648,58.14,58.14,0,0,1-16.868-1.321,46.268,46.268,0,0,0-6.184-1.235c-1.272-.112-2.553-.076-3.828-.163a20.039,20.039,0,0,1-7.3-1.926,2.584,2.584,0,0,1-1.331-1.1,2.75,2.75,0,0,1-.1-1.462l.845-7.4c.074-.644.288-1.445.928-1.545.61-.1,1.053.528,1.436,1.012a5.228,5.228,0,0,0,6.261,1.369" transform="translate(-175.547 -268.318)" fill="#575a89"/>
    <path id="Path_136" data-name="Path 136" d="M435.6,602.426c3.713-.418,8.019-.488,10.529,2.279,1.54,1.7,2.007,4.074,2.54,6.3a40.974,40.974,0,0,0,4.023,10.714,56.43,56.43,0,0,1,3.519,6.26,44.734,44.734,0,0,1,1.813,7.129A43.05,43.05,0,0,0,473.1,659.088c-1.339,3.643-5.213,5.724-8.981,6.654a3.864,3.864,0,0,1-4.615-1.257,62.026,62.026,0,0,1-4.916-6.023c-5.431-7.253-10.945-14.658-13.9-23.223-1.038-3.005-2.076-6.513-5-7.769a9.559,9.559,0,0,0-5.359-.19,72.89,72.89,0,0,0-11.755,3.018c-4.081,1.419-8.753,3.166-12.488.994a9.225,9.225,0,0,1-4.056-6.334,27.339,27.339,0,0,1-.01-7.728,7.952,7.952,0,0,1,.816-3.341,7.226,7.226,0,0,1,1.952-1.976,40.324,40.324,0,0,1,11-5.923c3.774-1.33,7.83-1.781,11.767-2.439Q431.559,602.882,435.6,602.426Z" transform="translate(-147.952 -237.98)" fill="#575a89"/>
    <path id="Path_137" data-name="Path 137" d="M435.6,602.426c3.713-.418,8.019-.488,10.529,2.279,1.54,1.7,2.007,4.074,2.54,6.3a40.974,40.974,0,0,0,4.023,10.714,56.43,56.43,0,0,1,3.519,6.26,44.734,44.734,0,0,1,1.813,7.129A43.05,43.05,0,0,0,473.1,659.088c-1.339,3.643-5.213,5.724-8.981,6.654a3.864,3.864,0,0,1-4.615-1.257,62.026,62.026,0,0,1-4.916-6.023c-5.431-7.253-10.945-14.658-13.9-23.223-1.038-3.005-2.076-6.513-5-7.769a9.559,9.559,0,0,0-5.359-.19,72.89,72.89,0,0,0-11.755,3.018c-4.081,1.419-8.753,3.166-12.488.994a9.225,9.225,0,0,1-4.056-6.334,27.339,27.339,0,0,1-.01-7.728,7.952,7.952,0,0,1,.816-3.341,7.226,7.226,0,0,1,1.952-1.976,40.324,40.324,0,0,1,11-5.923c3.774-1.33,7.83-1.781,11.767-2.439Q431.559,602.882,435.6,602.426Z" transform="translate(-147.952 -237.98)" opacity="0.1"/>
    <path id="Path_138" data-name="Path 138" d="M474.2,638.258a19.218,19.218,0,0,1,4.692,3.333,16.955,16.955,0,0,1,3.2,5.745,6.962,6.962,0,0,1,.554,2.215,2.53,2.53,0,0,1-.821,2.055,3.666,3.666,0,0,1-2.317.566q-1.615.013-3.228-.084a5.438,5.438,0,0,1-1.912-.362,5.341,5.341,0,0,1-1.49-1.128,20.889,20.889,0,0,1-4.571-6.173c-.779-1.719-2.062-5.679-.836-7.468C468.737,635.114,472.863,637.5,474.2,638.258Z" transform="translate(-165.295 -247.039)" fill="#ffbfc5"/>
    <path id="Path_139" data-name="Path 139" d="M391.062,638.142c5.491,1.759,11.336,1.96,17.077,2.5a142.607,142.607,0,0,1,28.468,5.627,15.141,15.141,0,0,1,5.367,2.5,15.967,15.967,0,0,1,3.114,3.961,67.261,67.261,0,0,1,4.091,7.153c1.043,2.229,1.838,4.564,2.808,6.826a47.985,47.985,0,0,0,14.968,19.171c1.2.911,2.531,1.9,2.839,3.375a4.7,4.7,0,0,1-.444,2.773c-1.416,3.3-4.354,5.7-7.437,7.531-1.326.789-2.784,1.59-3.436,2.989-4.686-1.935-8.17-6.059-11.069-10.218s-5.472-8.628-9.188-12.077c-1.637-1.519-3.5-2.842-4.785-4.667-1.965-2.786-2.5-6.6-5.142-8.746-2.664-2.165-6.487-1.87-9.9-1.535a243.036,243.036,0,0,1-52.6-.569c-3.63-.435-7.359-.99-10.5-2.855s-5.593-5.364-5.147-8.993c.417-3.4,3.246-6.09,6.4-7.419s6.639-1.568,10.039-1.951A105.864,105.864,0,0,0,391.062,638.142Z" transform="translate(-134.212 -247.536)" fill="#575a89"/>
    <path id="Path_140" data-name="Path 140" d="M337.453,620.126c.431-2.88,1.549-5.608,2.251-8.434a51.647,51.647,0,0,1,1.334-5.268c.018-.049.038-.1.056-.145a1.224,1.224,0,0,0,.9-.514,1.511,1.511,0,0,0,.076-.791,5.347,5.347,0,0,1,.025-.845,60.289,60.289,0,0,1,3.759-5.572c2.378-3.369,4.437-6.949,6.493-10.523,1.685-2.93,3.373-5.866,4.768-8.945,1.046-2.309,1.926-4.694,3.082-6.95,4.117-8.028,11.516-13.941,19.475-18.191,7.634-4.076,15.887-6.824,23.914-10.065a4.785,4.785,0,0,1,.56.661c4.337,5.928,4.8,13.718,6.589,20.843.721,2.877,1.684,5.744,1.682,8.709,0,4.377-2.095,8.45-4.174,12.3a67.022,67.022,0,0,1-6.555,10.461c-1.228,1.52-2.581,2.936-3.816,4.45-5.06,6.2-7.981,13.833-10.822,21.318-1.645,4.334-4.332,8.178-6.14,12.446a48.115,48.115,0,0,1-1.968,4.962,5.179,5.179,0,0,1-4.172,2.927,6.109,6.109,0,0,1-1.539-.241c-6.448-1.659-11.848-5.925-17.207-9.876-.956-.705-1.918-1.4-2.922-2.04s-2.066-1.219-3.118-1.8l-2.392-1.311c-2.613-1.432-5.229-2.865-7.951-4.076a14.32,14.32,0,0,1-2.349-1.206,14.344,14.344,0,0,1,.159-2.289Z" transform="translate(-130.809 -222.468)" fill="#5ac3ff"/>
    <circle id="Ellipse_240" data-name="Ellipse 240" cx="14.857" cy="14.857" r="14.857" transform="translate(276.091 304.097)" fill="#ffbfc5"/>
    <path id="Path_141" data-name="Path 141" d="M454.2,524.373a3.521,3.521,0,0,0,3.659,1.72,5.127,5.127,0,0,0,3.414-2.436,9.691,9.691,0,0,0,1.265-4.1,4.292,4.292,0,0,0-.619-3.24A7.25,7.25,0,0,0,460.031,515a7.223,7.223,0,0,1-2.347-2.376c-.416-.687-.714-1.437-1.088-2.148-1.351-2.567-3.98-4.654-6.88-4.559a29.757,29.757,0,0,0-4.092.816c-4.606.808-9.613-1.629-13.885.271a12.937,12.937,0,0,0-2.905,1.937q-1.8,1.488-3.469,3.136a7.179,7.179,0,0,0-2.114,3.077c-.58,2.18.8,4.615-.078,6.693a10.086,10.086,0,0,1-1.071,1.682c-.97,1.422.084,6.972-.023,8.689a3.222,3.222,0,0,0,.595,2.38,3.872,3.872,0,0,0,2.929.862l1.929.023a2.52,2.52,0,0,0,.856-.088,2.6,2.6,0,0,0,.971-.748c1.6-1.69,1.952-7.218,4.282-7.2a1.708,1.708,0,0,1,1.005.26c.422.31.547.878.846,1.308a2.465,2.465,0,0,0,2.862.668,6.413,6.413,0,0,0,2.437-1.969,9.611,9.611,0,0,1,2.278-2.176c1.242-.724,2.645-1.04,3.853-1.858a32.725,32.725,0,0,0,2.491-2.432,2.169,2.169,0,0,1,2.641-.148C453.481,521.851,453.544,523.074,454.2,524.373Z" transform="translate(-153.254 -212.371)" fill="#2f2e41"/>
    <path id="Path_142" data-name="Path 142" d="M413.589,566.635a23.664,23.664,0,0,1,10.353.831,5.48,5.48,0,0,1,2.885,1.712,5.237,5.237,0,0,1,.822,2.161,17.465,17.465,0,0,1-1.253,10.523,1.383,1.383,0,0,0-.173,1.125,1.975,1.975,0,0,0,.578.573,2.045,2.045,0,0,1-.124,3.059c-.277.2-.641.378-.695.717-.059.369.288.659.558.917a3.3,3.3,0,0,1,.921,3.031,6.64,6.64,0,0,0-.3,1.343,4.306,4.306,0,0,0,.485,1.6,6.984,6.984,0,0,1,.448,3.531,3.869,3.869,0,0,0-.041,1.727,3.916,3.916,0,0,0,.656,1.037c1.068,1.441,1.3,3.85-.247,4.753a3.579,3.579,0,0,1,1.909,3.692c.925-.494,2.046.138,2.817.849s1.558,1.581,2.605,1.633c.73.036,1.5-.342,2.166-.042,1.013.457.978,2.1,1.975,2.592.874.432,2.091-.273,2.836.356.259.219.391.558.642.787.565.518,1.448.3,2.214.267a5.213,5.213,0,0,1,4.421,2.7,13.231,13.231,0,0,1,1.516,5.177,6.954,6.954,0,0,1-.057,2.975,2.556,2.556,0,0,1-2.1,1.888c-9.118.59-18.115-1.6-26.992-3.758a20.87,20.87,0,0,1-7.434-2.951A22.611,22.611,0,0,1,410.138,616a70.619,70.619,0,0,1-7.112-11.434c-2.407-5.262-3.48-11.019-4.532-16.709a15.512,15.512,0,0,1-.382-4.661,13.144,13.144,0,0,1,2.052-5.111,54.573,54.573,0,0,1,4.154-5.856,15.191,15.191,0,0,1,9.271-5.6Z" transform="translate(-146.974 -228.456)" opacity="0.1"/>
    <path id="Path_143" data-name="Path 143" d="M414.408,565.816a23.664,23.664,0,0,1,10.353.831,5.481,5.481,0,0,1,2.885,1.712,5.237,5.237,0,0,1,.822,2.161,17.466,17.466,0,0,1-1.253,10.523,1.383,1.383,0,0,0-.173,1.125,1.976,1.976,0,0,0,.578.573,2.045,2.045,0,0,1-.124,3.059c-.277.2-.641.378-.695.717-.059.369.288.659.558.917a3.3,3.3,0,0,1,.921,3.031,6.643,6.643,0,0,0-.3,1.343,4.3,4.3,0,0,0,.485,1.6,6.985,6.985,0,0,1,.448,3.531,3.869,3.869,0,0,0-.041,1.727,3.917,3.917,0,0,0,.656,1.037c1.068,1.44,1.3,3.85-.247,4.753a3.579,3.579,0,0,1,1.909,3.692c.925-.494,2.046.138,2.817.849s1.558,1.581,2.605,1.633c.73.036,1.5-.342,2.166-.042,1.013.457.978,2.1,1.975,2.592.874.432,2.091-.273,2.836.356.259.219.391.558.642.787.565.518,1.448.3,2.214.267a5.213,5.213,0,0,1,4.421,2.7,13.23,13.23,0,0,1,1.516,5.177,6.954,6.954,0,0,1-.057,2.975,2.555,2.555,0,0,1-2.1,1.888c-9.118.59-18.115-1.6-26.992-3.758a20.87,20.87,0,0,1-7.434-2.951,22.609,22.609,0,0,1-4.846-5.434,70.619,70.619,0,0,1-7.112-11.434c-2.407-5.262-3.48-11.019-4.532-16.709a15.511,15.511,0,0,1-.382-4.661,13.142,13.142,0,0,1,2.052-5.111,54.575,54.575,0,0,1,4.154-5.857,15.191,15.191,0,0,1,9.271-5.6Z" transform="translate(-147.192 -228.238)" fill="#5ac3ff"/>
  </g>
</svg>
