<svg xmlns="http://www.w3.org/2000/svg" width="49.014" height="45.95" viewBox="0 0 49.014 45.95">
  <path id="Icon_awesome-cat" data-name="Icon awesome-cat" d="M27.818,17.567a18.389,18.389,0,0,0-15.565,8.228V17.567a9.2,9.2,0,0,0-9.19-9.19,3.063,3.063,0,1,0,0,6.127,3.067,3.067,0,0,1,3.063,3.063V42.074A6.132,6.132,0,0,0,12.254,48.2H29.1a1.531,1.531,0,0,0,1.532-1.532V45.137a3.064,3.064,0,0,0-3.063-3.063H24.507l12.254-9.19V46.669A1.531,1.531,0,0,0,38.292,48.2h3.063a1.531,1.531,0,0,0,1.532-1.532V26.935a12.131,12.131,0,0,1-3.063.435A12.273,12.273,0,0,1,27.818,17.567Zm15.069-9.19H36.761L30.634,2.25V15.116a9.19,9.19,0,0,0,18.38,0V2.25Zm-6.893,7.658A1.532,1.532,0,1,1,37.526,14.5,1.531,1.531,0,0,1,35.995,16.035Zm7.658,0A1.532,1.532,0,1,1,45.185,14.5,1.531,1.531,0,0,1,43.653,16.035Z" transform="translate(0 -2.25)" fill="#fc93ee"/>
</svg>
