<svg id="Group_532" data-name="Group 532" xmlns="http://www.w3.org/2000/svg" xmlns:xlink="http://www.w3.org/1999/xlink" width="682.353" height="678.5" viewBox="0 0 682.353 678.5">
  <defs>
    <linearGradient id="linear-gradient" x1="0.5" x2="0.5" y2="1" gradientUnits="objectBoundingBox">
      <stop offset="0" stop-color="#fab2ff"/>
      <stop offset="1" stop-color="#8de0ff"/>
    </linearGradient>
  </defs>
  <path id="Path_32" data-name="Path 32" d="M749.9,256.8q12.282,6.483,24.011,13.268" transform="translate(-287.134 -74.334)" fill="none" stroke="#fff" stroke-miterlimit="10" stroke-width="1"/>
  <path id="Path_33" data-name="Path 33" d="M562.441,223.849c35.714,7.723,74.705,21.054,113.985,39.868a545.206,545.206,0,0,1,81.364,47.753" transform="translate(-252.043 -68.166)" fill="none" stroke="#fff" stroke-miterlimit="10" stroke-width="1"/>
  <path id="Path_34" data-name="Path 34" d="M521.327,216.817c10.732,1.32,21.9,3.226,33.418,5.716" transform="translate(-244.346 -66.85)" fill="none" stroke="#fff" stroke-miterlimit="10" stroke-width="1"/>
  <path id="Path_35" data-name="Path 35" d="M387.243,328.295c-19.828-29.017-26.639-56.432-16.452-77.7,11.267-23.523,41.428-35.556,82.311-36.443" transform="translate(-215.289 -66.351)" fill="none" stroke="#fff" stroke-miterlimit="10" stroke-width="1"/>
  <path id="Path_36" data-name="Path 36" d="M896.571,434.318c16.527,26.6,21.654,51.546,12.228,71.226-8.3,17.318-26.83,28.408-52.345,33.408" transform="translate(-307.08 -107.565)" fill="none" stroke="#fff" stroke-miterlimit="10" stroke-width="1"/>
  <path id="Path_37" data-name="Path 37" d="M802.78,331.65a404.861,404.861,0,0,1,46.833,38.817" transform="translate(-297.032 -88.346)" fill="none" stroke="#fff" stroke-miterlimit="10" stroke-width="1"/>
  <path id="Path_38" data-name="Path 38" d="M378.605,171.275c32.912-7.071,75.5-5.814,123.135,3.576" transform="translate(-217.63 -57.479)" fill="none" stroke="#fff" stroke-miterlimit="10" stroke-width="1"/>
  <path id="Path_39" data-name="Path 39" d="M967.943,434.314c14.734,21.523,23.8,42.351,26.165,61.318" transform="translate(-327.95 -107.564)" fill="none" stroke="#fff" stroke-miterlimit="10" stroke-width="1"/>
  <path id="Path_40" data-name="Path 40" d="M779.444,273.12q22.169,12.818,42.184,26.513" transform="translate(-292.664 -77.39)" fill="none" stroke="#fff" stroke-miterlimit="10" stroke-width="1"/>
  <path id="Path_42" data-name="Path 42" d="M699.955,303.075H708.7s8.013,61.918,2.185,67.746-21.853,9.47-24.039,0,0-44.435,0-44.435Z" transform="translate(-275.148 -82.997)" fill="#9debf1"/>
  <ellipse id="Ellipse_17" data-name="Ellipse 17" cx="53.177" cy="62.282" rx="53.177" ry="62.282" transform="translate(314.447 103.891)" fill="#f9a1d9"/>
  <path id="Path_43" data-name="Path 43" d="M616.185,249.416s2.914,24.039-5.828,29.138,10.2,34.237,10.2,34.237l22.582,5.828,15.3-21.125-2.914-21.853s-17.483-17.483-9.47-33.509Z" transform="translate(-260.581 -71.589)" fill="#ffc1c7"/>
  <path id="Path_44" data-name="Path 44" d="M616.185,249.416s2.914,24.039-5.828,29.138,10.2,34.237,10.2,34.237l22.582,5.828,15.3-21.125-2.914-21.853s-17.483-17.483-9.47-33.509Z" transform="translate(-260.581 -71.589)" opacity="0.1"/>
  <path id="Path_45" data-name="Path 45" d="M576.834,570.291s-8.741,79.4,0,98.341,32.052,72.116,32.052,72.116l-7.285,15.3,19.668-4.371,8.013-15.3s-9.47-37.151-10.927-50.263-12.384-37.151-12.384-37.151l20.4-86.685Z" transform="translate(-254.01 -131.518)" fill="#ffc1c7"/>
  <path id="Path_46" data-name="Path 46" d="M662.869,553.458s.728,80.129,5.828,92.558l-2.914,108.539,16.026,2.14s23.31-91.057,19.668-112.91.728-100.526.728-100.526Z" transform="translate(-270.842 -127.958)" fill="#ffc1c7"/>
  <circle id="Ellipse_18" data-name="Ellipse 18" cx="27.681" cy="27.681" r="27.681" transform="translate(339.943 132.3)" fill="#ffc1c7"/>
  <path id="Path_47" data-name="Path 47" d="M714.217,514.6s-19.668,13.112-27.681,3.642-106.353,5.828-118.737,2.914,6.556-49.535,6.556-73.573c0-17.985,6.527-45.346,9.812-57.992,1.107-4.254,1.843-6.84,1.843-6.84s7.474-21.263,6.075-30.1a7.6,7.6,0,0,0-.546-1.945,3.993,3.993,0,0,0-.43-.736c-3.489-4.655-13.491-38.6-17.373-53.177a65.8,65.8,0,0,1-1.566-6.556c0-2.185,26.953-8.741,33.691-9.055s8.559,9.055,8.559,9.055c2.185,1.457,12.384,26.953,12.384,26.953l9.47-24.039s-.729-5.1-1.457-5.1,10.774-6.877,10.774-6.877,11.808,8.333,18.364,6.877S685.807,299.7,685.807,299.7s-26.953,67.746-16.026,82.315S714.217,514.6,714.217,514.6Z" transform="translate(-252.259 -78.897)" fill="#9debf1"/>
  <path id="Path_48" data-name="Path 48" d="M626.13,772.877s-12.384,12.384-12.384,13.841l-10.2-4.371s-4.371,16.026-5.1,18.211-13.112,21.853-25.5,30.595,0,19.668,10.927,17.483,38.608-26.953,38.608-26.953,18.94,0,25.5-14.569C647.984,807.114,630.5,771.42,626.13,772.877Z" transform="translate(-253.043 -170.932)" fill="#f9a1d9"/>
  <path id="Path_49" data-name="Path 49" d="M679.308,797.277s-18.714-13.6-19.919-.971-1.206,40.307-1.206,40.307-5.828,18.211,12.384,16.026,19.668-7.285,19.668-7.285l-8.741-34.965v-15.3Z" transform="translate(-269.799 -174.321)" fill="#f9a1d9"/>
  <path id="Path_50" data-name="Path 50" d="M593.444,353.563c-3.489-4.655-13.491-38.6-17.373-53.177H579.6s8.873,34.724,14.27,53.912a3.992,3.992,0,0,0-.43-.736Z" transform="translate(-254.594 -82.494)" opacity="0.1"/>
  <path id="Path_51" data-name="Path 51" d="M643.924,414.5s-10.2.728-47.349-6.556a74.259,74.259,0,0,1-7.671-1.9c1.107-4.254,1.843-6.84,1.843-6.84s7.474-21.263,6.075-30.1c1.741,6.119,3.038,10.249,3.395,10.431,1.457.728,48.078,8.741,54.634,11.655S643.924,414.5,643.924,414.5Z" transform="translate(-256.996 -95.358)" opacity="0.1"/>
  <path id="Path_52" data-name="Path 52" d="M672.727,307.456s20.092-2.479,21.337.779,6.344,34.742,8.529,38.779,2.914,29.063-5.828,29.87-20.4-8.073-18.211-15.339S672.727,307.456,672.727,307.456Z" transform="translate(-272.687 -83.648)" opacity="0.1"/>
  <path id="Path_53" data-name="Path 53" d="M658.67,389.5s30.595,3.642,35.694,0,26.224-3.642,21.853,6.556-42.25,10.927-42.25,10.927H652.114Z" transform="translate(-268.829 -98.76)" fill="#ffc1c7"/>
  <path id="Path_54" data-name="Path 54" d="M577.172,294.112h-5.1s-10.2,2.185-8.741,34.237-8.741,53.177,28.409,60.461,47.349,6.556,47.349,6.556,17.483-20.4,10.927-23.31S596.84,361.129,595.383,360.4,577.172,294.112,577.172,294.112Z" transform="translate(-252.163 -81.319)" fill="#9debf1"/>
  <path id="Path_55" data-name="Path 55" d="M689.273,300.774s-12.764-47.886-22.963-47.886-21.853,2.185-13.112,11.655,19.668,19.668,20.4,24.767,3.642,12.384,3.642,12.384Z" transform="translate(-268.456 -73.602)" fill="#ffc1c7"/>
  <path id="Path_56" data-name="Path 56" d="M676.312,307.456s20.092-2.479,21.337.779,6.344,34.742,8.529,38.779,2.914,29.063-5.828,29.87-20.4-8.073-18.211-15.339S676.312,307.456,676.312,307.456Z" transform="translate(-273.358 -83.648)" fill="#9debf1"/>
  <circle id="Ellipse_19" data-name="Ellipse 19" cx="26.224" cy="26.224" r="26.224" transform="translate(334.115 107.532)" fill="#f9a1d9"/>
  <path id="Path_57" data-name="Path 57" d="M693.373,531.312c-40.7-6.707-86.734-21.287-133.175-43.532-52.878-25.328-97.686-56.478-129.614-87.96" transform="translate(-227.36 -101.107)" fill="none" stroke="#fff" stroke-miterlimit="10" stroke-width="1"/>
  <path id="Path_58" data-name="Path 58" d="M528.371,510.691a658.456,658.456,0,0,1-97.79-61.665" transform="translate(-227.359 -110.318)" fill="none" stroke="#fff" stroke-miterlimit="10" stroke-width="1"/>
  <circle id="Ellipse_20" data-name="Ellipse 20" cx="43.648" cy="43.648" r="43.648" transform="translate(0 18.283)" fill="url(#linear-gradient)"/>
  <circle id="Ellipse_21" data-name="Ellipse 21" cx="43.648" cy="43.648" r="43.648" transform="translate(10.238 0.5)" fill="none" stroke="#fff" stroke-miterlimit="10" stroke-width="1"/>
  <circle id="Ellipse_22" data-name="Ellipse 22" cx="25.395" cy="25.395" r="25.395" transform="translate(625.106 194.192)" fill="#9debf1"/>
  <circle id="Ellipse_23" data-name="Ellipse 23" cx="25.395" cy="25.395" r="25.395" transform="translate(631.063 183.846)" fill="none" stroke="#fff" stroke-miterlimit="10" stroke-width="1"/>
  <circle id="Ellipse_24" data-name="Ellipse 24" cx="36.506" cy="36.506" r="36.506" transform="translate(150.735 447.801)" fill="#f9d9ff"/>
  <circle id="Ellipse_25" data-name="Ellipse 25" cx="36.506" cy="36.506" r="36.506" transform="translate(159.298 432.928)" fill="none" stroke="#fff" stroke-miterlimit="10" stroke-width="1"/>
</svg>
