<svg xmlns="http://www.w3.org/2000/svg" width="421.874" height="285.409" viewBox="0 0 421.874 285.409">
  <g id="Group_236" data-name="Group 236" transform="translate(0 -0.001)">
    <path id="Path_1" data-name="Path 1" d="M831.938,206.23a24.808,24.808,0,0,1,24.774-23.512c.754,0,1.5.039,2.235.105a32.961,32.961,0,0,1,56.977-.027c.622-.047,1.247-.078,1.881-.078a24.808,24.808,0,0,1,24.774,23.511" transform="translate(-526.372 -139.473)" fill="#f2f2f2"/>
    <path id="Path_2" data-name="Path 2" d="M844.569,201.565a24.808,24.808,0,0,1,24.774-23.512c.754,0,1.5.039,2.235.105a32.961,32.961,0,0,1,56.977-.027c.622-.047,1.247-.078,1.881-.078a24.808,24.808,0,0,1,24.774,23.511" transform="translate(-533.836 -136.717)" fill="none" stroke="#3f3d56" stroke-miterlimit="10" stroke-width="1"/>
    <path id="Path_3" data-name="Path 3" d="M155.988,415.182a82.11,82.11,0,0,1,82-77.818c2.5,0,4.96.13,7.4.348a109.093,109.093,0,0,1,188.581-.089c2.057-.155,4.129-.259,6.226-.259a82.11,82.11,0,0,1,82,77.818" transform="translate(-126.933 -208.621)" fill="#f2f2f2"/>
    <path id="Path_4" data-name="Path 4" d="M197.794,399.742a82.11,82.11,0,0,1,82-77.818c2.5,0,4.96.13,7.4.348a109.093,109.093,0,0,1,188.581-.089c2.058-.155,4.129-.259,6.226-.259a82.11,82.11,0,0,1,82,77.818" transform="translate(-151.638 -199.497)" fill="none" stroke="#3f3d56" stroke-miterlimit="10" stroke-width="1"/>
    <path id="Path_5" data-name="Path 5" d="M84.962,161.93a33.567,33.567,0,0,1,33.52-31.813c1.02,0,2.028.053,3.025.142a44.6,44.6,0,0,1,77.093-.036c.841-.063,1.688-.106,2.545-.106a33.567,33.567,0,0,1,33.52,31.812" transform="translate(-84.962 -104.991)" fill="#f2f2f2"/>
    <path id="Path_6" data-name="Path 6" d="M102.053,155.618a33.567,33.567,0,0,1,33.52-31.813c1.02,0,2.028.053,3.025.142a44.6,44.6,0,0,1,77.093-.036c.841-.063,1.688-.106,2.545-.106a33.567,33.567,0,0,1,33.52,31.812" transform="translate(-95.062 -101.261)" fill="none" stroke="#3f3d56" stroke-miterlimit="10" stroke-width="1"/>
    <path id="Path_7" data-name="Path 7" d="M491.852,336.921s5.727,13.908-2.864,17.181c0,0,12.272,5.318,15.136,4.091s4.909-4.091,4.909-4.909-2.864-1.227-2.864-1.227-5.318.409-1.227-13.09Z" transform="translate(-323.713 -240.224)" fill="#fbbebe"/>
    <circle id="Ellipse_3" data-name="Ellipse 3" cx="10.227" cy="10.227" r="10.227" transform="translate(164.457 83.607)" fill="#fbbebe"/>
    <ellipse id="Ellipse_4" data-name="Ellipse 4" cx="9" cy="12.681" rx="9" ry="12.681" transform="translate(158.934 78.903)" fill="#ff6584"/>
    <ellipse id="Ellipse_5" data-name="Ellipse 5" cx="9" cy="12.681" rx="9" ry="12.681" transform="translate(152.389 74.812)" fill="#ff6584"/>
    <ellipse id="Ellipse_6" data-name="Ellipse 6" cx="4.5" cy="6.341" rx="4.5" ry="6.341" transform="translate(147.889 71.949)" fill="#ff6584"/>
    <path id="Path_8" data-name="Path 8" d="M536.988,297.017s2.454-4.909,11.454-7.363,26.59-31.908,26.59-31.908-.818-17.59,3.273-12.272.818,15.954.818,15.954l-10.556,18.233a39.712,39.712,0,0,1-7.311,9.174c-6.526,6.074-18.187,16.773-19.359,16.773C540.261,305.608,536.988,297.017,536.988,297.017Z" transform="translate(-352.077 -185.593)" fill="#fbbebe"/>
    <path id="Path_9" data-name="Path 9" d="M501.988,543.921s2.863,34.771,2.045,38.044-3.273,9.818.818,29.044-.818,18-.818,18l13.09,5.727s-4.5-22.09-3.682-28.226.409-18.817,2.863-27.408,2.863-32.726,2.863-32.726Z" transform="translate(-331.395 -362.546)" fill="#fbbebe"/>
    <path id="Path_10" data-name="Path 10" d="M501.988,543.921s2.863,34.771,2.045,38.044-3.273,9.818.818,29.044-.818,18-.818,18l13.09,5.727s-4.5-22.09-3.682-28.226.409-18.817,2.863-27.408,2.863-32.726,2.863-32.726Z" transform="translate(-331.395 -362.546)" opacity="0.1"/>
    <path id="Path_11" data-name="Path 11" d="M515.988,747.05c-1.014.7-3.62,1.419-8.49-3.756,0,0-2.864-4.091-5.318,0s-.818,4.5.818,6.545c1.58,1.974,14.214,15.385,19.5,14.84a2.53,2.53,0,0,0,.541-.114c4.909-1.636-2.045-6.954-2.045-6.954s-4.559-7.014-4.585-10.327a.273.273,0,0,0-.424-.235Z" transform="translate(-330.769 -479.287)" fill="#3f3d56"/>
    <path id="Path_12" data-name="Path 12" d="M396.146,533.921s-6.954,15.954-9.818,24.135c-1.5,4.3-6.051,5.659-10.032,5.985a34.309,34.309,0,0,0-14.019,4.225c-5.725,3.214-13.538,6.861-18.493,6.153-8.591-1.227-1.636,12.272-1.636,12.272s12.681-7.772,24.544-8.59,24.544-2.045,30.271-9.409,19.635-30.68,19.635-30.68Z" transform="translate(-235.371 -356.637)" fill="#fbbebe"/>
    <path id="Path_13" data-name="Path 13" d="M327.645,636.441s-4.091-2.863-.818-5.727a19.784,19.784,0,0,0,4.5-5.318s-5.727-6.136-7.772-2.863-11.045,18-9,22.5,4.091,5.727,6.545.818,8.645-8.774,8.645-8.774Z" transform="translate(-220.457 -408.432)" fill="#3f3d56"/>
    <path id="Path_14" data-name="Path 14" d="M499.008,373.755s-1.36,2.72-14,.1a7.762,7.762,0,0,0-8.553,3.99c-1.585,3.17-1.79,7.772,3.733,13.5,0,0,9.818,11.045,4.909,15.545s23.317-2.863,23.317-2.863-3.682-2.454-.409-9.818c2.571-5.785,2.365-9.045.372-11.566a12.634,12.634,0,0,1-2.388-5.338c-.559-2.738-1.938-6.17-5.347-6.413,0,0-3.583-.21-3.837.713S499.826,373.346,499.008,373.755Z" transform="translate(-315.734 -260.286)" fill="#5ac3ff"/>
    <path id="Path_15" data-name="Path 15" d="M422.641,387.925c-.084-.577-.188-1.15-.26-1.728-.247-1.975-1.186-6.76-4.435-5.937-4.075,1.033-8.575,11.26-8.575,11.26s-3.682,11.454-9,14.317-20.044,17.59-20.044,17.59-12.272,3.273-7.772,6.545,10.227-2.045,10.227-2.045l14.468-8.681a41.418,41.418,0,0,0,12.761-12c3.014-4.365,6.789-9.411,9.18-11.078a7.887,7.887,0,0,0,3.091-4.041,9.382,9.382,0,0,0,.358-4.2Z" transform="translate(-254.323 -265.778)" fill="#fbbebe"/>
    <path id="Path_16" data-name="Path 16" d="M436.946,450.879s-18.817-2.454-29.453,10.227-18.408,9-17.59,11.045,40.089,26.181,63,23.317c13.946-1.743,21.373-3.335,25.05-4.314a7.136,7.136,0,0,0,3.944-2.645,7.242,7.242,0,0,1,1.994-1.811,3.541,3.541,0,0,0,.952-5c-6.488-9.386-24.1-34.251-29.076-34.914C449.627,445.97,436.946,450.879,436.946,450.879Z" transform="translate(-265.125 -305.093)" fill="#5ac3ff"/>
    <ellipse id="Ellipse_7" data-name="Ellipse 7" cx="6.545" cy="4.704" rx="6.545" ry="4.704" transform="translate(168.343 78.085)" fill="#ff6584"/>
    <path id="Path_17" data-name="Path 17" d="M810.486,170.331a46.375,46.375,0,0,1,1.706-6.362c.739-2.022,1.674-3.747,2.717-3.747,2.527,0-8.846-10.741-8.846-10.741s-.714,1.327-1.9,3.115a44.064,44.064,0,0,1-2.831,3.854,21.13,21.13,0,0,1-4.751,4.4C791.532,164.012,810.486,170.331,810.486,170.331Z" transform="translate(-504.975 -129.46)" fill="#a0616a"/>
    <path id="Path_18" data-name="Path 18" d="M908.964,302.834s25.337,16.008,17.53,18.639-20.74-16.176-20.74-16.176Z" transform="translate(-569.992 -220.081)" fill="#a0616a"/>
    <path id="Path_19" data-name="Path 19" d="M811.748,213.333s12.135,8.849,15.681,15.58S849.413,250.6,849.413,250.6s-3.807,7.521-5.647,7.067-39.783-28.68-43.774-30.966S802.084,210.3,811.748,213.333Z" transform="translate(-506.76 -166.941)" fill="#5ac3ff"/>
    <path id="Path_20" data-name="Path 20" d="M811.748,213.333s12.135,8.849,15.681,15.58S849.413,250.6,849.413,250.6s-3.807,7.521-5.647,7.067-39.783-28.68-43.774-30.966S802.084,210.3,811.748,213.333Z" transform="translate(-506.76 -166.941)" opacity="0.1"/>
    <path id="Path_21" data-name="Path 21" d="M914.648,252.964s28.432,9.477,21.482,13.9-24.009-10.741-24.009-10.741Z" transform="translate(-573.754 -190.611)" fill="#a0616a"/>
    <path id="Path_22" data-name="Path 22" d="M859.816,567.21s12-5.055,10.741,2.527-6.95,14.532-6.95,18.323-10.741,12-12.637,10.109,3.159-9.477,1.9-13.9-2.527-14.532-2.527-14.532Z" transform="translate(-537.245 -375.333)" fill="#55536e"/>
    <path id="Path_23" data-name="Path 23" d="M859.816,567.21s12-5.055,10.741,2.527-6.95,14.532-6.95,18.323-10.741,12-12.637,10.109,3.159-9.477,1.9-13.9-2.527-14.532-2.527-14.532Z" transform="translate(-537.245 -375.333)" opacity="0.1"/>
    <path id="Path_24" data-name="Path 24" d="M850.549,581.111s12-5.055,10.741,2.527-6.95,14.532-6.95,18.323-10.741,12-12.636,10.109,3.159-9.477,1.9-13.9-2.527-14.532-2.527-14.532Z" transform="translate(-531.769 -383.547)" fill="#55536e"/>
    <path id="Path_25" data-name="Path 25" d="M796.149,470.744s37.278,35.382,36.014,38.541-9.477,10.109-9.477,10.109S794.253,482.117,796.149,470.744Z" transform="translate(-505.169 -319.303)" fill="#3f3d56"/>
    <path id="Path_26" data-name="Path 26" d="M796.149,470.744s37.278,35.382,36.014,38.541-9.477,10.109-9.477,10.109S794.253,482.117,796.149,470.744Z" transform="translate(-505.169 -319.303)" opacity="0.1"/>
    <path id="Path_27" data-name="Path 27" d="M737.05,312.717s9.477,9.477,6.95,27.8,1.9,36.014,6.95,41.7,25.9,38.541,25.9,38.541-8.845,14.532-15.8,6.95-27.8-38.541-27.8-38.541-18.955-37.277-20.85-47.387-2.527-25.9,2.527-29.064S737.05,312.717,737.05,312.717Z" transform="translate(-454.915 -225.091)" fill="#3f3d56"/>
    <path id="Path_28" data-name="Path 28" d="M812.961,151.853c7.38,1.529,6.647,1.826,11.183,3.418.025-.076.051-.139.076-.2.7-1.655,1.131.518,2.136.518,2.527,0-8.846-10.741-8.846-10.741s-.43.8-1.169,1.99c-.221.348-.461.727-.727,1.125-.221.335-.461.689-.714,1.055Z" transform="translate(-515.158 -126.721)" opacity="0.1"/>
    <circle id="Ellipse_8" data-name="Ellipse 8" cx="12.005" cy="12.005" r="12.005" transform="translate(299.193 9.911)" fill="#a0616a"/>
    <path id="Path_29" data-name="Path 29" d="M746.01,175.737s18.323,1.9,22.114,10.109-23.378,48.019-25.273,48.65-28.432,3.791-28.432,3.791,1.264-40.437,25.9-55.6C740.324,182.687,746.01,180.16,746.01,175.737Z" transform="translate(-456.926 -144.975)" fill="#5ac3ff"/>
    <path id="Path_30" data-name="Path 30" d="M801.473,186.521s13.9,5.686,18.955,11.373,26.537,15.8,26.537,15.8-1.9,8.214-3.791,8.214-45.491-18.323-49.914-19.587S791.364,185.889,801.473,186.521Z" transform="translate(-502.28 -151.337)" fill="#5ac3ff"/>
    <path id="Path_31" data-name="Path 31" d="M837.912,132.748s3.159-3.159-3.159-5.686c0,0,6.318-2.527,7.582-6.318s5.686-10.109,9.477,0,10.741,23.378-12,23.378c0,0-5.686,1.264-5.686-3.791a9.478,9.478,0,0,1,3.791-7.582Z" transform="translate(-527.662 -109.252)" fill="#3f3d56"/>
  </g>
</svg>
