<svg xmlns="http://www.w3.org/2000/svg" width="405" height="295.768" viewBox="0 0 405 295.768">
  <g id="Group_259" data-name="Group 259" transform="translate(0 0.001)">
    <path id="Path_548" data-name="Path 548" d="M622.443,239.6v60.343H295.5V256.956a170.929,170.929,0,0,1,31.939-63.737l228.194-36.757a172.572,172.572,0,0,1,19.641,14.975L440,223.037l149.756-37.222a172.353,172.353,0,0,1,16.689,21.958l-30.563,22.851,34.532-16.344a171.859,171.859,0,0,1,8.646,17.033Q620.857,235.406,622.443,239.6Z" transform="translate(-217.442 -128.541)" fill="#f2f2f2"/>
    <path id="Path_549" data-name="Path 549" d="M586.5,105.452a171.865,171.865,0,0,0-207.213,44.542C433.237,138.174,527.164,117.711,586.5,105.452Z" transform="translate(-266.989 -88.141)" fill="#f2f2f2"/>
    <path id="Path_550" data-name="Path 550" d="M622.442,349.985V454.462H298.017a5.053,5.053,0,0,1-2.518-4.37V363.359a23.738,23.738,0,0,1,23.745-23.741h292.83a10.368,10.368,0,0,1,10.367,10.366Z" transform="translate(-217.442 -236.845)" fill="#2f2e41"/>
    <path id="Path_551" data-name="Path 551" d="M980.592,598.966c0-4.153-2.107-7.52-4.707-7.52-1.634,0-3.073,1.33-3.917,3.35a2.363,2.363,0,0,0-.9-.18,2.82,2.82,0,0,0-2.108,1.086c-.761-2.518-2.374-4.255-4.241-4.255-1.746,0-3.268,1.52-4.081,3.775a2.571,2.571,0,0,0-1.611-.606c-1.995,0-3.612,2.584-3.612,5.771a8.408,8.408,0,0,0,.569,3.107h23.658A10.7,10.7,0,0,0,980.592,598.966Z" transform="translate(-607.665 -385.757)" fill="#3f3d56"/>
    <path id="Path_552" data-name="Path 552" d="M394.093,589.2c0-5.944-2.107-10.763-4.707-10.763-1.634,0-3.073,1.9-3.917,4.794a1.768,1.768,0,0,0-.9-.258,2.673,2.673,0,0,0-2.108,1.554c-.761-3.6-2.374-6.09-4.241-6.09-1.746,0-3.268,2.175-4.081,5.4a2.186,2.186,0,0,0-1.611-.867c-1.995,0-3.612,3.7-3.612,8.26a16.714,16.714,0,0,0,.569,4.448h23.658A21.059,21.059,0,0,0,394.093,589.2Z" transform="translate(-260.855 -378.064)" fill="#3f3d56"/>
    <path id="Path_553" data-name="Path 553" d="M355.335,385.134h2.414a4.151,4.151,0,0,1,4.139,4.139v26.211a7.242,7.242,0,0,0,7.242,7.242h0a7.242,7.242,0,0,0,7.242-7.242V352.026a4.151,4.151,0,0,1,4.139-4.139h2.414a4.151,4.151,0,0,1,4.138,4.139v63.457a7.242,7.242,0,0,0,7.242,7.242h0a7.242,7.242,0,0,0,7.242-7.242V376.857a4.151,4.151,0,0,1,4.139-4.139H408.1a4.151,4.151,0,0,1,4.139,4.139v38.626a7.242,7.242,0,0,0,7.242,7.242h0a7.242,7.242,0,0,0,7.242-7.242V403.758a4.151,4.151,0,0,1,4.139-4.139h2.414a4.151,4.151,0,0,1,4.139,4.139v11.726a7.242,7.242,0,0,0,7.242,7.242h0a7.242,7.242,0,0,0,7.242-7.242v-41.04a4.151,4.151,0,0,1,4.138-4.139h2.414a4.151,4.151,0,0,1,4.139,4.139v41.04a7.242,7.242,0,0,0,7.242,7.242h0a7.242,7.242,0,0,0,7.242-7.242V363.407a4.151,4.151,0,0,1,4.139-4.138h2.414a4.151,4.151,0,0,1,4.138,4.138v52.077a7.242,7.242,0,0,0,7.242,7.242h0a7.242,7.242,0,0,0,7.242-7.242V389.273a4.151,4.151,0,0,1,4.139-4.139H508.8a4.151,4.151,0,0,1,4.138,4.139v26.211a7.242,7.242,0,0,0,7.242,7.242h0a7.242,7.242,0,0,0,7.242-7.242V376.857a4.151,4.151,0,0,1,4.138-4.139h2.414a4.151,4.151,0,0,1,4.139,4.139v38.626a7.242,7.242,0,0,0,7.242,7.242h3.233a7.481,7.481,0,0,0,5.246-2.25,4.116,4.116,0,0,1,2.9-1.2h2.414a4.116,4.116,0,0,1,2.9,1.2,7.481,7.481,0,0,0,5.246,2.25h3.233a7.242,7.242,0,0,0,7.242-7.242V411.69a4.151,4.151,0,0,1,4.138-4.139h2.414a4.151,4.151,0,0,1,4.138,4.139v3.794a7.242,7.242,0,0,0,7.242,7.242h0a7.242,7.242,0,0,0,7.242-7.242v-41.04a4.151,4.151,0,0,1,4.139-4.139h2.414a4.151,4.151,0,0,1,4.138,4.138v41.04a7.242,7.242,0,0,0,7.242,7.242h0a7.242,7.242,0,0,0,7.242-7.242V389.273a4.151,4.151,0,0,1,4.139-4.139h2.414a4.128,4.128,0,0,1,3.1,1.415v-39.98a14.546,14.546,0,0,0-14.546-14.546h-259.5A12.543,12.543,0,0,0,351.2,344.567v44.706A4.151,4.151,0,0,1,355.335,385.134Z" transform="translate(-250.377 -232.355)" fill="#3f3d56"/>
    <rect id="Rectangle_260" data-name="Rectangle 260" width="2.026" height="80.03" transform="translate(305.262 107.409)" fill="#2f2e41"/>
    <path id="Path_554" data-name="Path 554" d="M844.882,302.738c.114,24.462-14.916,44.944-18.7,49.71-.548.686-.859,1.048-.859,1.048s-.431-.49-1.166-1.414c-3.963-4.977-16.771-22.576-18.634-44.217-.014-.152-.028-.3-.038-.455q-.176-2.219-.19-4.494a63.1,63.1,0,0,1,.952-11.091c.031-.2.069-.4.1-.607,4.07-22.365,18.5-39.061,18.5-39.061a84.855,84.855,0,0,1,8.129,11.574c.062.1.124.207.183.31a94.725,94.725,0,0,1,4.99,9.646c.055.114.1.228.152.341A72.452,72.452,0,0,1,844.882,302.738Z" transform="translate(-518.896 -185.128)" fill="#1ed56d"/>
    <rect id="Rectangle_261" data-name="Rectangle 261" width="2.026" height="80.03" transform="translate(180.762 92.234)" fill="#2f2e41"/>
    <path id="Path_555" data-name="Path 555" d="M540.239,265.6c.129,27.984-19.56,50.761-19.56,50.761s-19.9-22.595-20.027-50.579,19.56-50.761,19.56-50.761S540.111,237.62,540.239,265.6Z" transform="translate(-338.754 -163.171)" fill="#1ed56d"/>
    <path id="Path_556" data-name="Path 556" d="M459.751,386.154a1.4,1.4,0,1,1-2.369-1.485c.559-.892,2.455-1.284,2.455-1.284S460.311,385.261,459.751,386.154Z" transform="translate(-312.999 -262.725)" opacity="0.1"/>
    <path id="Path_557" data-name="Path 557" d="M783.8,412.314a1.4,1.4,0,1,1-2.369-1.485c.559-.892,2.455-1.284,2.455-1.284S784.361,411.421,783.8,412.314Z" transform="translate(-504.618 -278.194)" opacity="0.1"/>
    <path id="Path_558" data-name="Path 558" d="M606.077,400a1.4,1.4,0,1,1-2.726.625c-.235-1.026.828-2.644.828-2.644S605.842,398.972,606.077,400Z" transform="translate(-399.462 -271.355)" opacity="0.1"/>
    <path id="Path_559" data-name="Path 559" d="M895.529,491.138a1.4,1.4,0,1,1-2.726.625c-.235-1.026.828-2.644.828-2.644S895.294,490.112,895.529,491.138Z" transform="translate(-570.621 -325.249)" opacity="0.1"/>
    <path id="Path_560" data-name="Path 560" d="M578.792,438.688a2.4,2.4,0,1,1-4.684,1.074c-.4-1.764,1.423-4.545,1.423-4.545S578.387,436.924,578.792,438.688Z" transform="translate(-382.155 -293.375)" opacity="0.1"/>
    <path id="Path_561" data-name="Path 561" d="M701.9,458.43a2.4,2.4,0,1,1-4.245-2.252c.848-1.6,4.05-2.506,4.05-2.506S702.745,456.831,701.9,458.43Z" transform="translate(-455.016 -304.288)" opacity="0.1"/>
    <path id="Path_562" data-name="Path 562" d="M824.5,503.608a2.4,2.4,0,1,1-4.765-.626c.236-1.794,2.918-3.764,2.918-3.764S824.734,501.814,824.5,503.608Z" transform="translate(-527.412 -331.221)" opacity="0.1"/>
    <rect id="Rectangle_262" data-name="Rectangle 262" width="49.146" height="0.345" transform="matrix(0.696, -0.718, 0.718, 0.696, 161.728, 111.608)" fill="#3f3d56"/>
    <rect id="Rectangle_263" data-name="Rectangle 263" width="49.146" height="0.345" transform="matrix(0.696, -0.718, 0.718, 0.696, 165.177, 123.334)" fill="#3f3d56"/>
    <path id="Path_563" data-name="Path 563" d="M834.544,280.789l-26.917,27.783c.031-.2.069-.4.1-.607l26.631-27.487C834.424,280.582,834.486,280.685,834.544,280.789Z" transform="translate(-520.274 -201.875)" fill="#3f3d56"/>
    <rect id="Rectangle_264" data-name="Rectangle 264" width="49.146" height="0.345" transform="translate(287.966 133.694) rotate(-45.909)" fill="#3f3d56"/>
    <path id="Path_564" data-name="Path 564" d="M837.576,305.183l-32.784,33.836-.486.5-.248-.241.7-.717,32.67-33.722C837.479,304.955,837.527,305.069,837.576,305.183Z" transform="translate(-518.163 -216.281)" fill="#3f3d56"/>
    <path id="Path_565" data-name="Path 565" d="M536.161,284.57h-4.313v-4.312h4.313Zm-3.981-.332h3.649v-3.649H532.18Z" transform="translate(-357.2 -201.745)" fill="#2f2e41"/>
    <path id="Path_566" data-name="Path 566" d="M850.085,424.655h-4.313v-4.313h4.313Zm-3.981-.332h3.649v-3.649H846.1Z" transform="translate(-542.83 -284.579)" fill="#2f2e41"/>
    <circle id="Ellipse_54" data-name="Ellipse 54" cx="5.146" cy="5.146" r="5.146" transform="translate(125.016 34.26)" fill="#1ed56d" opacity="0.4"/>
    <circle id="Ellipse_55" data-name="Ellipse 55" cx="3.61" cy="3.61" r="3.61" transform="translate(117.029 38.254)" fill="#1ed56d" opacity="0.4"/>
    <circle id="Ellipse_56" data-name="Ellipse 56" cx="10.777" cy="10.777" r="10.777" transform="translate(343.795 15.436)" fill="#1ed56d" opacity="0.4"/>
    <circle id="Ellipse_57" data-name="Ellipse 57" cx="7.56" cy="7.56" r="7.56" transform="translate(331.637 32.36)" fill="#1ed56d" opacity="0.4"/>
    <path id="Path_567" data-name="Path 567" d="M446.029,526.605l-.328-.006a75.976,75.976,0,0,1,1.163-10.856c1.416-7.678,3.772-12.72,7-14.987l.188.268C446.51,506.319,446.033,526.4,446.029,526.605Z" transform="translate(-306.26 -332.13)" fill="#2f2e41"/>
    <path id="Path_568" data-name="Path 568" d="M456.047,547.493l-.328-.006c.007-.363.212-8.912,3.577-11.275l.188.268C456.255,538.748,456.049,547.406,456.047,547.493Z" transform="translate(-312.184 -353.096)" fill="#2f2e41"/>
    <circle id="Ellipse_58" data-name="Ellipse 58" cx="1.638" cy="1.638" r="1.638" transform="translate(148.018 165.648)" fill="#1ed56d"/>
    <circle id="Ellipse_59" data-name="Ellipse 59" cx="1.638" cy="1.638" r="1.638" transform="translate(147.207 179.733)" fill="#1ed56d"/>
    <path id="Path_569" data-name="Path 569" d="M451.494,498.974A7.274,7.274,0,0,1,451,502.7a6.63,6.63,0,0,1-1.115-7.119A7.275,7.275,0,0,1,451.494,498.974Z" transform="translate(-308.394 -329.068)" fill="#2f2e41"/>
    <path id="Path_570" data-name="Path 570" d="M462.322,512.137a7.275,7.275,0,0,1-3.754.162,6.63,6.63,0,0,1,6.816-2.338,7.275,7.275,0,0,1-3.063,2.176Z" transform="translate(-313.868 -337.456)" fill="#2f2e41"/>
    <path id="Path_571" data-name="Path 571" d="M464.094,543.685a5.1,5.1,0,0,1-2.631.114,4.647,4.647,0,0,1,4.778-1.639A5.1,5.1,0,0,1,464.094,543.685Z" transform="translate(-315.58 -356.531)" fill="#2f2e41"/>
    <path id="Path_572" data-name="Path 572" d="M140.585,722.534H0v-.817H140.177Z" transform="translate(0 -426.768)" fill="#2f2e41"/>
    <path id="Path_573" data-name="Path 573" d="M176.3,781.92s-2.466,10.314-.224,10.762,13.228.3,15.919.752,8.3-.3,8.3-2.322-5.829-3.363-5.829-3.363-8.3-4.484-8.52-4.708S176.3,781.92,176.3,781.92Z" transform="translate(-146.267 -498.388)" fill="#2f2e41"/>
    <path id="Path_574" data-name="Path 574" d="M178.2,631.623s.673,7.623.673,8.3-.673,11.21,0,11.659-.448,3.587-.448,4.708-3.587,19.73-2.69,26.9-1.345,6.5-.673,7.175.673.673.673,2.018,7.175,2.466,7.175,2.466l7.847-49.55-4.036-14.8Z" transform="translate(-146.146 -408.852)" fill="#575a89"/>
    <path id="Path_575" data-name="Path 575" d="M178.2,631.623s.673,7.623.673,8.3-.673,11.21,0,11.659-.448,3.587-.448,4.708-3.587,19.73-2.69,26.9-1.345,6.5-.673,7.175.673.673.673,2.018,7.175,2.466,7.175,2.466l7.847-49.55-4.036-14.8Z" transform="translate(-146.146 -408.852)" opacity="0.1"/>
    <path id="Path_576" data-name="Path 576" d="M184.224,787.943s-2.242,8.071,0,8.52,13.228-.514,15.919-.065,8.3.514,8.3-1.5-5.829-3.363-5.829-3.363-8.3-4.484-8.52-4.708S184.224,787.943,184.224,787.943Z" transform="translate(-151.053 -501.272)" fill="#2f2e41"/>
    <path id="Path_577" data-name="Path 577" d="M176.432,611.3s-2.691,6.5.448,9.865a45.578,45.578,0,0,1,6.726,10.538c0,.448-6.278,45.066-5.381,47.98s.673,4.708.448,5.157,2.242,2.915,4.933,2.915,6.726-2.018,7.175-3.811-.673-17.264-.448-20.179a33.782,33.782,0,0,1,1.794-8.071c.448-.9,2.915-1.794,3.363-4.484s4.036-36.994,2.915-38.115S176.432,611.3,176.432,611.3Z" transform="translate(-146.4 -397.497)" fill="#575a89"/>
    <circle id="Ellipse_60" data-name="Ellipse 60" cx="7.623" cy="7.623" r="7.623" transform="translate(39.449 146.99)" fill="#ffb9b9"/>
    <path id="Path_578" data-name="Path 578" d="M208.159,474.286s1.569,8.3.448,9.192,8.52,2.242,8.52,2.242,1.121-10.986,1.345-12.107S208.159,474.286,208.159,474.286Z" transform="translate(-165.796 -315.862)" fill="#ffb9b9"/>
    <path id="Path_579" data-name="Path 579" d="M198.845,493.433s-2.69-7.847-13.677-5.605c0,0-2.018.673-1.345,1.345s1.345.673.448,1.345-2.018,0-1.345.673-6.054,4.708-5.605,12.331-1.569,18.385,0,20.179-1.121,9.641-.673,11.21-2.69,3.587-1.345,4.26,25.56,4.708,26.232,0,.224-1.345.9-2.466.9-3.139.448-5.605-1.569-8.52-1.121-10.762,0-21.076-1.345-23.318A11.636,11.636,0,0,1,198.845,493.433Z" transform="translate(-146.168 -324.247)" fill="#1ed56d"/>
    <path id="Path_580" data-name="Path 580" d="M220.051,635.339s-3.363,12.78.9,12.78,4.036-13.228,4.036-13.228Z" transform="translate(-172.082 -411.447)" fill="#ffb9b9"/>
    <path id="Path_581" data-name="Path 581" d="M202.171,451.177c0,.65-.942,1.063-2.4,1.157h0a12.218,12.218,0,0,1-1.856-.036c-.933-.085-1.318.791-1.478,1.948-.26,1.908.1,4.583-.316,5-.578.578-4.8,0-6.114-1.314a1.218,1.218,0,0,1-.388-.7,3.746,3.746,0,0,0-1.126-2.092c-.778-.85-1.886-1.791-3.134-3.289-2.242-2.69,0-2.915.673-4.932s1.794-2.691,1.794-4.036,5.157-2.466,9.417-2.242,3.363,5.605,3.363,5.605.253.65.556,1.489a23.384,23.384,0,0,1,1,3.233A1.631,1.631,0,0,1,202.171,451.177Z" transform="translate(-151.736 -296.565)" fill="#2f2e41"/>
    <path id="Path_582" data-name="Path 582" d="M128.266,353.461v-2.018l-6.053.448-.828,3.348,1.7,2.155,4.063-2.589Z" transform="translate(-71.778 -207.816)" fill="#575a89"/>
    <path id="Path_583" data-name="Path 583" d="M128.266,353.461v-2.018l-6.053.448-.828,3.348,1.7,2.155,4.063-2.589Z" transform="translate(-71.778 -207.816)" opacity="0.1"/>
    <path id="Path_584" data-name="Path 584" d="M217.755,445.862l-4.036,1.121-4.036,2.466-1.587.91-2.383,1.368h0l-3.334,1.912-6.43,3.688a1.218,1.218,0,0,1-.388-.7,3.746,3.746,0,0,0-1.126-2.092l12.668-7.406,1.013-.592,6.054-6.95Z" transform="translate(-157.679 -295.957)" fill="#575a89"/>
    <path id="Path_585" data-name="Path 585" d="M213.011,510.351s-7.623-.448-8.3,10.762-.448,21.748-.448,21.972,3.139,21.524,6.054,21.524,5.157-.448,5.829-1.57-1.794-17.264-1.794-17.264-1.121-17.04.673-22.421S217.047,511.024,213.011,510.351Z" transform="translate(-163.473 -337.802)" opacity="0.1"/>
    <path id="Path_586" data-name="Path 586" d="M215.754,507.608s-7.623-.448-8.3,10.762-.448,21.748-.448,21.972,3.139,21.524,6.054,21.524,5.157-.448,5.829-1.57-1.794-17.264-1.794-17.264-1.121-17.04.673-22.421S219.79,508.281,215.754,507.608Z" transform="translate(-165.095 -336.18)" fill="#1ed56d"/>
  </g>
</svg>
