<svg xmlns="http://www.w3.org/2000/svg" width="782.787" height="434.193" viewBox="0 0 782.787 434.193">
  <g id="Group_626" data-name="Group 626" transform="translate(0 0.006)">
    <circle id="Ellipse_60" data-name="Ellipse 60" cx="44.831" cy="44.831" r="44.831" transform="translate(160.411 46.35)" fill="#ff6584"/>
    <path id="Path_59" data-name="Path 59" d="M519.2,439.528H299.271a4.492,4.492,0,0,1-.822-.065L402.465,259.291a7.283,7.283,0,0,1,12.678,0L484.951,380.2l3.344,5.786Z" transform="translate(-173.372 -210.192)" fill="#3f3d56"/>
    <path id="Path_60" data-name="Path 60" d="M381.647,251.829H306.558l36.861-53.542,2.653-3.857L347.4,192.5l3.344,5.785Z" transform="translate(-35.819 -22.493)" opacity="0.2"/>
    <path id="Path_61" data-name="Path 61" d="M661.9,446.554H471.675l36.861-53.542,2.653-3.857,48.033-69.776c3.149-4.573,10.725-4.858,14.427-.862a8.676,8.676,0,0,1,.692.862Z" transform="translate(-193.613 -217.217)" fill="#3f3d56"/>
    <circle id="Ellipse_61" data-name="Ellipse 61" cx="13.509" cy="13.509" r="13.509" transform="translate(510.611 172.677)" fill="#f9d9ff"/>
    <path id="Path_62" data-name="Path 62" d="M594.572,251.241H591.8l1.261-42.725Z" transform="translate(-69.149 -24.364)" fill="#3f3d56"/>
    <path id="Path_63" data-name="Path 63" d="M593.461,217.141l2.971-4.11-3.012,5.128-.325-.57Z" transform="translate(-69.299 -24.892)" fill="#3f3d56"/>
    <path id="Path_64" data-name="Path 64" d="M592.748,221.84l-2.971-4.109,3.012,5.127.325-.57Z" transform="translate(-68.912 -25.441)" fill="#3f3d56"/>
    <circle id="Ellipse_62" data-name="Ellipse 62" cx="13.509" cy="13.509" r="13.509" transform="translate(634.533 172.677)" fill="#f9d9ff"/>
    <path id="Path_65" data-name="Path 65" d="M734.888,251.241h-2.767l1.262-42.725Z" transform="translate(-85.544 -24.364)" fill="#3f3d56"/>
    <path id="Path_66" data-name="Path 66" d="M733.778,217.141l2.971-4.11-3.011,5.128-.326-.57Z" transform="translate(-85.694 -24.892)" fill="#3f3d56"/>
    <path id="Path_67" data-name="Path 67" d="M733.065,221.84l-2.971-4.109,3.012,5.127.325-.57Z" transform="translate(-85.307 -25.441)" fill="#3f3d56"/>
    <circle id="Ellipse_63" data-name="Ellipse 63" cx="19.952" cy="19.952" r="19.952" transform="translate(543.303 146.828)" fill="#f9d9ff"/>
    <path id="Path_68" data-name="Path 68" d="M639.411,248.546h-4.086l1.863-63.1Z" transform="translate(-74.234 -21.669)" fill="#3f3d56"/>
    <path id="Path_69" data-name="Path 69" d="M637.771,198.182l4.387-6.069-4.447,7.572-.481-.842Z" transform="translate(-74.456 -22.448)" fill="#3f3d56"/>
    <path id="Path_70" data-name="Path 70" d="M636.718,205.123l-4.387-6.069,4.447,7.571.481-.841Z" transform="translate(-73.884 -23.259)" fill="#3f3d56"/>
    <circle id="Ellipse_64" data-name="Ellipse 64" cx="19.952" cy="19.952" r="19.952" transform="translate(591.959 146.828)" fill="#f9d9ff"/>
    <path id="Path_71" data-name="Path 71" d="M694.505,248.546h-4.086l1.863-63.1Z" transform="translate(-80.671 -21.669)" fill="#3f3d56"/>
    <path id="Path_72" data-name="Path 72" d="M692.865,198.182l4.388-6.069-4.448,7.572-.48-.842Z" transform="translate(-80.894 -22.448)" fill="#3f3d56"/>
    <path id="Path_73" data-name="Path 73" d="M691.812,205.123l-4.388-6.069,4.448,7.571.481-.841Z" transform="translate(-80.321 -23.259)" fill="#3f3d56"/>
    <circle id="Ellipse_65" data-name="Ellipse 65" cx="19.952" cy="19.952" r="19.952" transform="translate(465.757 146.828)" fill="#f9d9ff"/>
    <path id="Path_74" data-name="Path 74" d="M551.605,248.546h-4.086l1.864-63.1Z" transform="translate(-63.974 -21.669)" fill="#3f3d56"/>
    <path id="Path_75" data-name="Path 75" d="M549.966,198.182l4.387-6.069-4.447,7.572-.48-.842Z" transform="translate(-64.197 -22.448)" fill="#3f3d56"/>
    <path id="Path_76" data-name="Path 76" d="M548.913,205.123l-4.388-6.069,4.448,7.571.48-.841Z" transform="translate(-63.624 -23.259)" fill="#3f3d56"/>
    <path id="Path_77" data-name="Path 77" d="M879.664,667.843H228.543a62.469,62.469,0,0,1,0-124.938h649.68a24.027,24.027,0,1,0,0-48.053h-671.3V456.409h671.3a62.469,62.469,0,1,1,0,124.938H228.543a24.027,24.027,0,1,0,0,48.053H879.664Z" transform="translate(-157.905 -233.656)" fill="#e6e6e6"/>
    <rect id="Rectangle_88" data-name="Rectangle 88" width="29.793" height="1.922" transform="translate(73.041 241.013)" fill="#fff"/>
    <rect id="Rectangle_89" data-name="Rectangle 89" width="29.793" height="1.922" transform="translate(157.614 241.013)" fill="#fff"/>
    <rect id="Rectangle_90" data-name="Rectangle 90" width="29.793" height="1.922" transform="translate(242.188 241.013)" fill="#fff"/>
    <rect id="Rectangle_91" data-name="Rectangle 91" width="29.793" height="1.922" transform="translate(326.762 241.013)" fill="#fff"/>
    <rect id="Rectangle_92" data-name="Rectangle 92" width="29.793" height="1.922" transform="translate(411.335 241.013)" fill="#fff"/>
    <rect id="Rectangle_93" data-name="Rectangle 93" width="29.793" height="1.922" transform="translate(495.909 241.013)" fill="#fff"/>
    <rect id="Rectangle_94" data-name="Rectangle 94" width="29.793" height="1.922" transform="translate(580.483 241.013)" fill="#fff"/>
    <rect id="Rectangle_95" data-name="Rectangle 95" width="29.793" height="1.922" transform="translate(665.056 241.013)" fill="#fff"/>
    <rect id="Rectangle_96" data-name="Rectangle 96" width="29.793" height="1.922" transform="translate(73.041 327.508)" fill="#fff"/>
    <rect id="Rectangle_97" data-name="Rectangle 97" width="29.793" height="1.922" transform="translate(157.614 327.508)" fill="#fff"/>
    <rect id="Rectangle_98" data-name="Rectangle 98" width="29.793" height="1.922" transform="translate(242.188 327.508)" fill="#fff"/>
    <rect id="Rectangle_99" data-name="Rectangle 99" width="29.793" height="1.922" transform="translate(326.762 327.508)" fill="#fff"/>
    <rect id="Rectangle_100" data-name="Rectangle 100" width="29.793" height="1.922" transform="translate(411.335 327.508)" fill="#fff"/>
    <rect id="Rectangle_101" data-name="Rectangle 101" width="29.793" height="1.922" transform="translate(495.909 327.508)" fill="#fff"/>
    <rect id="Rectangle_102" data-name="Rectangle 102" width="29.793" height="1.922" transform="translate(580.483 327.508)" fill="#fff"/>
    <rect id="Rectangle_103" data-name="Rectangle 103" width="29.793" height="1.922" transform="translate(665.056 327.508)" fill="#fff"/>
    <rect id="Rectangle_104" data-name="Rectangle 104" width="29.793" height="1.922" transform="translate(73.041 414.004)" fill="#fff"/>
    <rect id="Rectangle_105" data-name="Rectangle 105" width="29.793" height="1.922" transform="translate(157.614 414.004)" fill="#fff"/>
    <rect id="Rectangle_106" data-name="Rectangle 106" width="29.793" height="1.922" transform="translate(242.188 414.004)" fill="#fff"/>
    <rect id="Rectangle_107" data-name="Rectangle 107" width="29.793" height="1.922" transform="translate(326.762 414.004)" fill="#fff"/>
    <rect id="Rectangle_108" data-name="Rectangle 108" width="29.793" height="1.922" transform="translate(411.335 414.004)" fill="#fff"/>
    <rect id="Rectangle_109" data-name="Rectangle 109" width="29.793" height="1.922" transform="translate(495.909 414.004)" fill="#fff"/>
    <rect id="Rectangle_110" data-name="Rectangle 110" width="29.793" height="1.922" transform="translate(580.483 414.004)" fill="#fff"/>
    <rect id="Rectangle_111" data-name="Rectangle 111" width="29.793" height="1.922" transform="translate(665.056 414.004)" fill="#fff"/>
    <path id="Path_78" data-name="Path 78" d="M731.3,298.213a25.6,25.6,0,0,0-5.339-5.037h11.149a18.648,18.648,0,0,0-5.81,5.037Z" transform="translate(-223.325 -214.583)" fill="none"/>
    <path id="Path_79" data-name="Path 79" d="M690.743,293.176h1.922c-.413.29-.827.579-1.221.892C691.218,293.764,690.978,293.472,690.743,293.176Z" transform="translate(-219.209 -214.583)" fill="none"/>
    <path id="Path_80" data-name="Path 80" d="M747.512,290.559a18.4,18.4,0,0,1,8.946,2.312H738.589a18.318,18.318,0,0,1,8.923-2.312Z" transform="translate(-224.8 -214.277)" fill="#e6e6e6"/>
    <path id="Path_81" data-name="Path 81" d="M707.5,287.941a25.278,25.278,0,0,1,14.6,4.623H692.919A25.273,25.273,0,0,1,707.5,287.941Z" transform="translate(-219.464 -213.972)" fill="#e6e6e6"/>
    <path id="Path_82" data-name="Path 82" d="M487.029,248.891A47.387,47.387,0,0,1,580,238.9c.574-.021,1.148-.044,1.727-.044a47.4,47.4,0,0,1,45.464,34.027,33.49,33.49,0,0,1,39.741,9.893H519.118A32.053,32.053,0,0,1,487,249.591Q487.009,249.242,487.029,248.891Z" transform="translate(-195.4 -204.184)" fill="#e6e6e6"/>
    <path id="Path_83" data-name="Path 83" d="M776.818,337.389a25.6,25.6,0,0,1,5.339-5.037H771.008A18.647,18.647,0,0,1,776.818,337.389Z" transform="translate(-228.588 -219.161)" fill="none"/>
    <path id="Path_84" data-name="Path 84" d="M818.6,332.352h-1.922c.413.29.827.579,1.221.892C818.125,332.94,818.365,332.648,818.6,332.352Z" transform="translate(-233.924 -219.161)" fill="none"/>
    <path id="Path_85" data-name="Path 85" d="M759.722,329.734a18.4,18.4,0,0,0-8.946,2.312h17.868a18.318,18.318,0,0,0-8.923-2.312Z" transform="translate(-226.224 -218.855)" fill="#e6e6e6"/>
    <path id="Path_86" data-name="Path 86" d="M798.234,327.117a25.278,25.278,0,0,0-14.6,4.623h29.185A25.272,25.272,0,0,0,798.234,327.117Z" transform="translate(-230.063 -218.549)" fill="#e6e6e6"/>
    <path id="Path_87" data-name="Path 87" d="M998.758,288.067a47.387,47.387,0,0,0-92.973-9.991c-.574-.021-1.148-.044-1.727-.044a47.4,47.4,0,0,0-45.464,34.027,33.489,33.489,0,0,0-39.74,9.893H966.67a32.052,32.052,0,0,0,32.123-33.187Q998.776,288.417,998.758,288.067Z" transform="translate(-234.178 -208.762)" fill="#e6e6e6"/>
    <rect id="Rectangle_112" data-name="Rectangle 112" width="17.18" height="2.727" transform="matrix(-1, -0.001, 0.001, -1, 683.21, 407.335)" fill="#3f3d56"/>
    <path id="Path_88" data-name="Path 88" d="M770.332,654.177l3.544.82,134.711.072,1.211-2.822a28.486,28.486,0,0,0,2.094-15.4c-.58-3.9-2.034-7.771-5.336-9.453l-5.979-39.817-74.529-.133L797.215,610.7s-13.6-.244-20.991,8.955a21.594,21.594,0,0,0-4.517,11.892l-.292,4.786Z" transform="translate(-228.509 -248.966)" fill="#f9d9ff"/>
    <circle id="Ellipse_66" data-name="Ellipse 66" cx="16.634" cy="16.634" r="16.634" transform="translate(554.776 387.911)" fill="#3f3d56"/>
    <circle id="Ellipse_67" data-name="Ellipse 67" cx="8.755" cy="8.755" r="8.755" transform="translate(562.655 395.79)" fill="#ccc"/>
    <circle id="Ellipse_68" data-name="Ellipse 68" cx="16.634" cy="16.634" r="16.634" transform="translate(636.857 387.954)" fill="#3f3d56"/>
    <circle id="Ellipse_69" data-name="Ellipse 69" cx="8.755" cy="8.755" r="8.755" transform="translate(644.737 395.833)" fill="#ccc"/>
    <path id="Path_89" data-name="Path 89" d="M656.92,404.383l40.239.017h4.912l8.293.006v-.6l.006-7.293.006-8.189h-5.518l-4.912-.005-8.7-.006h-4.912l-10.045-.006Z" transform="translate(-76.757 -45.371)" fill="#fff"/>
    <path id="Path_90" data-name="Path 90" d="M724.849,404.416l21.266.012.005-4.173v-7.293l.006-4.621h-3.114l-4.912-.006-13.245-.005Z" transform="translate(-84.694 -45.374)" fill="#fff"/>
    <rect id="Rectangle_113" data-name="Rectangle 113" width="2.727" height="5.181" transform="matrix(-1, -0.001, 0.001, -1, 633.597, 376.221)" fill="#3f3d56"/>
    <rect id="Rectangle_114" data-name="Rectangle 114" width="2.727" height="5.181" transform="matrix(-0.001, 1, -1, -0.001, 591.069, 363.654)" fill="#3f3d56"/>
    <path id="Path_91" data-name="Path 91" d="M0,0H.3A5.7,5.7,0,0,1,6,5.7H6A5.7,5.7,0,0,1,.3,11.4H0Z" transform="matrix(-1, -0.001, 0.001, -1, 589.154, 364.853)" fill="#3f3d56"/>
    <path id="Path_92" data-name="Path 92" d="M771.559,640.591a8.809,8.809,0,0,0,4.808-16.678,21.594,21.594,0,0,0-4.517,11.892Z" transform="translate(-228.652 -253.228)" fill="#3f3d56"/>
    <path id="Path_93" data-name="Path 93" d="M705.639,388.316,716.057,403.8l.006-7.293-5.512-8.189Z" transform="translate(-82.45 -45.373)" fill="#f2f2f2"/>
    <path id="Path_94" data-name="Path 94" d="M739.854,388.335l8.02,11.92v-7.293l-3.108-4.621Z" transform="translate(-86.447 -45.375)" fill="#f2f2f2"/>
    <path id="Path_95" data-name="Path 95" d="M690.225,388.309,701.051,404.4h4.912l-10.826-16.092Z" transform="translate(-80.648 -45.372)" fill="#f2f2f2"/>
    <circle id="Ellipse_70" data-name="Ellipse 70" cx="44.209" cy="44.209" r="44.209" transform="translate(0 186.232)" fill="#3f3d56"/>
    <path id="Path_96" data-name="Path 96" d="M204.015,470.667l-22.124-22.124a3.845,3.845,0,1,1,5.437-5.437l16.318,16.319,52.074-59.383a3.844,3.844,0,1,1,5.78,5.069Z" transform="translate(-159.622 -226.917)" fill="#f9d9ff"/>
  </g>
</svg>
