<svg xmlns="http://www.w3.org/2000/svg" width="48.915" height="49.656" viewBox="0 0 48.915 49.656">
  <g id="Group_570" data-name="Group 570" transform="translate(0)">
    <g id="Group_238" data-name="Group 238" transform="translate(0 15.564)">
      <path id="Polygon_8" data-name="Polygon 8" d="M19.64,0,39.28,34.092H0Z" transform="translate(9.635 0)" fill="#fc93ee"/>
      <path id="Polygon_9" data-name="Polygon 9" d="M13.711,0,27.422,20.752H0Z" transform="translate(0 13.34)" fill="#fc93ee"/>
    </g>
    <path id="Icon_awesome-snowflake" data-name="Icon awesome-snowflake" d="M19.757,15.49l-1.517-.875,1.167-.314a.694.694,0,0,0,.489-.848l-.179-.669a.694.694,0,0,0-.848-.489l-3.177.853-2.867-1.66,2.863-1.656,3.177.853a.694.694,0,0,0,.848-.489l.179-.669a.694.694,0,0,0-.489-.848l-1.167-.314,1.517-.875a.7.7,0,0,0,.256-.947l-.7-1.2a.7.7,0,0,0-.947-.256l-1.517.875.314-1.167a.694.694,0,0,0-.489-.848l-.669-.179a.694.694,0,0,0-.848.489L14.3,7.431,11.487,9.055V5.578l2.41-2.41a.72.72,0,0,0,0-1.014l-.507-.507a.72.72,0,0,0-1.014,0l-.889.884V.718A.72.72,0,0,0,10.769,0H9.333a.72.72,0,0,0-.718.718V2.531l-.884-.884a.72.72,0,0,0-1.014,0l-.512.507a.712.712,0,0,0,0,1.014l2.41,2.41V9.055L5.8,7.431,4.944,4.254A.694.694,0,0,0,4.1,3.765l-.669.179a.694.694,0,0,0-.489.848l.314,1.167L1.736,5.084a.692.692,0,0,0-.947.256l-.7,1.2a.692.692,0,0,0,.256.947l1.517.875L.7,8.674a.7.7,0,0,0-.494.853l.179.669a.694.694,0,0,0,.848.489L4.41,9.832l2.863,1.656L4.41,13.143l-3.177-.853a.694.694,0,0,0-.848.489l-.179.669a.694.694,0,0,0,.489.848l1.167.314-1.517.88a.7.7,0,0,0-.256.947l.7,1.2a.7.7,0,0,0,.947.256l1.517-.875-.314,1.167a.694.694,0,0,0,.489.848l.669.179a.694.694,0,0,0,.848-.489l.853-3.177L8.61,13.924V17.4L6.2,19.812a.712.712,0,0,0,0,1.014l.507.507a.72.72,0,0,0,1.014,0l.884-.884v1.808a.72.72,0,0,0,.718.718H10.76a.72.72,0,0,0,.718-.718V20.444l.884.884a.72.72,0,0,0,1.014,0l.507-.507a.72.72,0,0,0,0-1.014l-2.4-2.41V13.92L14.3,15.544l.853,3.177a.694.694,0,0,0,.848.489l.669-.179a.694.694,0,0,0,.489-.848l-.314-1.167,1.517.875a.692.692,0,0,0,.947-.256l.7-1.2A.686.686,0,0,0,19.757,15.49Z" transform="translate(0.692 0)" fill="#fc93ee"/>
    <path id="Icon_weather-raindrop" data-name="Icon weather-raindrop" d="M11.772,17.968a5.731,5.731,0,0,0,.812,2.981,6.174,6.174,0,0,0,2.2,2.2,5.824,5.824,0,0,0,3,.824,5.938,5.938,0,0,0,3.027-.824,6.147,6.147,0,0,0,2.227-2.2,5.773,5.773,0,0,0,.824-2.981,6.554,6.554,0,0,0-.6-2.482,14.393,14.393,0,0,0-1.462-2.668c-.51-.661-1.114-1.392-1.809-2.181S18.082,8.63,17.8,8.352l-1.485,1.5a18.01,18.01,0,0,0-2.076,2.413,17.786,17.786,0,0,0-1.728,2.958A6.441,6.441,0,0,0,11.772,17.968Z" transform="translate(24.434 -2.423)" fill="#fc93ee"/>
  </g>
</svg>
