<svg xmlns="http://www.w3.org/2000/svg" width="44.962" height="37.47" viewBox="0 0 44.962 37.47">
  <path id="Icon_awesome-volume-up" data-name="Icon awesome-volume-up" d="M16.785,5.422,9.84,12.366H1.873A1.873,1.873,0,0,0,0,14.239V25.48a1.873,1.873,0,0,0,1.873,1.873H9.84L16.785,34.3a1.875,1.875,0,0,0,3.2-1.325V6.747A1.875,1.875,0,0,0,16.785,5.422ZM35,1.435a1.889,1.889,0,1,0-2.073,3.158,18.238,18.238,0,0,1,0,30.534A1.889,1.889,0,1,0,35,38.284,22.016,22.016,0,0,0,35,1.435Zm2.471,18.424a14.413,14.413,0,0,0-6.7-12.2,1.865,1.865,0,0,0-2.585.582,1.9,1.9,0,0,0,.578,2.6,10.668,10.668,0,0,1,0,18.019,1.9,1.9,0,0,0-.578,2.6,1.869,1.869,0,0,0,2.585.582A14.412,14.412,0,0,0,37.469,19.859Zm-11.067-6a1.874,1.874,0,1,0-1.808,3.283,3.077,3.077,0,0,1,0,5.434A1.874,1.874,0,1,0,26.4,25.86a6.825,6.825,0,0,0,0-12Z" transform="translate(0 -1.125)" fill="#fc93ee"/>
</svg>
