<svg xmlns="http://www.w3.org/2000/svg" width="939.004" height="727" viewBox="0 0 939.004 727">
  <g id="Group_633" data-name="Group 633" transform="translate(0)">
    <path id="Path_541" data-name="Path 541" d="M957.9,499.119l20.534-20.545a365.608,365.608,0,0,0-7.9-40.446l-11.7,5.924,10.514-10.519c-4.358-16.432-8.284-27.038-8.284-27.038s-41.383,42.144-62.771,91.564L911.539,532.9l-18.132-22.4a147.927,147.927,0,0,0-5.084,17.88c-13.086,61.151-3.723,115,20.913,120.269s55.216-40.026,68.3-101.177c4.057-18.957,4.012-39.708,2.023-59.321Z" transform="translate(-130.499 -86.5)" fill="#e6e6e6"/>
    <path id="Path_542" data-name="Path 542" d="M1018.92,541.792l28.2-6.974a365.622,365.622,0,0,0,14.144-38.707l-13.08-.978,14.437-3.57c4.764-16.319,6.885-27.428,6.885-27.428s-57.21,14.687-101.065,45.937l-6.664,36.674L957.83,518.2a147.922,147.922,0,0,0-13.594,12.678C901.422,576.463,881.6,627.4,899.969,644.645s67.957-5.723,110.768-51.306c13.272-14.131,23.96-31.918,32.395-49.736Z" transform="translate(-130.499 -86.5)" fill="#e6e6e6"/>
    <path id="Path_543" data-name="Path 543" d="M749.8,288.477l6.927-54.369a689.884,689.884,0,0,0-58.485-51.245l-10.627,22.352,3.547-27.837c-25.475-19.494-43.579-30.791-43.579-30.791S634.472,257.262,659.6,355.714l60,36.7-52.917-12.493a279.1,279.1,0,0,0,13.055,32.555C730.809,518.847,806.948,588.4,849.8,567.828S886,444.343,834.937,337.969c-15.831-32.977-39.855-63.9-65.467-90.871Z" transform="translate(-130.499 -86.5)" fill="#e6e6e6"/>
    <path id="Path_544" data-name="Path 544" d="M890.136,281.718l34.034-42.962a689.871,689.871,0,0,0-23.578-74.1L879.941,178.3l17.425-22c-11.731-29.856-21.39-48.884-21.39-48.884s-68.429,87.967-97.8,185.238l32.394,62.428-38.842-38.048a279.123,279.123,0,0,0-5.653,34.617C754.8,469.111,784.029,568.01,831.35,572.55s94.818-87,106.087-204.455c3.494-36.413-1.089-75.3-9.072-111.63Z" transform="translate(-130.499 -86.5)" fill="#e6e6e6"/>
    <path id="Path_545" data-name="Path 545" d="M262.734,296.467l-3.443-57.048a719.369,719.369,0,0,0-69.857-41.165l-6.555,24.961-1.763-29.208c-29.88-15.034-50.618-23.1-50.618-23.1s8.026,115.935,52.863,211.932l68.588,25.967-56.639-2.541A291.045,291.045,0,0,0,215,437.09c72.943,99.087,164.436,155.589,204.356,126.2S432.5,429.756,359.559,330.67c-22.613-30.718-53.221-57.74-84.692-80.411Z" transform="translate(-130.499 -86.5)" fill="#e6e6e6"/>
    <path id="Path_546" data-name="Path 546" d="M405.21,262.336l26.541-50.615a719.36,719.36,0,0,0-38.522-71.348l-18.513,17.979L388.3,132.438C370.5,104.123,356.912,86.5,356.912,86.5s-53.056,103.394-64.295,208.748L337.91,352.93l-47.172-31.452a291.039,291.039,0,0,0,.92,36.563C302.882,480.568,352,576.23,401.362,571.708s80.28-107.516,69.056-230.043c-3.48-37.985-15.714-76.938-30.935-112.613Z" transform="translate(-130.499 -86.5)" fill="#e6e6e6"/>
    <ellipse id="Ellipse_242" data-name="Ellipse 242" cx="35" cy="10" rx="35" ry="10" transform="translate(388.193 668)" fill="#e6e6e6"/>
    <ellipse id="Ellipse_243" data-name="Ellipse 243" cx="35" cy="10" rx="35" ry="10" transform="translate(769.193 707)" fill="#e6e6e6"/>
    <ellipse id="Ellipse_244" data-name="Ellipse 244" cx="35" cy="10" rx="35" ry="10" transform="translate(842.193 625)" fill="#e6e6e6"/>
    <ellipse id="Ellipse_245" data-name="Ellipse 245" cx="26.5" cy="7.571" rx="26.5" ry="7.571" transform="translate(707.193 600.858)" fill="#e6e6e6"/>
    <ellipse id="Ellipse_246" data-name="Ellipse 246" cx="17.5" cy="5.429" rx="17.5" ry="5.429" transform="translate(142.193 598)" fill="#e6e6e6"/>
    <ellipse id="Ellipse_247" data-name="Ellipse 247" cx="17.5" cy="5.429" rx="17.5" ry="5.429" transform="translate(73.193 659)" fill="#e6e6e6"/>
    <ellipse id="Ellipse_248" data-name="Ellipse 248" cx="17.5" cy="5.429" rx="17.5" ry="5.429" transform="translate(73.193 563)" fill="#e6e6e6"/>
    <path id="Path_547" data-name="Path 547" d="M970.564,672.454l-169.56-6-89.42,8.53-152.77,14.57-57.49,5.48-133.14,44.4a2.98,2.98,0,0,1-3.73-3.88l.01-.01,23.09-61.07-2.43-1.79-63.54-46.69-.34-.25-82.39-12.56a6.909,6.909,0,0,1-4.62-10.78l125.48-180.06,65.94-94.6,7.15-10.27,274.3-3.79,267.81,350.35a5.241,5.241,0,0,1-4.35,8.42Z" transform="translate(-130.499 -86.5)" fill="#5ac3ff"/>
    <path id="Path_548" data-name="Path 548" d="M366.56,245.587l-111.937,340.6-63.533-46.69,38.128-203.648,65.748-94.828.187.221Z" opacity="0.2"/>
    <path id="Path_549" data-name="Path 549" d="M397.141,462.565C384.44,493.1,379.943,518.6,364.878,514c-20.626-6.3,1.031-28.607,13.732-59.14s21.676-53.956,32.263-51.432C430.612,408.129,409.842,432.031,397.141,462.565Z" transform="translate(-130.499 -86.5)" fill="#3f3d56"/>
    <path id="Path_550" data-name="Path 550" d="M425.918,401.447a15.388,15.388,0,0,0-15.413-15.363c-.347,0-.69.017-1.032.04l-14.521-1.791a15.357,15.357,0,0,0-5.192-.891c-.489,0-.971.027-1.448.072l-.559-.069-.015.137a15.388,15.388,0,0,0-3.251,29.7l-.03.277,1.428.16a15.405,15.405,0,0,0,3.925.5c.147,0,.292-.007.438-.012l14.844,1.663a15.346,15.346,0,0,0,5.462.992,15.511,15.511,0,0,0,2.079-.147l1.266.142.008-.371a15.39,15.39,0,0,0,12.01-15.036Z" transform="translate(-130.499 -86.5)" fill="#48a3e9"/>
    <path id="Path_552" data-name="Path 552" d="M220.413,611.653l-1.777-.933C264.16,523.951,392.921,338.558,394.216,336.7l1.648,1.146C394.569,339.7,265.879,524.994,220.413,611.653Z" transform="translate(-130.499 -86.5)" fill="#3f3d56"/>
    <path id="Path_553" data-name="Path 553" d="M359.861,741.688l-1.936-.527c.938-3.448,94.186-345.49,126.561-403.189l1.75.982C453.981,396.438,360.8,738.242,359.861,741.688Z" transform="translate(-130.499 -86.5)" fill="#3f3d56"/>
    <path id="Path_554" data-name="Path 554" d="M982.806,675.374C933.094,593.482,745.359,339.857,743.468,337.3l1.613-1.194c1.891,2.553,189.681,256.252,239.44,338.223Z" transform="translate(-130.499 -86.5)" fill="#3f3d56"/>
    <ellipse id="Ellipse_249" data-name="Ellipse 249" cx="7.025" cy="9.032" rx="7.025" ry="9.032" transform="translate(218.696 646.24) rotate(-0.092)" fill="#3f3d56"/>
    <ellipse id="Ellipse_250" data-name="Ellipse 250" cx="7.025" cy="9.032" rx="7.025" ry="9.032" transform="translate(83.317 510.981) rotate(-0.092)" fill="#3f3d56"/>
    <ellipse id="Ellipse_251" data-name="Ellipse 251" cx="7.025" cy="9.032" rx="7.025" ry="9.032" transform="translate(847.117 575.329) rotate(-0.092)" fill="#3f3d56"/>
    <path id="Path_555" data-name="Path 555" d="M386.414,346.658l378.621,4.057A117.212,117.212,0,0,0,647.769,234.5l-144.5.232c-60.439.1-111.615,47.362-116.507,107.6Z" transform="translate(-130.499 -86.5)" fill="#3f3d56"/>
    <path id="Path_556" data-name="Path 556" d="M719.084,471.814H580.7a12.719,12.719,0,0,0-12.73,12.88l.12,10.12,1.23,108.34.02,2.09.04,3.45.04,3.37.23,20.31a12.739,12.739,0,0,0,12.46,12.59c.34,0,.69-.01,1.04-.03l32.86-2,47.54-2.9,16.78-1.02,3.74-.23,26.15-1.59h.01l9.62-.59a12.75,12.75,0,0,0,11.96-12.71V484.544a12.744,12.744,0,0,0-12.73-12.73Z" transform="translate(-130.499 -86.5)" opacity="0.2"/>
    <path id="Path_557" data-name="Path 557" d="M747.581,454.119a3.4,3.4,0,0,0-2.519,1.444l-15.247.025v-4.044a12.744,12.744,0,0,0-12.73-12.73H578.7a12.719,12.719,0,0,0-12.73,12.88l.049,4.157-9.834.016a3.043,3.043,0,0,0-2.065-.957c-3.447.006-6.229,7.532-6.214,16.811s2.821,16.8,6.268,16.791a3.766,3.766,0,0,0,2.888-1.925l188.044-.3a3.4,3.4,0,0,0,2.524,1.436c3.447-.006,6.228-7.532,6.214-16.812S751.027,454.114,747.581,454.119Z" transform="translate(-130.499 -86.5)" fill="#48a3e9"/>
    <path id="Path_559" data-name="Path 559" d="M732.09,666.558h0a8.133,8.133,0,0,1-12.77-2.182L711.8,649.931l2.993-6.485,16.128,10.322a8.133,8.133,0,0,1,1.172,12.79Z" transform="translate(-130.499 -86.5)" fill="#ffb8b8"/>
    <path id="Path_560" data-name="Path 560" d="M764.588,750.835a6.736,6.736,0,0,0-6.791-6.018,6.82,6.82,0,0,0-6.663,5.165h0l-6.663,32.354a13.085,13.085,0,0,0-.341,2.885c0,7.3,6.106,12.366,13.666,12.366s13.669-5.07,13.669-12.366a13.235,13.235,0,0,0-.472-3.459Z" transform="translate(-130.499 -86.5)" fill="#3f3d56"/>
    <path id="Path_561" data-name="Path 561" d="M814.985,765.306a15.294,15.294,0,0,0-2.178-1.593l-25.453-17.788c-2.478-1.556-5.125-1.512-7.047.366a4.953,4.953,0,0,0-.732,6.3l19.219,25.259a13.39,13.39,0,0,0,1.464,1.717c3.331,3.723,10.719,3.928,14.779,0C819.042,775.571,818.994,768.454,814.985,765.306Z" transform="translate(-130.499 -86.5)" fill="#3f3d56"/>
    <path id="Path_562" data-name="Path 562" d="M834.113,738.955H808.334a3.135,3.135,0,0,0-3.251,2.987,3.408,3.408,0,0,0,2.533,3.353l24.318,7.523c3.533.824,8.292-2.325,8.292-6.256C840.226,741.562,837.444,738.955,834.113,738.955Z" transform="translate(-130.499 -86.5)" fill="#3f3d56"/>
    <path id="Path_563" data-name="Path 563" d="M711.448,741.928a3.2,3.2,0,0,0-3.459-2.987h-25.78c-3.247,0-5.985,3.507-5.985,7.439s4.62,7.263,8.164,6.439l24.685-7.523A3.1,3.1,0,0,0,711.448,741.928Z" transform="translate(-130.499 -86.5)" fill="#3f3d56"/>
    <path id="Path_564" data-name="Path 564" d="M729.14,745.955l-25.461,17.711a11.841,11.841,0,0,0-2.2,1.593,9.639,9.639,0,0,0-.494,13.622q.238.256.494.493a10.759,10.759,0,0,0,14.775,0,11.26,11.26,0,0,0,1.464-1.713l19.234-25.117a4.828,4.828,0,0,0-.732-6.245,5.491,5.491,0,0,0-7.083-.344Z" transform="translate(-130.499 -86.5)" fill="#3f3d56"/>
    <path id="Path_565" data-name="Path 565" d="M768.744,711.343a2.735,2.735,0,0,0,.472-1.47c0-3.1-6.11-5.255-13.669-5.255s-13.666,2.155-13.666,5.255a2.618,2.618,0,0,0,.341,1.226l6.662,13.75h0c.763,1.3,3.516,2.2,6.663,2.2,3.547,0,6.494-1.122,6.791-2.558Z" transform="translate(-130.499 -86.5)" fill="#3f3d56"/>
    <path id="Path_566" data-name="Path 566" d="M812.787,712.276c-4.06-1.669-11.447-1.582-14.779,0a11.987,11.987,0,0,0-1.464.73l-19.219,10.735c-1.307.85-1,1.976.732,2.676a11.5,11.5,0,0,0,7.047.156l25.453-7.56a21.686,21.686,0,0,0,2.178-.677C816.744,717,816.792,713.974,812.787,712.276Z" transform="translate(-130.499 -86.5)" fill="#3f3d56"/>
    <path id="Path_567" data-name="Path 567" d="M837.977,726.3c0-1.671-4.759-3.009-8.292-2.659l-24.318,3.2c-1.453.2-2.533.677-2.533,1.425s1.585,1.27,3.251,1.27h25.779C835.194,729.534,837.977,728.427,837.977,726.3Z" transform="translate(-130.499 -86.5)" fill="#3f3d56"/>
    <path id="Path_568" data-name="Path 568" d="M706.822,726.84l-24.685-3.2c-3.544-.35-8.164,1.066-8.164,2.737s2.738,3.161,5.985,3.161h25.779c1.794,0,3.459-.492,3.459-1.27S708.429,727.044,706.822,726.84Z" transform="translate(-130.499 -86.5)" fill="#3f3d56"/>
    <path id="Path_569" data-name="Path 569" d="M733.974,726.414c1.8-.711,2.013-1.786.732-2.654l-19.234-10.674a10.106,10.106,0,0,0-1.464-.728,22.484,22.484,0,0,0-14.775,0q-.256.1-.494.21c-3.625,1.657-3.4,4.249.494,5.789a16.884,16.884,0,0,0,2.2.677l25.461,7.527A11.634,11.634,0,0,0,733.974,726.414Z" transform="translate(-130.499 -86.5)" fill="#3f3d56"/>
    <path id="Path_570" data-name="Path 570" d="M807.978,709.117c0,39.763-22.161,40.5-49.5,40.5s-72.218-7.866-49.5-40.5c23.963-34.418,65.074-100.021,49.5-103.495C758.48,605.622,807.978,669.354,807.978,709.117Z" transform="translate(-130.499 -86.5)" fill="#f9a825"/>
    <path id="Path_571" data-name="Path 571" d="M775.913,733.584c0,15.739-8.772,16.031-19.593,16.031s-28.587-3.114-19.593-16.031c9.486-13.624,25.759-39.592,19.593-40.967C756.32,692.618,775.913,717.845,775.913,733.584Z" transform="translate(-130.499 -86.5)" fill="#ff6584" opacity="0.5"/>
    <path id="Path_572" data-name="Path 572" d="M731.814,616.784v7.11a12.75,12.75,0,0,1-11.96,12.71l-136.7,8.33a12.722,12.722,0,0,1-13.5-12.56l-.33-29.22,82.69-1.34Z" transform="translate(-130.499 -86.5)" fill="#3f3d56"/>
    <path id="Path_573" data-name="Path 573" d="M709.523,652l-61.671-32.031a2.257,2.257,0,0,1-1.151-1.46l-13.378-53.917a12.942,12.942,0,0,1,8.286-15.332l3.223-1.128a5.562,5.562,0,0,1,7.2,3.761l13.186,47.469a2.257,2.257,0,0,0,.735,1.134L716.2,642.132a2.258,2.258,0,0,1,.423,3.013l-4.193,6.128A2.258,2.258,0,0,1,709.523,652Z" transform="translate(-130.499 -86.5)" fill="#e6e6e6"/>
    <path id="Path_574" data-name="Path 574" d="M668.9,568.12c-29.911-15.747-61.221-23.655-94.781-18.956,10.116-17.145,17.63-33,17.127-44.862a23.357,23.357,0,0,1,9.163-19.9,28.355,28.355,0,0,1,16.9-5.577h0a23.221,23.221,0,0,1,17.2-.684A18.086,18.086,0,0,1,645,488.531c1.147,2.78,3.617,5.215,7.2,7.36a20.2,20.2,0,0,1,7.8,8.145c2.36,4.7,2.523,9.425-.571,14.2C671,530.4,671.035,548.687,668.9,568.12Z" transform="translate(-130.499 -86.5)" fill="#2f2e41"/>
    <circle id="Ellipse_252" data-name="Ellipse 252" cx="20.951" cy="20.951" r="20.951" transform="translate(475.043 400.309)" fill="#ffb8b8"/>
    <path id="Path_575" data-name="Path 575" d="M636.471,553.155l-24.443,2.494c1.312-14.292,1.828-27.479,0-37.413h24.443C631.829,534.052,632.236,545.325,636.471,553.155Z" transform="translate(-130.499 -86.5)" fill="#ffb8b8"/>
    <path id="Path_576" data-name="Path 576" d="M649.564,552.614q-.03,3.285-.14,6.5c-.51,15.34-2.44,29.15-7.7,39.32a35.338,35.338,0,0,1-3.81,5.95.175.175,0,0,1-.04.05,3.855,3.855,0,0,1-.33.4,28.293,28.293,0,0,1-3.57,3.69l-10.01,10.5-.46.48-2.92,1.95-15.04,10.02-36.12-19.41-.04-3.37-.04-3.45c8.03-11.38,13.04-26.18,16.22-43.03.87-4.61,1.61-9.38,2.24-14.28.43-3.39.81-6.85,1.14-10.36a5.535,5.535,0,0,1,1.05-2.99.01.01,0,0,1,.01-.01c1.54-1.96,4.6-1.92,8.3-2.12,5.19-.28,10.3-2.97,14.89-.43a2.693,2.693,0,0,1,.33.18l13.47,14.96,6.19-6.67.29-.31,12.75,5.46a5.887,5.887,0,0,1,3.34,6.97Z" transform="translate(-130.499 -86.5)" fill="#e6e6e6"/>
    <path id="Path_577" data-name="Path 577" d="M621.134,626.144a20.236,20.236,0,0,1-1.422,7.454l-3.7,9.336-32.86,2c-.35.02-.7.03-1.04.03a12.739,12.739,0,0,1-12.46-12.59l-.23-20.31-.04-3.37,11.96,5.07L593,607.5a17.43,17.43,0,0,1,1.95-.7,18.758,18.758,0,0,1,2.64-.63h.01c.43-.07.86-.13,1.29-.17a20.211,20.211,0,0,1,13.91,3.77,19.946,19.946,0,0,1,5.71,6.42,4.754,4.754,0,0,1,.29.54,19.513,19.513,0,0,1,1.78,4.72A20.461,20.461,0,0,1,621.134,626.144Z" transform="translate(-130.499 -86.5)" fill="#2f2e41"/>
    <path id="Path_578" data-name="Path 578" d="M481.279,479.874l4.371,20.055,26.557,22.846-23.445-23.944Z" opacity="0.2"/>
    <path id="Path_579" data-name="Path 579" d="M456.836,489.352l7.981,32.425,23.446,8.481-21.949-10.975Z" opacity="0.2"/>
    <path id="Path_580" data-name="Path 580" d="M651.686,509.007c-15.442-7.1-32.9-9.13-48.388-1.5l2-17.958,33.922-5.487Z" transform="translate(-130.499 -86.5)" fill="#2f2e41"/>
    <path id="Path_581" data-name="Path 581" d="M645.315,580.314,531.768,560.808l1.392-6.86,112.155,26.366Z" fill="#3f3d56"/>
    <path id="Path_582" data-name="Path 582" d="M681.208,651.593h0a8.133,8.133,0,0,1-12.77-2.183l-7.523-14.445,2.993-6.485L680.036,638.8a8.133,8.133,0,0,1,1.172,12.79Z" transform="translate(-130.499 -86.5)" fill="#ffb8b8"/>
    <path id="Path_583" data-name="Path 583" d="M658.641,637.037,596.97,605.006a2.258,2.258,0,0,1-1.151-1.46l-13.378-53.918a12.942,12.942,0,0,1,8.286-15.332l3.223-1.128a5.562,5.562,0,0,1,7.2,3.761L614.332,584.4a2.257,2.257,0,0,0,.735,1.134l50.248,41.634a2.258,2.258,0,0,1,.423,3.014l-4.193,6.128A2.258,2.258,0,0,1,658.641,637.037Z" transform="translate(-130.499 -86.5)" fill="#e6e6e6"/>
    <path id="Path_584" data-name="Path 584" d="M763.575,670.365a2.1,2.1,0,0,0,2.467-1.646l1.138-5.694a2.1,2.1,0,0,0-1.644-2.467l-16.481-3.295a2.1,2.1,0,0,0-2.467,1.646l-1.138,5.694a2.1,2.1,0,0,0,1.644,2.467Z" transform="translate(-130.499 -86.5)" fill="#e6e6e6"/>
  </g>
</svg>
