<svg xmlns="http://www.w3.org/2000/svg" width="60.49" height="53.769" viewBox="0 0 60.49 53.769">
  <path id="Icon_awesome-cloud-sun-rain" data-name="Icon awesome-cloud-sun-rain" d="M53.611,23.681A8.4,8.4,0,0,0,45.367,16.8a8.294,8.294,0,0,0-3.6.84,10.063,10.063,0,0,0-18.241,5.881c0,.053.021.116.021.168A8.4,8.4,0,0,0,25.2,40.326H52.089a8.391,8.391,0,0,0,1.523-16.645ZM13.033,27.294A10.057,10.057,0,0,1,26.338,12.255a13.35,13.35,0,0,1,7.267-2.174c.074,0,.137.021.21.021l.935-2.8a1.364,1.364,0,0,0-1.733-1.722L25.11,8.212,21.382.756a1.368,1.368,0,0,0-2.447,0L15.206,8.212,7.3,5.576A1.364,1.364,0,0,0,5.576,7.309l2.636,7.908L.756,18.945a1.368,1.368,0,0,0,0,2.447L8.212,25.12,5.576,33.028a1.372,1.372,0,0,0,1.733,1.733l6.217-2.069c-.021-.252-.074-.494-.074-.756a11.606,11.606,0,0,1,.651-3.77,9.685,9.685,0,0,1-1.071-.872Zm7.33-6.091a13.392,13.392,0,0,1,3.35-6.721,6.63,6.63,0,0,0-3.55-1.04,6.727,6.727,0,0,0-6.721,6.721,6.658,6.658,0,0,0,2.216,4.946A11.776,11.776,0,0,1,20.363,21.2Zm34.719,22.7a1.676,1.676,0,0,0-2.289.63l-3.844,6.721a1.674,1.674,0,0,0,.63,2.289,1.676,1.676,0,0,0,2.289-.63L55.712,46.2a1.683,1.683,0,0,0-.63-2.289ZM45,43.908a1.676,1.676,0,0,0-2.289.63l-3.844,6.721a1.674,1.674,0,0,0,.63,2.289,1.676,1.676,0,0,0,2.289-.63L45.63,46.2A1.683,1.683,0,0,0,45,43.908Zm-10.082,0a1.676,1.676,0,0,0-2.289.63l-3.844,6.721a1.674,1.674,0,0,0,.63,2.289,1.676,1.676,0,0,0,2.289-.63L35.548,46.2a1.683,1.683,0,0,0-.63-2.289Zm-10.082,0a1.676,1.676,0,0,0-2.289.63L18.7,51.259a1.674,1.674,0,0,0,.63,2.289,1.676,1.676,0,0,0,2.289-.63L25.467,46.2a1.683,1.683,0,0,0-.63-2.289Z" fill="#fc93ee"/>
</svg>
