<svg xmlns="http://www.w3.org/2000/svg" width="437.679" height="317.317" viewBox="0 0 437.679 317.317">
  <g id="Group_237" data-name="Group 237" transform="translate(-124.838 -86.644)">
    <ellipse id="Ellipse_53" data-name="Ellipse 53" cx="218.84" cy="48.742" rx="218.84" ry="48.742" transform="translate(124.838 306.478)" fill="#e7fcfd"/>
    <path id="Path_501" data-name="Path 501" d="M866.748,391.611,845.409,498.53h-4.62l-.508-.79-1.472-2.29,18.479-99.879,2.805-1.175Z" transform="translate(-421.617 -196.838)" fill="#47465a"/>
    <path id="Path_502" data-name="Path 502" d="M860.094,397.21,840.281,500.554l-1.472-2.29,18.479-99.879Z" transform="translate(-421.617 -199.653)" opacity="0.1"/>
    <path id="Path_503" data-name="Path 503" d="M920.378,541.251l-5.486,1.769-1.333.431-1.76-3.96L881.6,401.754l3.139-.7,6.6-1.479Z" transform="translate(-443.127 -200.84)" fill="#47465a"/>
    <path id="Path_504" data-name="Path 504" d="M914.892,544.514l-1.333.431-1.76-3.96L881.6,403.249l3.139-.7Z" transform="translate(-443.127 -202.334)" opacity="0.1"/>
    <path id="Path_505" data-name="Path 505" d="M421.185,391.611l-4.84,138.6-5.547,1.232-.393.088-1.54-2.86,3.08-135.739,2.963-.422Z" transform="translate(-205.511 -196.838)" fill="#47465a"/>
    <path id="Path_506" data-name="Path 506" d="M414.908,393.415,410.8,532.348l-.393.088-1.54-2.86,3.08-135.739Z" transform="translate(-205.511 -197.745)" opacity="0.1"/>
    <path id="Path_507" data-name="Path 507" d="M455.119,581.714l-5.738.99-.643.11-1.76-3.74-27.94-181.058.805-.244,4.255-1.3Z" transform="translate(-210.625 -199.284)" fill="#47465a"/>
    <path id="Path_508" data-name="Path 508" d="M449.381,584.013l-.643.11-1.76-3.74-27.94-181.059.805-.244Z" transform="translate(-210.625 -200.593)" opacity="0.1"/>
    <path id="Path_509" data-name="Path 509" d="M770.246,405.39l21.362,27.3a6.927,6.927,0,0,0,6.261,2.611l87.694-10.27a6.927,6.927,0,0,0,6.121-6.88V397.91Z" transform="translate(-404.313 -221.837)" fill="#7a799c"/>
    <path id="Path_510" data-name="Path 510" d="M880.388,377.9h5.94v8.573a2.207,2.207,0,0,1-2.207,2.207h-1.526a2.207,2.207,0,0,1-2.207-2.207V377.9Z" transform="translate(-442.515 -189.946)" fill="#47465a"/>
    <path id="Path_511" data-name="Path 511" d="M453.539,440.333l21.362,27.3a6.927,6.927,0,0,0,6.261,2.611l87.694-10.27a6.927,6.927,0,0,0,6.121-6.88V432.853Z" transform="translate(-245.125 -239.401)" fill="#7a799c"/>
    <path id="Path_512" data-name="Path 512" d="M563.68,412.842h5.94v8.573a2.207,2.207,0,0,1-2.207,2.207h-1.526a2.207,2.207,0,0,1-2.207-2.207v-8.573Z" transform="translate(-283.327 -207.51)" fill="#47465a"/>
    <path id="Path_513" data-name="Path 513" d="M452.363,408.134,713.209,377.75a3.836,3.836,0,0,0,1.282-7.236L667.83,347.048a54.006,54.006,0,0,0-29.744-5.48L406.345,365.2a4.436,4.436,0,0,0-2.715,7.508l26.986,27.687A26.2,26.2,0,0,0,452.363,408.134Z" transform="translate(-219.405 -193.378)" fill="#47465a"/>
    <path id="Path_514" data-name="Path 514" d="M1076.171,404.759l-2.79-1.542s-3.012,2.217-5.466,11.559,4.586.1,4.586.1l3.08-6.38Z" transform="translate(-553.672 -224.505)" fill="#47465a"/>
    <path id="Path_515" data-name="Path 515" d="M910.481,552.488s-2.86,13.42-4.18,17.16c-.647,1.83-3.771,3.5-7.234,4.785a48.433,48.433,0,0,1-9.486,2.475c-3.74.44-51.7-7.04-75.019-12.1-15.71-3.408-17.741-7.317-17.393-9.5a3.173,3.173,0,0,1,.893-1.716s23.1-15.62,31.24-23.1,24.2-1.54,41.8,1.54S910.481,552.488,910.481,552.488Z" transform="translate(-417.829 -286.656)" fill="#47465a"/>
    <path id="Path_516" data-name="Path 516" d="M1036.063,403.217s10.78,7.04-25.52,21.56c0,0-19.73,11.124-17.162,56.95a12.567,12.567,0,0,0,1.827,5.82c3.745,6.16,11.771,21.753-1.605,23.689v3.52s24.2-12.1,26.84-22.44,11.44-67.759,15.84-73.039S1043.543,405.637,1036.063,403.217Z" transform="translate(-516.354 -224.505)" fill="#47465a"/>
    <path id="Path_517" data-name="Path 517" d="M899.066,603.17a48.433,48.433,0,0,1-9.486,2.475c-3.74.44-51.7-7.04-75.019-12.1-15.71-3.408-17.741-7.317-17.393-9.5,10.327,3.531,43.859,14.738,55.893,15.664,14.3,1.1,41.619,4.158,43.689,2.079C897.545,600.983,898.36,601.828,899.066,603.17Z" transform="translate(-417.828 -315.394)" opacity="0.1"/>
    <path id="Path_518" data-name="Path 518" d="M749.457,700.333l20.9-95.479s3.74-10.12,12.32-9.68l7.92,3.96s-13.2-3.08-16.06,7.04-21.12,94.159-21.12,94.159Z" transform="translate(-393.864 -320.982)" fill="#47465a"/>
    <path id="Path_519" data-name="Path 519" d="M815.808,616.225l8.36-58.3h3.74l-8.58,58.3Z" transform="translate(-410.055 -280.434)" fill="#47465a"/>
    <path id="Path_520" data-name="Path 520" d="M1003.316,715.413l-7.92-91.079s0-7.7,3.96-11.44,16.744-14.409,16.744-14.409,3.276-.771,5.916,6.709,20.9,82.279,20.9,82.279l-3.52,1.54-22.661-86.239-15.62,14.74s-3.08,5.5-1.54,10.56,7.26,87.339,7.26,87.339Z" transform="translate(-517.482 -322.642)" fill="#47465a"/>
    <path id="Path_521" data-name="Path 521" d="M927.717,579.158l19.8,5.72,4.4-4.18-11.44-1.54Z" transform="translate(-466.305 -291.106)" fill="#47465a"/>
    <path id="Path_522" data-name="Path 522" d="M608.3,289.9l3.211,48.157,70.179-6.82L678.9,284.162a4.735,4.735,0,0,0-5.123-4.438l-61.147,5.143A4.735,4.735,0,0,0,608.3,289.9Z" transform="translate(-322.909 -162.424)" fill="#7a799c"/>
    <path id="Path_523" data-name="Path 523" d="M674.654,352.729l-69.96,7.632-2.64.288-20.459-13.2v-2.86l69.519-6.261Z" transform="translate(-292.331 -170.056)" fill="#7a799c"/>
    <path id="Path_524" data-name="Path 524" d="M604.694,366.99l-2.64.288-20.459-13.2v-2.561Z" transform="translate(-292.331 -176.686)" opacity="0.1"/>
    <path id="Path_525" data-name="Path 525" d="M583.364,250.7l2.42,42.9,61.6-5.72-2.2-41.8Z" transform="translate(-293.22 -123.691)" fill="#9493b6"/>
    <path id="Path_526" data-name="Path 526" d="M657.233,363.512l7.48,5.06,22.66-2.2-7.7-4.84Z" transform="translate(-330.35 -181.719)" opacity="0.1"/>
    <path id="Path_527" data-name="Path 527" d="M595.749,347.347l9.46,7.04,60.5-5.72-10.78-7.04Z" transform="translate(-299.446 -171.714)" fill="#9493b6"/>
    <rect id="Rectangle_242" data-name="Rectangle 242" width="44.66" height="44.66" transform="translate(403.662 110.623)" fill="#ff6584"/>
    <rect id="Rectangle_243" data-name="Rectangle 243" width="44.66" height="44.66" transform="translate(403.662 110.623)" opacity="0.1"/>
    <path id="Path_528" data-name="Path 528" d="M876.12,299.553s6.3,17.063,0,20.212,22.575,0,22.575,0l8.138-6.562s-18.375-5.25-15.75-17.325S876.12,299.553,876.12,299.553Z" transform="translate(-457.078 -168.262)" fill="#fbbebe"/>
    <path id="Path_529" data-name="Path 529" d="M876.12,299.553s6.3,17.063,0,20.212,22.575,0,22.575,0l8.138-6.562s-18.375-5.25-15.75-17.325S876.12,299.553,876.12,299.553Z" transform="translate(-457.078 -168.262)" opacity="0.1"/>
    <path id="Path_530" data-name="Path 530" d="M773.056,648.648s23.625,33.337,19.687,42.525-1.837,14.962-9.712,18.113-9.975,8.925-3.15,8.662,15.75-2.1,17.063-4.462,4.463-13.65,8.925-15.225,12.862-7.613,6.825-14.963-21.25-34.423-20.075-37.161S773.056,648.648,773.056,648.648Z" transform="translate(-405.726 -346.207)" fill="#fbbebe"/>
    <path id="Path_531" data-name="Path 531" d="M806.488,519.512s-48.825,3.15-61.425,14.963,11.025,55.913,13.65,56.438,23.1-1.575,22.313-7.35-14.7-29.4-14.7-29.4,18.113-6.562,28.087-8.138,21-8.925,21-8.925Z" transform="translate(-389.808 -282.959)" fill="#9493b6"/>
    <path id="Path_532" data-name="Path 532" d="M827.417,503.673s.787,29.138,8.137,30.188,0-22.313,0-22.313l-.262-8.925Z" transform="translate(-433.05 -274.47)" fill="#fbbebe"/>
    <path id="Path_533" data-name="Path 533" d="M847.608,350.418s-13.65-3.937-16.275,6.563-3.413,46.725-3.413,46.725L823.2,432.581s8.662-2.625,10.5-1.312l11.025-13.912Z" transform="translate(-430.927 -197.602)" fill="#6c63ff"/>
    <path id="Path_534" data-name="Path 534" d="M847.608,350.418s-13.65-3.937-16.275,6.563-3.413,46.725-3.413,46.725L823.2,432.581s8.662-2.625,10.5-1.312l11.025-13.912Z" transform="translate(-430.927 -197.602)" fill="#3e38a8" opacity="0.86"/>
    <path id="Path_535" data-name="Path 535" d="M898.735,663.225S907.909,681.26,913.421,681s10.763-3.675,13.388,7.088-.525,7.875,2.625,14.175,3.675,17.325-2.362,19.95-11.55,2.887-11.813,0,5.25-2.888-1.05-13.125-19.687-28.875-25.2-30.712S898.735,663.225,898.735,663.225Z" transform="translate(-463.404 -355.194)" fill="#fbbebe"/>
    <path id="Path_536" data-name="Path 536" d="M883.39,497.873s18.9,31.5,6.563,40.687-49.088,26.775-49.088,26.775,19.688,13.388,20.738,17.85-9.45,16.538-13.125,16.8-14.438-12.075-25.988-15.225-18.638-25.725-6.037-34.125,24.412-22.312,24.412-22.312l-3.673-20.21Z" transform="translate(-424.184 -272.082)" fill="#9493b6"/>
    <path id="Path_537" data-name="Path 537" d="M881.575,266.418c0,11.163-11.435,20.391-22.6,20.391a20.213,20.213,0,1,1,0-40.425C870.141,246.384,881.575,255.254,881.575,266.418Z" transform="translate(-438.753 -145.674)" fill="#fbbebe"/>
    <path id="Path_538" data-name="Path 538" d="M864.448,336.125s18.113-7.875,18.113-8.925,10.5,2.363,12.862,4.462,3.675,1.838,5.25,6.038-7.875,43.313-7.875,43.313,5.25,30.187,8.138,33.075-23.363,7.088-23.363,7.088-17.325,3.15-20.213,4.462-8.138,3.15-7.088,0,5.513-5.513-2.1-9.45c0,0,2.625-12.862,0-18.637s-14.7-26.775-4.987-42,14.175-20.737,14.175-20.737S860.774,337.7,864.448,336.125Z" transform="translate(-439.106 -186.197)" fill="#424244"/>
    <path id="Path_539" data-name="Path 539" d="M856.613,489.428s-20.475,9.081-26.644,9.922-24.806,5.566-14.569,9.766,25.725-2.1,25.725-2.1l21.788-9.187Z" transform="translate(-425.495 -267.837)" fill="#fbbebe"/>
    <path id="Path_540" data-name="Path 540" d="M915.3,343.238s7.561-3.657,9.661,9.205,9.45,53.55,0,59.588-31.237,15.75-31.237,15.75-12.863-8.663-6.825-11.812,20.475-12.075,22.575-15.225,4.222-38.31.547-44.085S915.3,343.238,915.3,343.238Z" transform="translate(-462.135 -194.115)" opacity="0.1"/>
    <path id="Path_541" data-name="Path 541" d="M917.223,337.424s10.5-.525,12.6,12.337,9.45,53.55,0,59.588-31.237,15.75-31.237,15.75-12.862-8.663-6.825-11.813,20.475-12.075,22.575-15.225-1.575-35.963-5.25-41.738S917.223,337.424,917.223,337.424Z" transform="translate(-464.581 -191.433)" fill="#3e38a8"/>
    <path id="Path_542" data-name="Path 542" d="M845.974,218.356c-3.223.439-6.679,1.617-8.3,4.437a37.518,37.518,0,0,0-1.661,4.467c-1.687,4.055-5.783,6.476-8.741,9.723-3.854,4.231-5.769,10.607-3.5,15.859a64.861,64.861,0,0,0,3.394,5.709c3.024,5.393,3.186,11.87,3.272,18.052l.169,12.156a17.47,17.47,0,0,1-.512,5.52,5.912,5.912,0,0,1-3.577,3.987,9.271,9.271,0,0,0,10.8-3.687,9.474,9.474,0,0,1-2.9,8.405c4.813-1.133,8.848-4.634,11.391-8.874a34.392,34.392,0,0,0,4.25-14.088,18.471,18.471,0,0,0-.444-7.771,24.33,24.33,0,0,0-2.546-4.889c-2.47-4.055-4.694-8.369-5.49-13.05s0-9.817,3.043-13.465a12.163,12.163,0,0,1,9.607-4.4,10.7,10.7,0,0,1,8.917,5.459c.7,1.322,1.7,3.113,3.125,2.649a7.727,7.727,0,0,0,.77-.378c1.587-.722,3.389.7,4.089,2.3,2.207,5.037-1.859,10.535-2.279,16.018-.391,5.1,2.453,9.91,5.852,13.733a45.12,45.12,0,0,0,22.06,13.553,6.192,6.192,0,0,1-3.2-1.988,42.012,42.012,0,0,0,10.323-.865,71.159,71.159,0,0,1-10.5-9.037,23.866,23.866,0,0,1-6.191-12.194c-.893-6.142,1.4-12.794-1.22-18.423-2.391-5.146-8.322-8.022-10.488-13.267-2.2-5.327-3.626-9.956-9.451-12.275C859.685,219.2,852.842,217.421,845.974,218.356Z" transform="translate(-430.729 -131.459)" fill="#18dfed"/>
  </g>
</svg>
